<svg width="294" height="325" viewBox="0 0 294 325" fill="none" xmlns="http://www.w3.org/2000/svg">
<path opacity="0.5" d="M152.084 1.2952C125.266 -4.9664 104.418 12.9619 85.0843 23.2952C65.751 33.6285 20.4177 50.2952 20.0844 78.2952C19.751 106.295 15.0844 180.295 15.0844 180.295C15.0844 180.295 -9.47907 225.619 4.08433 249.295C14.8715 268.126 34.3 264.859 52.0843 277.295C74.9954 293.317 78.3708 320.612 106.084 324.295C128.611 327.289 161.084 305.295 161.084 305.295L212.084 268.295C212.084 268.295 260.679 263.484 279.084 242.295C299.841 218.399 292.084 162.295 292.084 162.295C292.084 162.295 277.463 114.613 258.084 90.2952C239.916 67.4953 224.084 74.2952 200.084 43.2952C176.084 12.2952 176.34 6.95845 152.084 1.2952Z" fill="#EBEBF7"/>
<g opacity="0.3">
<path opacity="0.02" d="M57.6711 199.281L88.5293 217.012L143.961 185.35L112.957 167.541L57.6711 199.281Z" fill="#48486A"/>
<path opacity="0.05" d="M58.9895 198.52L89.8477 216.257L143.96 185.35L112.957 167.541L58.9895 198.52Z" fill="#48486A"/>
<path opacity="0.07" d="M60.3022 197.766L91.167 215.503L143.96 185.35L112.957 167.541L60.3022 197.766Z" fill="#48486A"/>
<path opacity="0.1" d="M61.6145 197.011L92.4859 214.748L143.96 185.35L112.957 167.541L61.6145 197.011Z" fill="#48486A"/>
<path opacity="0.12" d="M62.9331 196.25L93.7978 214L143.96 185.35L112.956 167.541L62.9331 196.25Z" fill="#48486A"/>
<path opacity="0.15" d="M64.2458 195.495L95.1172 213.245L143.96 185.35L112.957 167.541L64.2458 195.495Z" fill="#48486A"/>
<path opacity="0.17" d="M65.5586 194.734L96.4366 212.491L143.96 185.35L112.957 167.541L65.5586 194.734Z" fill="#48486A"/>
<path opacity="0.2" d="M66.8713 193.979L97.7559 211.743L143.961 185.35L112.957 167.541L66.8713 193.979Z" fill="#48486A"/>
<path opacity="0.22" d="M68.1899 193.225L99.0679 210.988L143.96 185.35L112.957 167.541L68.1899 193.225Z" fill="#48486A"/>
<path opacity="0.24" d="M69.5027 192.463L100.387 210.233L143.961 185.35L112.957 167.541L69.5027 192.463Z" fill="#48486A"/>
<path opacity="0.27" d="M70.8145 191.709L101.706 209.485L143.96 185.35L112.957 167.541L70.8145 191.709Z" fill="#48486A"/>
<path opacity="0.29" d="M72.1328 190.948L103.024 208.731L143.959 185.35L112.956 167.541L72.1328 190.948Z" fill="#48486A"/>
<path opacity="0.32" d="M73.4456 190.193L104.343 207.976L143.96 185.35L112.956 167.541L73.4456 190.193Z" fill="#48486A"/>
<path opacity="0.34" d="M74.7585 189.432L105.656 207.228L143.96 185.35L112.957 167.541L74.7585 189.432Z" fill="#48486A"/>
<path opacity="0.37" d="M76.0713 188.677L106.976 206.473L143.961 185.35L112.957 167.541L76.0713 188.677Z" fill="#48486A"/>
<path opacity="0.39" d="M77.3823 187.923L108.293 205.719L143.959 185.35L112.956 167.541L77.3823 187.923Z" fill="#48486A"/>
<path opacity="0.41" d="M78.7024 187.161L109.613 204.971L143.96 185.35L112.957 167.541L78.7024 187.161Z" fill="#48486A"/>
<path opacity="0.44" d="M80.0137 186.407L110.931 204.216L143.959 185.35L112.956 167.541L80.0137 186.407Z" fill="#48486A"/>
<path opacity="0.46" d="M81.3274 185.646L112.245 203.461L143.96 185.35L112.957 167.541L81.3274 185.646Z" fill="#48486A"/>
<path opacity="0.49" d="M82.646 184.891L113.564 202.713L143.96 185.35L112.957 167.541L82.646 184.891Z" fill="#48486A"/>
<path opacity="0.51" d="M83.9587 184.13L114.883 201.959L143.96 185.35L112.957 167.541L83.9587 184.13Z" fill="#48486A"/>
<path opacity="0.54" d="M85.27 183.375L116.201 201.204L143.959 185.35L112.956 167.541L85.27 183.375Z" fill="#48486A"/>
<path opacity="0.56" d="M86.5842 182.621L117.522 200.449L143.961 185.35L112.958 167.541L86.5842 182.621Z" fill="#48486A"/>
<path opacity="0.59" d="M87.9028 181.859L118.834 199.701L143.961 185.35L112.957 167.541L87.9028 181.859Z" fill="#48486A"/>
<path opacity="0.61" d="M89.2156 181.105L120.153 198.947L143.961 185.35L112.958 167.541L89.2156 181.105Z" fill="#48486A"/>
<path opacity="0.63" d="M90.5273 180.344L121.471 198.192L143.96 185.35L112.957 167.541L90.5273 180.344Z" fill="#48486A"/>
<path opacity="0.66" d="M91.8391 179.589L122.79 197.444L143.96 185.35L112.956 167.541L91.8391 179.589Z" fill="#48486A"/>
<path opacity="0.68" d="M93.1587 178.834L124.109 196.689L143.96 185.35L112.957 167.541L93.1587 178.834Z" fill="#48486A"/>
<path opacity="0.71" d="M94.4705 178.073L125.421 195.935L143.96 185.35L112.956 167.541L94.4705 178.073Z" fill="#48486A"/>
<path opacity="0.73" d="M95.783 177.319L126.74 195.187L143.96 185.35L112.956 167.541L95.783 177.319Z" fill="#48486A"/>
<path opacity="0.76" d="M97.1025 176.557L128.06 194.432L143.96 185.35L112.957 167.541L97.1025 176.557Z" fill="#48486A"/>
<path opacity="0.78" d="M98.4153 175.803L129.379 193.677L143.961 185.35L112.957 167.541L98.4153 175.803Z" fill="#48486A"/>
<path opacity="0.8" d="M99.7271 175.041L130.697 192.923L143.96 185.35L112.957 167.541L99.7271 175.041Z" fill="#48486A"/>
<path opacity="0.83" d="M101.04 174.287L132.011 192.175L143.961 185.35L112.957 167.541L101.04 174.287Z" fill="#48486A"/>
<path opacity="0.85" d="M102.359 173.532L133.329 191.42L143.96 185.35L112.957 167.541L102.359 173.532Z" fill="#48486A"/>
<path opacity="0.88" d="M103.672 172.771L134.648 190.665L143.961 185.35L112.957 167.541L103.672 172.771Z" fill="#48486A"/>
<path opacity="0.9" d="M104.983 172.016L135.966 189.917L143.96 185.35L112.956 167.541L104.983 172.016Z" fill="#48486A"/>
<path opacity="0.93" d="M106.296 171.255L137.279 189.163L143.96 185.35L112.957 167.541L106.296 171.255Z" fill="#48486A"/>
<path opacity="0.95" d="M107.616 170.501L138.599 188.408L143.961 185.35L112.958 167.541L107.616 170.501Z" fill="#48486A"/>
<path opacity="0.98" d="M108.927 169.739L139.917 187.66L143.96 185.35L112.957 167.541L108.927 169.739Z" fill="#48486A"/>
<path opacity="0.3" d="M110.24 168.985L141.236 186.906L143.96 185.35L112.957 167.541L110.24 168.985Z" fill="#48486A"/>
</g>
<path d="M142.747 106.436L102.557 128.95L142.496 151.897L182.436 129.987L142.747 106.436Z" fill="#6D6D88"/>
<path d="M142.734 107.604L104.601 128.963L142.496 150.729L180.391 129.948L142.734 107.604Z" fill="#48486A"/>
<path d="M142.686 115.596L111.624 132.999L142.495 150.729L173.366 133.799L142.686 115.596Z" fill="#363650"/>
<path d="M102.557 128.951L111.625 168.237L142.496 186.191V151.898L102.557 128.951Z" fill="#48486A"/>
<path d="M182.436 129.987L170.954 169.845L142.496 186.191V151.898L182.436 129.987Z" fill="#515171"/>
<path d="M133.725 145.06L99.5845 120.295C99.5845 120.295 140.498 131.254 142.497 141.812L133.725 145.06Z" fill="url(#paint0_linear_4219_358)"/>
<path d="M147.647 144.135C147.647 144.135 134.527 120.608 123.084 104.295C111.497 87.7787 90.2043 95.4187 86.4056 115.197C86.3726 115.354 86.3462 115.505 86.3132 115.662C86.3132 115.662 106.177 83.4628 137.959 147.704L147.647 144.135Z" fill="url(#paint1_linear_4219_358)"/>
<path d="M153.599 142.04C153.599 142.04 153.179 90.285 165.922 71.6498C165.922 71.6498 154.667 73.0364 143.038 136.153L153.599 142.04Z" fill="url(#paint2_linear_4219_358)"/>
<path d="M142.496 150.729C142.496 150.729 165.974 61.8274 191.543 119.737C191.543 119.737 167.584 85.7952 153.292 144.534L142.496 150.729Z" fill="url(#paint3_linear_4219_358)"/>
<path d="M142.496 150.729C142.496 150.729 161.858 132.575 136.084 72.7952C136.084 72.7952 138.519 135.604 129.629 143.341L142.496 150.729Z" fill="url(#paint4_linear_4219_358)"/>
<path opacity="0.02" d="M112.907 191.923C98.7199 183.758 75.4947 183.758 61.3255 191.923C47.1564 200.088 47.1383 213.457 61.3255 221.604C75.5127 229.751 98.7199 229.769 112.907 221.604C127.094 213.439 127.076 200.088 112.907 191.923Z" fill="#FBFBFD"/>
<path opacity="0.04" d="M87.1076 227.418C106.925 227.418 122.99 218.171 122.99 206.764C122.99 195.356 106.925 186.109 87.1076 186.109C67.2905 186.109 51.2256 195.356 51.2256 206.764C51.2256 218.171 67.2905 227.418 87.1076 227.418Z" fill="#F7F8FB"/>
<path opacity="0.06" d="M87.1074 227.078C106.606 227.078 122.413 217.983 122.413 206.764C122.413 195.545 106.606 186.45 87.1074 186.45C67.6085 186.45 51.8015 195.545 51.8015 206.764C51.8015 217.983 67.6085 227.078 87.1074 227.078Z" fill="#F2F4FA"/>
<path opacity="0.08" d="M111.647 192.623C98.1619 184.853 76.071 184.853 62.5679 192.623C49.0649 200.394 49.0649 213.116 62.5679 220.869C76.071 228.621 98.1619 228.639 111.647 220.869C125.132 213.098 125.15 200.411 111.647 192.623Z" fill="#EEF0F8"/>
<path opacity="0.1" d="M111.305 192.892C98.0361 185.248 76.3232 185.248 63.0543 192.892C49.7853 200.537 49.7853 213.026 63.0543 220.653C76.3232 228.28 98.0361 228.298 111.305 220.653C124.574 213.008 124.502 200.519 111.305 192.892Z" fill="#EAECF6"/>
<path opacity="0.12" d="M110.819 193.126C97.7839 185.625 76.4312 185.625 63.3962 193.126C50.3613 200.627 50.3433 212.865 63.3962 220.42C76.4492 227.974 97.7839 227.921 110.819 220.42C123.854 212.919 123.908 200.627 110.819 193.126Z" fill="#E6E9F4"/>
<path opacity="0.14" d="M110.405 193.359C97.586 185.984 76.6293 185.984 63.8104 193.359C50.9916 200.734 50.9916 212.811 63.8104 220.276C76.6293 227.741 97.586 227.634 110.405 220.276C123.224 212.919 123.224 200.734 110.405 193.359Z" fill="#E1E5F2"/>
<path opacity="0.16" d="M109.991 193.61C97.3879 186.432 76.8092 186.432 64.2244 193.61C51.6396 200.788 51.6216 212.704 64.2244 219.935C76.8273 227.167 97.4059 227.113 109.991 219.935C122.576 212.758 122.576 200.842 109.991 193.61Z" fill="#DDE1F0"/>
<path opacity="0.18" d="M87.1074 225.05C104.657 225.05 118.885 216.863 118.885 206.764C118.885 196.665 104.657 188.478 87.1074 188.478C69.5574 188.478 55.3303 196.665 55.3303 206.764C55.3303 216.863 69.5574 225.05 87.1074 225.05Z" fill="#D9DEEF"/>
<path opacity="0.2" d="M87.1075 224.709C104.329 224.709 118.291 216.675 118.291 206.764C118.291 196.853 104.329 188.819 87.1075 188.819C69.8857 188.819 55.9246 196.853 55.9246 206.764C55.9246 216.675 69.8857 224.709 87.1075 224.709Z" fill="#D5DAED"/>
<path opacity="0.22" d="M87.1073 224.368C104.011 224.368 117.714 216.486 117.714 206.764C117.714 197.042 104.011 189.16 87.1073 189.16C70.2036 189.16 56.5005 197.042 56.5005 206.764C56.5005 216.486 70.2036 224.368 87.1073 224.368Z" fill="#D1D6EB"/>
<path opacity="0.24" d="M87.1075 224.027C103.683 224.027 117.12 216.298 117.12 206.764C117.12 197.23 103.683 189.501 87.1075 189.501C70.5319 189.501 57.0947 197.23 57.0947 206.764C57.0947 216.298 70.5319 224.027 87.1075 224.027Z" fill="#CCD3E9"/>
<path opacity="0.25" d="M107.92 194.794C96.4696 188.209 77.7454 188.209 66.2948 194.794C54.8442 201.38 54.8622 212.165 66.2948 218.751C77.7274 225.337 96.4696 225.337 107.92 218.751C119.371 212.165 119.353 201.38 107.92 194.794Z" fill="#C8CFE7"/>
<path opacity="0.27" d="M107.506 195.046C96.2896 188.586 77.9254 188.586 66.7269 195.046C55.5284 201.506 55.5104 212.057 66.7269 218.5C77.9434 224.942 96.2896 224.96 107.506 218.5C118.723 212.039 118.705 201.488 107.506 195.046Z" fill="#C4CBE5"/>
<path opacity="0.29" d="M107.074 195.279C96.0918 188.962 78.1238 188.962 67.1413 195.279C56.1588 201.596 56.1408 211.95 67.1413 218.266C78.1418 224.583 96.0918 224.583 107.074 218.266C118.057 211.95 118.075 201.596 107.074 195.279Z" fill="#C0C7E4"/>
<path opacity="0.31" d="M106.66 195.512C95.8575 189.321 78.3036 189.321 67.5552 195.512C56.8068 201.703 56.7528 211.842 67.5552 218.033C78.3576 224.224 95.9116 224.224 106.66 218.033C117.408 211.842 117.426 201.703 106.66 195.512Z" fill="#BCC4E2"/>
<path opacity="0.33" d="M87.1076 222.34C102.062 222.34 114.186 215.366 114.186 206.764C114.186 198.161 102.062 191.188 87.1076 191.188C72.1528 191.188 60.0295 198.161 60.0295 206.764C60.0295 215.366 72.1528 222.34 87.1076 222.34Z" fill="#B7C0E0"/>
<path opacity="0.35" d="M87.1075 221.999C101.734 221.999 113.591 215.178 113.591 206.764C113.591 198.35 101.734 191.529 87.1075 191.529C72.4808 191.529 60.6235 198.35 60.6235 206.764C60.6235 215.178 72.4808 221.999 87.1075 221.999Z" fill="#B3BCDE"/>
<path opacity="0.37" d="M105.418 196.212C95.3533 190.416 78.8616 190.416 68.7974 196.212C58.7331 202.008 58.7151 211.501 68.7974 217.297C78.8796 223.094 95.3533 223.094 105.418 217.297C115.482 211.501 115.5 202.026 105.418 196.212Z" fill="#AFB9DC"/>
<path opacity="0.39" d="M105.004 196.463C95.1014 190.829 79.0598 190.829 69.2116 196.463C59.3634 202.098 59.3634 211.412 69.2116 217.064C79.0598 222.717 95.1554 222.735 105.004 217.064C114.852 211.394 114.906 202.134 105.004 196.463Z" fill="#ABB5DB"/>
<path opacity="0.41" d="M104.589 196.715C94.9751 191.17 79.2396 191.17 69.6254 196.715C60.0113 202.26 60.0113 211.304 69.6254 216.831C79.2396 222.358 94.9751 222.358 104.589 216.831C114.203 211.304 114.203 202.242 104.589 196.715Z" fill="#A6B1D9"/>
<path opacity="0.43" d="M104.104 196.948C94.7234 191.565 79.348 191.565 69.8958 196.948C60.4437 202.332 60.5157 211.196 69.8958 216.687C79.276 222.179 94.6514 222.071 104.104 216.687C113.556 211.304 113.556 202.35 104.104 196.948Z" fill="#A2ADD7"/>
<path opacity="0.45" d="M103.761 197.181C94.5971 191.923 79.6177 191.923 70.4537 197.181C61.2896 202.439 61.3076 211.088 70.4537 216.346C79.5997 221.604 94.5971 221.622 103.761 216.346C112.925 211.071 112.925 202.457 103.761 197.181Z" fill="#9EAAD5"/>
<path opacity="0.47" d="M103.347 197.433C94.3451 192.282 79.7978 192.282 70.9398 197.433C62.0818 202.583 61.9378 210.981 70.9398 216.113C79.9418 221.245 94.4891 221.245 103.347 216.113C112.205 210.981 112.277 202.565 103.347 197.433Z" fill="#9AA6D3"/>
<path opacity="0.49" d="M102.933 197.666C94.219 192.659 79.9958 192.659 71.2819 197.666C62.5679 202.672 62.5859 210.873 71.2819 215.88C79.9778 220.886 94.219 220.886 102.933 215.88C111.647 210.873 111.629 202.672 102.933 197.666Z" fill="#96A2D1"/>
<path opacity="0.51" d="M102.519 197.899C94.039 193.036 80.1758 193.036 71.6959 197.899C63.216 202.762 63.2341 210.766 71.6959 215.629C80.1578 220.492 94.039 220.51 102.519 215.629C110.999 210.748 110.981 202.78 102.519 197.899Z" fill="#919FD0"/>
<path opacity="0.53" d="M102.105 198.15C93.8589 193.395 80.3559 193.395 72.1281 198.15C63.9002 202.905 63.8822 210.711 72.1281 215.395C80.3739 220.079 93.8589 220.132 102.105 215.395C110.351 210.658 110.333 202.887 102.105 198.15Z" fill="#8D9BCE"/>
<path opacity="0.55" d="M87.1075 218.625C98.4927 218.625 107.722 213.315 107.722 206.764C107.722 200.213 98.4927 194.902 87.1075 194.902C75.7224 194.902 66.4929 200.213 66.4929 206.764C66.4929 213.315 75.7224 218.625 87.1075 218.625Z" fill="#8997CC"/>
<path opacity="0.57" d="M87.1076 218.284C98.1647 218.284 107.128 213.127 107.128 206.764C107.128 200.401 98.1647 195.243 87.1076 195.243C76.0506 195.243 67.0872 200.401 67.0872 206.764C67.0872 213.127 76.0506 218.284 87.1076 218.284Z" fill="#8594CA"/>
<path opacity="0.59" d="M100.844 198.868C96.5867 196.717 91.8805 195.597 87.1073 195.597C82.3341 195.597 77.628 196.717 73.3702 198.868C65.8086 203.21 65.8086 210.335 73.3702 214.677C77.633 216.811 82.3371 217.922 87.1073 217.922C91.8775 217.922 96.5817 216.811 100.844 214.677C108.406 210.335 108.406 203.21 100.844 198.868Z" fill="#8190C8"/>
<path opacity="0.61" d="M100.503 199.101C96.3711 197.022 91.8076 195.939 87.1796 195.939C82.5515 195.939 77.988 197.022 73.8566 199.101C66.5289 203.318 66.5289 210.227 73.8566 214.444C77.988 216.523 82.5515 217.606 87.1796 217.606C91.8076 217.606 96.3711 216.523 100.503 214.444C107.704 210.227 107.704 203.39 100.503 199.101Z" fill="#7C8CC6"/>
<path opacity="0.63" d="M100.016 199.335C96.0096 197.333 91.5895 196.29 87.1075 196.29C82.6255 196.29 78.2053 197.333 74.1986 199.335C66.997 203.426 66.997 210.102 74.1986 214.193C78.2008 216.21 82.6227 217.261 87.1075 217.261C91.5922 217.261 96.0141 216.21 100.016 214.193C107.128 210.119 107.128 203.39 100.016 199.335Z" fill="#7888C5"/>
<path opacity="0.65" d="M87.1075 216.938C96.8718 216.938 104.787 212.383 104.787 206.764C104.787 201.144 96.8718 196.589 87.1075 196.589C77.3431 196.589 69.4275 201.144 69.4275 206.764C69.4275 212.383 77.3431 216.938 87.1075 216.938Z" fill="#7485C3"/>
<path opacity="0.67" d="M87.1076 216.597C96.5438 216.597 104.193 212.195 104.193 206.764C104.193 201.333 96.5438 196.93 87.1076 196.93C77.6713 196.93 70.0217 201.333 70.0217 206.764C70.0217 212.195 77.6713 216.597 87.1076 216.597Z" fill="#7081C1"/>
<path opacity="0.69" d="M98.7021 200.053C95.0732 198.226 91.0647 197.275 86.9995 197.275C82.9342 197.275 78.9257 198.226 75.2968 200.053C68.8874 203.749 68.8874 209.797 75.2968 213.475C78.9232 215.31 82.9326 216.266 86.9995 216.266C91.0663 216.266 95.0757 215.31 98.7021 213.475C105.184 209.797 105.184 203.749 98.7021 200.053Z" fill="#6B7DBF"/>
<path opacity="0.71" d="M87.1075 215.916C95.8974 215.916 103.023 211.818 103.023 206.764C103.023 201.709 95.8974 197.612 87.1075 197.612C78.3175 197.612 71.1919 201.709 71.1919 206.764C71.1919 211.818 78.3175 215.916 87.1075 215.916Z" fill="#677ABD"/>
<path opacity="0.73" d="M97.9462 200.537C94.594 198.859 90.8948 197.985 87.1438 197.985C83.3927 197.985 79.6935 198.859 76.3413 200.537C70.382 203.965 70.382 209.509 76.3413 213.098C79.6935 214.776 83.3927 215.65 87.1438 215.65C90.8948 215.65 94.594 214.776 97.9462 213.098C103.906 209.581 103.906 203.965 97.9462 200.537Z" fill="#6376BC"/>
<path opacity="0.75" d="M97.5318 200.77C94.2971 199.151 90.7273 198.307 87.1075 198.307C83.4876 198.307 79.9179 199.151 76.6831 200.77C70.9578 204.072 70.9578 209.473 76.6831 212.757C79.9154 214.385 83.4861 215.233 87.1075 215.233C90.7288 215.233 94.2995 214.385 97.5318 212.757C103.257 209.473 103.257 204.072 97.5318 200.77Z" fill="#5F72BA"/>
<path opacity="0.76" d="M97.1179 201.022C94.0149 199.456 90.5857 198.64 87.1077 198.64C83.6297 198.64 80.2005 199.456 77.0974 201.022C71.6062 204.18 71.6062 209.366 77.0974 212.524C80.2005 214.09 83.6297 214.906 87.1077 214.906C90.5857 214.906 94.0149 214.09 97.1179 212.524C102.609 209.366 102.609 204.18 97.1179 201.022Z" fill="#5B6EB8"/>
<path opacity="0.78" d="M96.7034 201.255C93.7303 199.76 90.4465 198.981 87.1163 198.981C83.786 198.981 80.5023 199.76 77.5291 201.255C72.254 204.288 72.254 209.258 77.5291 212.291C80.5023 213.786 83.786 214.565 87.1163 214.565C90.4465 214.565 93.7303 213.786 96.7034 212.291C101.961 209.258 101.961 204.288 96.7034 201.255Z" fill="#566BB6"/>
<path opacity="0.8" d="M96.2716 201.488C93.4284 200.063 90.2901 199.321 87.1076 199.321C83.9251 199.321 80.7868 200.063 77.9435 201.488C72.8844 204.395 72.8844 209.15 77.9435 212.057C80.7868 213.482 83.9251 214.225 87.1076 214.225C90.2901 214.225 93.4284 213.482 96.2716 212.057C101.331 209.15 101.331 204.395 96.2716 201.488Z" fill="#5267B4"/>
<path opacity="0.82" d="M95.8577 201.739C93.1462 200.368 90.1484 199.653 87.1078 199.653C84.0671 199.653 81.0693 200.368 78.3578 201.739C73.5327 204.503 73.5327 209.043 78.3578 211.806C81.0693 213.178 84.0671 213.892 87.1078 213.892C90.1484 213.892 93.1462 213.178 95.8577 211.806C100.683 209.043 100.683 204.503 95.8577 201.739Z" fill="#4E63B2"/>
<path opacity="0.84" d="M95.4434 201.972C92.8586 200.671 90.0033 199.993 87.1075 199.993C84.2117 199.993 81.3564 200.671 78.7716 201.972C74.1806 204.61 74.1806 208.935 78.7716 211.573C81.3564 212.874 84.2117 213.552 87.1075 213.552C90.0033 213.552 92.8586 212.874 95.4434 211.573C100.034 208.935 100.034 204.61 95.4434 201.972Z" fill="#4A60B1"/>
<path opacity="0.86" d="M95.1013 202.206C92.6457 200.966 89.9319 200.321 87.1795 200.321C84.4271 200.321 81.7133 200.966 79.2577 202.206C74.9007 204.718 74.9007 208.827 79.2577 211.34C81.7162 212.569 84.4288 213.21 87.1795 213.21C89.9302 213.21 92.6428 212.569 95.1013 211.34C99.3862 208.774 99.3862 204.718 95.1013 202.206Z" fill="#465CAF"/>
<path opacity="0.88" d="M94.615 202.457C92.2886 201.28 89.7164 200.666 87.1073 200.666C84.4982 200.666 81.9259 201.28 79.5996 202.457C75.4587 204.826 75.4587 208.72 79.5996 211.089C81.9259 212.266 84.4982 212.88 87.1073 212.88C89.7164 212.88 92.2886 212.266 94.615 211.089C98.7019 208.774 98.7019 204.826 94.615 202.457Z" fill="#4158AD"/>
<path opacity="0.9" d="M94.2011 202.69C92.0011 201.584 89.5715 201.008 87.1075 201.008C84.6435 201.008 82.2139 201.584 80.0139 202.69C76.107 204.933 76.107 208.612 80.0139 210.855C82.2139 211.961 84.6435 212.537 87.1075 212.537C89.5715 212.537 92.0011 211.961 94.2011 210.855C98.108 208.612 98.108 204.933 94.2011 202.69Z" fill="#3D55AB"/>
<path opacity="0.92" d="M93.7869 202.924C91.7161 201.88 89.428 201.336 87.1074 201.336C84.7868 201.336 82.4987 201.88 80.4279 202.924C76.8271 205.041 76.8271 208.504 80.4279 210.622C82.5012 211.658 84.7883 212.197 87.1074 212.197C89.4265 212.197 91.7136 211.658 93.7869 210.622C97.4597 208.504 97.4597 205.041 93.7869 202.924Z" fill="#3951A9"/>
<path opacity="0.94" d="M93.3008 203.175C91.35 202.181 89.1903 201.663 86.9994 201.663C84.8085 201.663 82.6488 202.181 80.698 203.175C77.2592 205.149 77.2592 208.397 80.698 210.353C82.6488 211.347 84.8085 211.865 86.9994 211.865C89.1903 211.865 91.35 211.347 93.3008 210.353C96.9016 208.397 96.9016 205.185 93.3008 203.175Z" fill="#354DA7"/>
<path opacity="0.96" d="M92.9589 203.39C91.1441 202.478 89.14 202.003 87.1076 202.003C85.0752 202.003 83.0712 202.478 81.2563 203.39C78.0516 205.185 78.0516 208.271 81.2563 210.119C83.0712 211.031 85.0752 211.506 87.1076 211.506C89.14 211.506 91.1441 211.031 92.9589 210.119C96.1817 208.289 96.1817 205.185 92.9589 203.39Z" fill="#3049A6"/>
<path opacity="0.98" d="M92.5449 203.641C90.8686 202.803 89.0191 202.367 87.1437 202.367C85.2683 202.367 83.4188 202.803 81.7425 203.641C78.7538 205.436 78.7538 208.182 81.7425 209.904C83.4216 210.733 85.27 211.164 87.1437 211.164C89.0174 211.164 90.8658 210.733 92.5449 209.904C95.5336 208.182 95.5336 205.364 92.5449 203.641Z" fill="#2C46A4"/>
<path d="M92.1305 203.892C90.5742 203.104 88.8531 202.694 87.1074 202.694C85.3617 202.694 83.6407 203.104 82.0843 203.892C79.3297 205.472 79.3297 208.074 82.0843 209.653C83.6407 210.441 85.3617 210.851 87.1074 210.851C88.8531 210.851 90.5742 210.441 92.1305 209.653C94.8852 208.074 94.8852 205.472 92.1305 203.892Z" fill="#2842A2"/>
<path d="M112.854 199.801H110.459C109.215 198.366 107.736 197.153 106.084 196.212C97.082 191.008 82.2827 191.008 73.2627 196.212C71.6042 197.143 70.1232 198.358 68.8877 199.801H66.5472V204.808C66.1151 208.522 68.3476 212.327 73.2447 215.162C82.2467 220.348 97.028 220.348 106.066 215.162C110.981 212.327 113.268 208.522 112.764 204.808L112.854 199.801Z" fill="#FFC107"/>
<path d="M77.9433 194.238C77.1691 194.49 76.3949 194.795 75.6567 195.118V216.382C76.3949 216.705 77.1691 216.992 77.9433 217.262V194.238Z" fill="#FFB333"/>
<path d="M71.084 197.756V213.727C71.7784 214.262 72.506 214.754 73.2625 215.198H73.3705V196.212H73.2625C72.501 196.675 71.7731 197.191 71.084 197.756Z" fill="#FFB333"/>
<path d="M82.4982 193.054C81.724 193.197 80.9498 193.359 80.2117 193.556V217.925C80.9498 218.123 81.724 218.284 82.4982 218.428V193.054Z" fill="#FFB333"/>
<path d="M107.704 197.361V214.157C108.534 213.568 109.306 212.901 110.009 212.165V199.37C109.307 198.628 108.536 197.955 107.704 197.361Z" fill="#FFB333"/>
<path d="M112.295 208.558C112.748 207.376 112.915 206.103 112.781 204.844V199.801H112.223L112.295 208.558Z" fill="#FFB333"/>
<path d="M100.845 194.059C100.088 193.808 99.3323 193.592 98.5581 193.413V218.069C99.3323 217.89 100.088 217.674 100.845 217.441V194.059Z" fill="#FFB333"/>
<path d="M68.7973 211.555V199.801H66.5468V204.808C66.4276 206.027 66.5664 207.257 66.954 208.419C67.3417 209.582 67.9696 210.65 68.7973 211.555Z" fill="#FFB333"/>
<path d="M105.417 195.961C104.676 195.559 103.913 195.2 103.131 194.884V216.598C103.923 216.275 104.697 215.916 105.417 215.539V195.961Z" fill="#FFB333"/>
<path d="M87.1076 192.498C86.3334 192.498 85.5772 192.605 84.821 192.695V218.787C85.5772 218.787 86.3334 218.948 87.1076 219.002V192.498Z" fill="#FFB333"/>
<path d="M91.6803 219.038V192.462C90.9241 192.462 90.168 192.462 89.3938 192.462V219.128C90.168 219.092 90.9241 219.074 91.6803 219.038Z" fill="#FFB333"/>
<path d="M96.2716 192.946C95.5154 192.821 94.7412 192.713 93.967 192.641V218.859C94.7412 218.769 95.5154 218.661 96.2716 218.536V192.946Z" fill="#FFB333"/>
<path d="M89.664 212.47C102.481 212.47 112.871 206.493 112.871 199.119C112.871 191.746 102.481 185.768 89.664 185.768C76.847 185.768 66.4568 191.746 66.4568 199.119C66.4568 206.493 76.847 212.47 89.664 212.47Z" fill="#FFCD39"/>
<path d="M104.445 190.201C96.3253 185.517 83.0203 185.517 74.8825 190.201C66.7447 194.884 66.7627 202.529 74.8825 207.195C83.0023 211.86 96.3253 211.878 104.445 207.195C112.565 202.511 112.565 194.867 104.445 190.201Z" fill="#FFB333"/>
<path d="M89.664 208.863C99.7864 208.863 107.992 204.227 107.992 198.509C107.992 192.791 99.7864 188.155 89.664 188.155C79.5417 188.155 71.3359 192.791 71.3359 198.509C71.3359 204.227 79.5417 208.863 89.664 208.863Z" fill="#FFCD39"/>
<path d="M91.3929 203.659H84.9475C83.4712 203.659 82.2649 202.959 82.2649 202.097V201.29H86.0998V201.434H91.501C92.5272 201.434 93.3014 200.949 93.3014 200.357C93.3014 199.765 92.7612 199.657 92.0951 199.657H87.288C84.5154 199.657 82.2649 198.347 82.2649 196.75V196.337C82.2649 194.543 84.8035 193.053 87.9362 193.053H94.3816C95.8759 193.053 97.0822 193.753 97.0822 194.614V195.512H93.3014V195.278H87.9002C86.8739 195.278 86.0998 195.745 86.0998 196.337V196.75C86.0998 197.127 86.6399 197.45 87.306 197.45H92.0411C94.8137 197.45 97.0822 198.76 97.0822 200.357C97.0822 201.954 94.5256 203.659 91.3929 203.659Z" fill="#BF9105"/>
<path d="M91.5912 191.977H87.7563V205.041H91.5912V191.977Z" fill="#BF9105"/>
<path d="M112.854 191.6H110.459C109.215 190.165 107.736 188.952 106.084 188.011C97.082 182.825 82.2827 182.825 73.2627 188.011C71.6042 188.942 70.1232 190.157 68.8877 191.6H66.5472V196.607C66.1151 200.321 68.3476 204.126 73.2447 206.961C82.2467 212.147 97.028 212.147 106.066 206.961C110.981 204.126 113.268 200.321 112.764 196.607L112.854 191.6Z" fill="#FFC107"/>
<path d="M77.9433 186.002C77.1691 186.271 76.3949 186.558 75.6567 186.881V208.146C76.3949 208.469 77.1691 208.756 77.9433 209.025V186.002Z" fill="#FFB333"/>
<path d="M71.0837 189.537V205.49C71.7781 206.026 72.5057 206.517 73.2622 206.962H73.3703V188.012H73.2622C72.4972 188.463 71.7689 188.973 71.0837 189.537Z" fill="#FFB333"/>
<path d="M82.4984 184.817C81.7243 184.961 80.9501 185.14 80.2119 185.32V209.707C80.9501 209.886 81.7243 210.066 82.4984 210.209V184.817Z" fill="#FFB333"/>
<path d="M107.704 189.124V205.903C108.538 205.319 109.31 204.651 110.008 203.911V191.116C109.302 190.385 108.53 189.718 107.704 189.124Z" fill="#FFB333"/>
<path d="M112.295 200.34C112.748 199.151 112.915 197.872 112.781 196.607V191.601H112.223L112.295 200.34Z" fill="#FFB333"/>
<path d="M100.844 185.823C100.088 185.589 99.332 185.374 98.5579 185.177V209.851C99.332 209.653 100.088 209.438 100.844 209.205V185.823Z" fill="#FFB333"/>
<path d="M68.7971 203.39V191.654H66.5466V196.661C66.4334 197.877 66.575 199.103 66.9624 200.261C67.3498 201.42 67.9746 202.485 68.7971 203.39Z" fill="#FFB333"/>
<path d="M105.418 187.725C104.677 187.323 103.913 186.963 103.131 186.648V208.379C103.913 208.064 104.677 207.704 105.418 207.303V187.725Z" fill="#FFB333"/>
<path d="M87.1073 184.261C86.3331 184.261 85.577 184.387 84.8208 184.477V210.568C85.577 210.568 86.3331 210.73 87.1073 210.784V184.261Z" fill="#FFB333"/>
<path d="M91.6801 210.802V184.225C90.9239 184.225 90.1677 184.225 89.3936 184.225V210.909C90.1677 210.856 90.9239 210.838 91.6801 210.802Z" fill="#FFB333"/>
<path d="M96.2713 184.71C95.5151 184.584 94.741 184.494 93.9668 184.405V210.568C94.741 210.479 95.5151 210.389 96.2713 210.263V184.71Z" fill="#FFB333"/>
<path d="M89.664 204.233C102.481 204.233 112.871 198.256 112.871 190.882C112.871 183.509 102.481 177.531 89.664 177.531C76.847 177.531 66.4568 183.509 66.4568 190.882C66.4568 198.256 76.847 204.233 89.664 204.233Z" fill="#FFCD39"/>
<path d="M104.445 181.964C96.3253 177.28 83.0203 177.28 74.8825 181.964C66.7447 186.647 66.7627 194.292 74.8825 198.976C83.0023 203.659 96.3253 203.641 104.445 198.976C112.565 194.31 112.565 186.647 104.445 181.964Z" fill="#FFB333"/>
<path d="M89.664 200.627C99.7864 200.627 107.992 195.991 107.992 190.272C107.992 184.554 99.7864 179.918 89.664 179.918C79.5417 179.918 71.3359 184.554 71.3359 190.272C71.3359 195.991 79.5417 200.627 89.664 200.627Z" fill="#FFCD39"/>
<path d="M91.3929 195.422H84.9475C83.4712 195.422 82.2649 194.722 82.2649 193.861V193.072H86.0998V193.197H91.501C92.5272 193.197 93.3014 192.731 93.3014 192.138C93.3014 191.546 92.7612 191.439 92.0951 191.439H87.288C84.5154 191.439 82.2649 190.129 82.2649 188.514V188.119C82.2649 186.324 84.8035 184.817 87.9362 184.817H94.3816C95.8759 184.817 97.0822 185.517 97.0822 186.378V187.239H93.3014V186.988H87.9002C86.8739 186.988 86.0998 187.473 86.0998 188.065V188.46C86.0998 188.837 86.6399 189.16 87.306 189.16H92.0411C94.8137 189.16 97.0822 190.47 97.0822 192.085C97.0822 193.7 94.5256 195.422 91.3929 195.422Z" fill="#BF9105"/>
<path d="M91.5912 183.74H87.7563V196.804H91.5912V183.74Z" fill="#BF9105"/>
<path d="M112.854 183.364H110.459C109.215 181.929 107.736 180.715 106.084 179.775C97.082 174.589 82.2827 174.589 73.2627 179.775C71.6042 180.705 70.1232 181.92 68.8877 183.364H66.5472V188.37C66.1151 192.103 68.3476 195.907 73.2447 198.724C82.2467 203.928 97.028 203.928 106.066 198.724C110.981 195.907 113.268 192.103 112.764 188.37L112.854 183.364Z" fill="#FFC107"/>
<path d="M77.9433 177.765C77.1691 178.034 76.3949 178.321 75.6567 178.644V199.909C76.3949 200.232 77.1691 200.519 77.9433 200.788V177.765Z" fill="#FFB333"/>
<path d="M71.0837 181.3V197.253C71.7737 197.795 72.5018 198.286 73.2622 198.724H73.3703V179.703H73.2622C72.4992 180.183 71.7712 180.717 71.0837 181.3Z" fill="#FFB333"/>
<path d="M82.4984 176.598C81.7243 176.742 80.9501 176.903 80.2119 177.101V201.47C80.9501 201.649 81.7243 201.829 82.4984 201.972V176.598Z" fill="#FFB333"/>
<path d="M107.704 180.905V197.684C108.535 197.088 109.306 196.415 110.008 195.674V182.879C109.301 182.154 108.53 181.493 107.704 180.905Z" fill="#FFB333"/>
<path d="M112.295 192.103C112.749 190.914 112.916 189.635 112.781 188.37V183.364H112.223L112.295 192.103Z" fill="#FFB333"/>
<path d="M100.844 177.585C100.088 177.352 99.332 177.136 98.5579 176.957V201.595C99.332 201.416 100.088 201.183 100.844 200.949V177.585Z" fill="#FFB333"/>
<path d="M68.7971 195.099V183.364H66.5466V188.37C66.4334 189.586 66.575 190.812 66.9624 191.971C67.3498 193.129 67.9746 194.194 68.7971 195.099Z" fill="#FFB333"/>
<path d="M105.418 179.487C104.697 179.111 103.923 178.752 103.131 178.411V200.142C103.913 199.827 104.677 199.467 105.418 199.065V179.487Z" fill="#FFB333"/>
<path d="M87.1073 176.024C86.3331 176.024 85.577 176.15 84.8208 176.239V202.313C85.577 202.421 86.3331 202.493 87.1073 202.529V176.024Z" fill="#FFB333"/>
<path d="M91.6801 202.565V175.988C90.9239 175.988 90.1677 175.988 89.3936 175.988V202.654C90.1677 202.618 90.9239 202.6 91.6801 202.565Z" fill="#FFB333"/>
<path d="M96.2713 176.473C95.5151 176.347 94.741 176.24 93.9668 176.15V202.367C94.741 202.367 95.5151 202.188 96.2713 202.062V176.473Z" fill="#FFB333"/>
<path d="M89.664 196.015C102.481 196.015 112.871 190.037 112.871 182.664C112.871 175.29 102.481 169.313 89.664 169.313C76.847 169.313 66.4568 175.29 66.4568 182.664C66.4568 190.037 76.847 196.015 89.664 196.015Z" fill="#FFCD39"/>
<path d="M104.445 173.727C96.3253 169.062 83.0203 169.062 74.8825 173.727C66.7447 178.393 66.7627 186.055 74.8825 190.739C83.0023 195.423 96.3253 195.423 104.445 190.739C112.565 186.055 112.565 178.411 104.445 173.727Z" fill="#FFB333"/>
<path d="M89.664 192.408C99.7864 192.408 107.992 187.772 107.992 182.054C107.992 176.335 99.7864 171.7 89.664 171.7C79.5417 171.7 71.3359 176.335 71.3359 182.054C71.3359 187.772 79.5417 192.408 89.664 192.408Z" fill="#FFCD39"/>
<path d="M91.3929 187.24H84.9475C83.4712 187.24 82.2649 186.54 82.2649 185.679V184.889H86.0998V185.033H91.501C92.5272 185.033 93.3014 184.548 93.3014 183.956C93.3014 183.364 92.7612 183.256 92.0951 183.256H87.288C84.5154 183.256 82.2649 181.946 82.2649 180.331V179.936C82.2649 178.142 84.8035 176.634 87.9362 176.634H94.3816C95.8759 176.634 97.0822 177.334 97.0822 178.196V179.111H93.3014V178.86H87.9002C86.8739 178.86 86.0998 179.344 86.0998 179.936V180.331C86.0998 180.726 86.6399 181.031 87.306 181.031H92.0411C94.8137 181.031 97.0822 182.341 97.0822 183.956C97.0822 185.571 94.5256 187.24 91.3929 187.24Z" fill="#BF9105"/>
<path d="M91.5912 175.504H87.7563V188.568H91.5912V175.504Z" fill="#BF9105"/>
<g style="mix-blend-mode:multiply">
<path opacity="0.02" d="M91.7043 240.671V239.029L179.749 187.484C180.505 186.927 181.394 186.58 182.328 186.478C183.262 186.376 184.206 186.522 185.064 186.901L231.279 213.376C231.723 213.63 232.083 214.007 232.316 214.461L232.555 214.991C233.03 215.96 233.119 217.072 232.803 218.104C232.488 219.136 231.791 220.01 230.854 220.55L144.377 270.216C143.446 270.686 142.418 270.931 141.374 270.931C140.331 270.931 139.302 270.686 138.371 270.216L94.1493 244.854C93.4112 244.429 92.7973 243.82 92.3684 243.086C91.9395 242.352 91.7106 241.52 91.7043 240.671Z" fill="url(#paint5_linear_4219_358)" style="mix-blend-mode:multiply"/>
<path opacity="0.05" d="M91.8906 240.538V238.791L179.59 187.457C180.345 186.901 181.235 186.554 182.169 186.451C183.102 186.349 184.047 186.495 184.905 186.875L230.987 213.217C231.432 213.461 231.786 213.842 231.997 214.302L232.263 214.832C232.737 215.797 232.825 216.905 232.509 217.933C232.193 218.96 231.497 219.829 230.562 220.365L144.431 269.872C143.5 270.342 142.471 270.587 141.428 270.587C140.384 270.587 139.355 270.342 138.425 269.872L94.309 244.695C93.5743 244.275 92.9638 243.67 92.5392 242.94C92.1145 242.21 91.8908 241.382 91.8906 240.538Z" fill="url(#paint6_linear_4219_358)" style="mix-blend-mode:multiply"/>
<path opacity="0.07" d="M92.1042 240.406V238.791L179.565 187.616C180.312 187.044 181.203 186.687 182.14 186.585C183.078 186.482 184.025 186.637 184.88 187.033L230.802 213.296C231.236 213.555 231.586 213.931 231.812 214.382L232.051 214.885C232.526 215.843 232.617 216.945 232.306 217.967C231.995 218.99 231.306 219.856 230.377 220.391L144.432 269.766C143.502 270.224 142.479 270.462 141.442 270.462C140.405 270.462 139.382 270.224 138.452 269.766L94.5226 244.562C93.7879 244.143 93.1774 243.538 92.7528 242.808C92.3281 242.078 92.1044 241.249 92.1042 240.406Z" fill="url(#paint7_linear_4219_358)" style="mix-blend-mode:multiply"/>
<path opacity="0.1" d="M92.316 240.274V238.791L179.457 187.669C180.213 187.113 181.102 186.766 182.036 186.663C182.97 186.561 183.914 186.707 184.773 187.086L230.509 213.27C230.952 213.504 231.307 213.876 231.519 214.329L231.785 214.858C232.256 215.815 232.342 216.916 232.026 217.934C231.71 218.953 231.015 219.813 230.084 220.338L144.431 269.528C143.51 269.985 142.496 270.223 141.468 270.223C140.439 270.223 139.425 269.985 138.504 269.528L94.7078 244.43C93.9762 244.009 93.3696 243.403 92.9494 242.673C92.5293 241.943 92.3108 241.115 92.316 240.274Z" fill="url(#paint8_linear_4219_358)" style="mix-blend-mode:multiply"/>
<path opacity="0.12" d="M92.5283 240.168V238.526L179.351 187.722C180.092 187.189 180.958 186.856 181.865 186.754C182.773 186.652 183.692 186.785 184.533 187.139L230.137 213.217C230.564 213.483 230.913 213.857 231.147 214.302L231.386 214.805C231.849 215.76 231.931 216.854 231.615 217.866C231.299 218.878 230.61 219.734 229.685 220.259L144.457 269.29C143.54 269.759 142.525 270.003 141.494 270.003C140.463 270.003 139.447 269.759 138.531 269.29L94.9201 244.271C94.1927 243.859 93.5881 243.262 93.1679 242.541C92.7477 241.82 92.527 241.001 92.5283 240.168Z" fill="url(#paint9_linear_4219_358)" style="mix-blend-mode:multiply"/>
<path opacity="0.15" d="M92.7144 240.035V238.42L179.191 187.775C179.924 187.234 180.787 186.898 181.694 186.8C182.6 186.702 183.516 186.847 184.347 187.219L229.765 213.19C230.208 213.425 230.562 213.796 230.775 214.249L231.04 214.779C231.518 215.727 231.616 216.82 231.315 217.838C231.014 218.855 230.337 219.721 229.419 220.259L144.377 269.104C143.462 269.561 142.452 269.799 141.427 269.799C140.403 269.799 139.393 269.561 138.478 269.104L95.1062 244.086C94.3866 243.678 93.787 243.09 93.3672 242.379C92.9475 241.668 92.7224 240.86 92.7144 240.035Z" fill="url(#paint10_linear_4219_358)" style="mix-blend-mode:multiply"/>
<path opacity="0.17" d="M92.9273 239.903V238.288L179.192 187.828C179.921 187.292 180.78 186.958 181.681 186.861C182.582 186.763 183.493 186.905 184.321 187.272L229.499 213.164C229.929 213.416 230.279 213.783 230.509 214.223L230.748 214.752C231.243 215.699 231.353 216.798 231.056 217.823C230.759 218.848 230.078 219.72 229.154 220.259L144.643 268.84C143.732 269.296 142.727 269.534 141.707 269.534C140.687 269.534 139.681 269.296 138.77 268.84L95.2925 244.086C94.5601 243.662 93.9547 243.05 93.5388 242.315C93.123 241.58 92.9119 240.747 92.9273 239.903Z" fill="url(#paint11_linear_4219_358)" style="mix-blend-mode:multiply"/>
<path opacity="0.2" d="M93.14 239.77V238.182L179.059 187.881C179.788 187.345 180.647 187.011 181.548 186.913C182.449 186.816 183.36 186.958 184.188 187.325L229.367 213.137C229.796 213.38 230.14 213.75 230.35 214.196L230.616 214.699C231.029 215.634 231.087 216.686 230.779 217.661C230.471 218.635 229.818 219.464 228.941 219.994L144.644 268.601C143.732 269.057 142.727 269.295 141.707 269.295C140.687 269.295 139.681 269.057 138.77 268.601L95.5052 243.848C94.783 243.438 94.1832 242.845 93.7675 242.129C93.3518 241.412 93.1352 240.598 93.14 239.77Z" fill="url(#paint12_linear_4219_358)" style="mix-blend-mode:multiply"/>
<path opacity="0.22" d="M93.3259 239.665V238.05L178.953 187.934C179.69 187.415 180.547 187.091 181.445 186.994C182.342 186.897 183.25 187.029 184.082 187.378L229.021 213.084C229.441 213.348 229.788 213.712 230.031 214.143L230.27 214.673C230.708 215.604 230.778 216.665 230.468 217.645C230.158 218.626 229.49 219.454 228.596 219.968L144.643 268.389C143.737 268.845 142.736 269.083 141.72 269.083C140.705 269.083 139.703 268.845 138.797 268.389L95.6912 243.715C94.9747 243.306 94.379 242.717 93.9638 242.006C93.5486 241.295 93.3286 240.487 93.3259 239.665Z" fill="url(#paint13_linear_4219_358)" style="mix-blend-mode:multiply"/>
<path opacity="0.24" d="M93.5383 239.532V237.944L178.873 188.013C179.593 187.48 180.441 187.146 181.332 187.043C182.223 186.941 183.126 187.075 183.949 187.431L228.755 213.058C229.185 213.301 229.528 213.671 229.738 214.117L229.978 214.62C230.417 215.548 230.492 216.606 230.187 217.586C229.882 218.566 229.219 219.397 228.33 219.915L144.643 268.151C143.737 268.607 142.735 268.845 141.72 268.845C140.704 268.845 139.703 268.607 138.797 268.151L95.877 243.583C95.1673 243.169 94.5783 242.577 94.1682 241.867C93.7581 241.156 93.541 240.352 93.5383 239.532Z" fill="url(#paint14_linear_4219_358)" style="mix-blend-mode:multiply"/>
<path opacity="0.27" d="M93.751 239.4V237.811L178.793 188.066C179.513 187.532 180.363 187.199 181.255 187.102C182.147 187.004 183.05 187.145 183.869 187.51L228.489 213.031C228.919 213.275 229.263 213.645 229.473 214.09L229.738 214.593C230.172 215.522 230.243 216.579 229.939 217.557C229.634 218.535 228.976 219.366 228.091 219.888L144.643 267.913C143.747 268.37 142.754 268.609 141.747 268.609C140.739 268.609 139.746 268.37 138.85 267.913L96.0897 243.424C95.3766 243.02 94.7842 242.435 94.3733 241.727C93.9623 241.02 93.7475 240.217 93.751 239.4Z" fill="url(#paint15_linear_4219_358)" style="mix-blend-mode:multiply"/>
<path opacity="0.29" d="M93.937 239.268V237.679L178.66 188.119C179.375 187.585 180.22 187.252 181.109 187.154C181.997 187.056 182.895 187.198 183.709 187.563L228.197 213.005C228.62 213.245 228.962 213.605 229.18 214.038L229.419 214.541C229.865 215.468 229.943 216.528 229.638 217.51C229.332 218.492 228.666 219.322 227.772 219.836L144.643 267.701C143.747 268.145 142.76 268.375 141.76 268.375C140.759 268.375 139.772 268.145 138.876 267.701L96.3554 243.292C95.6311 242.894 95.0257 242.312 94.6009 241.605C94.1761 240.898 93.947 240.092 93.937 239.268Z" fill="url(#paint16_linear_4219_358)" style="mix-blend-mode:multiply"/>
<path opacity="0.32" d="M94.1495 239.135V237.573L178.58 188.172C179.296 187.65 180.136 187.324 181.017 187.227C181.898 187.129 182.79 187.263 183.603 187.616L227.931 212.952C228.348 213.203 228.681 213.571 228.888 214.011L229.154 214.514C229.593 215.442 229.668 216.5 229.363 217.48C229.058 218.46 228.395 219.291 227.506 219.809L144.643 267.462C143.751 267.92 142.763 268.159 141.76 268.159C140.757 268.159 139.768 267.92 138.876 267.462L96.4881 243.159C95.7751 242.755 95.1827 242.17 94.7717 241.462C94.3607 240.755 94.146 239.952 94.1495 239.135Z" fill="url(#paint17_linear_4219_358)" style="mix-blend-mode:multiply"/>
<path opacity="0.34" d="M94.3625 239.029V237.441L178.474 188.225C179.19 187.703 180.03 187.377 180.911 187.28C181.793 187.182 182.684 187.316 183.497 187.669L227.639 212.925C228.062 213.166 228.404 213.525 228.623 213.958L228.862 214.461C229.304 215.386 229.382 216.442 229.082 217.422C228.782 218.401 228.125 219.234 227.241 219.756L144.644 267.251C143.753 267.696 142.77 267.927 141.773 267.927C140.777 267.927 139.794 267.696 138.903 267.251L96.8075 243C96.0806 242.617 95.4704 242.046 95.0403 241.348C94.6103 240.649 94.3762 239.848 94.3625 239.029Z" fill="url(#paint18_linear_4219_358)" style="mix-blend-mode:multiply"/>
<path opacity="0.37" d="M94.5483 238.791V237.229L178.368 188.172C179.078 187.65 179.914 187.324 180.791 187.226C181.668 187.129 182.556 187.263 183.364 187.616L227.373 212.793C227.789 213.033 228.122 213.393 228.33 213.825L228.596 214.328C229.048 215.254 229.13 216.317 228.823 217.301C228.517 218.284 227.847 219.115 226.948 219.623L144.643 267.013C143.757 267.457 142.779 267.689 141.786 267.689C140.794 267.689 139.816 267.457 138.93 267.013L96.8072 242.868C96.1029 242.447 95.5229 241.849 95.1262 241.133C94.7294 240.417 94.53 239.609 94.5483 238.791Z" fill="url(#paint19_linear_4219_358)" style="mix-blend-mode:multiply"/>
<path opacity="0.39" d="M94.761 238.791V237.229L178.262 188.357C178.974 187.84 179.811 187.518 180.688 187.425C181.565 187.332 182.452 187.471 183.258 187.828L227.028 212.873C227.457 213.105 227.801 213.466 228.011 213.905L228.25 214.408C228.711 215.33 228.8 216.392 228.499 217.377C228.197 218.362 227.528 219.195 226.629 219.703L144.643 266.774C143.757 267.219 142.779 267.451 141.787 267.451C140.794 267.451 139.816 267.219 138.93 266.774L97.0731 242.736C96.3749 242.337 95.7939 241.763 95.3881 241.071C94.9824 240.379 94.7662 239.593 94.761 238.791Z" fill="url(#paint20_linear_4219_358)" style="mix-blend-mode:multiply"/>
<path opacity="0.41" d="M94.9737 238.632V237.096L178.182 188.489C178.882 187.967 179.709 187.64 180.578 187.543C181.447 187.445 182.326 187.58 183.125 187.933L226.815 212.899C227.231 213.139 227.565 213.499 227.772 213.931L228.011 214.434C228.475 215.353 228.568 216.413 228.271 217.398C227.975 218.382 227.311 219.216 226.417 219.729L144.643 266.562C143.762 267.007 142.788 267.238 141.8 267.238C140.812 267.238 139.838 267.007 138.956 266.562L97.2592 242.577C96.5623 242.179 95.9837 241.604 95.5822 240.911C95.1807 240.219 94.9707 239.432 94.9737 238.632Z" fill="url(#paint21_linear_4219_358)" style="mix-blend-mode:multiply"/>
<path opacity="0.44" d="M95.1861 238.5V236.964L178.075 188.489C178.775 187.967 179.602 187.64 180.471 187.543C181.34 187.445 182.219 187.58 183.018 187.933L226.549 212.819C226.956 213.071 227.286 213.428 227.506 213.852L227.745 214.355C228.213 215.275 228.306 216.34 228.003 217.327C227.701 218.314 227.028 219.146 226.124 219.65L144.776 266.324C143.899 266.768 142.93 267 141.946 267C140.962 267 139.992 266.768 139.116 266.324L97.4716 242.497C96.7649 242.097 96.1796 241.515 95.7774 240.811C95.3751 240.108 95.1709 239.309 95.1861 238.5Z" fill="url(#paint22_linear_4219_358)" style="mix-blend-mode:multiply"/>
<path opacity="0.46" d="M95.3721 238.394V236.832L177.969 188.49C178.672 187.975 179.499 187.653 180.366 187.555C181.233 187.458 182.111 187.588 182.912 187.934L226.257 212.74C226.678 212.974 227.014 213.336 227.214 213.773L227.453 214.249C227.923 215.167 228.019 216.229 227.722 217.216C227.425 218.202 226.758 219.036 225.858 219.544L144.776 266.139C143.904 266.583 142.939 266.814 141.959 266.814C140.98 266.814 140.014 266.583 139.142 266.139L97.6576 242.312C96.9664 241.915 96.3918 241.344 95.9908 240.656C95.5898 239.969 95.3765 239.189 95.3721 238.394Z" fill="url(#paint23_linear_4219_358)" style="mix-blend-mode:multiply"/>
<path opacity="0.49" d="M95.5847 238.262V236.726L177.863 188.49C178.561 187.975 179.383 187.652 180.246 187.555C181.109 187.457 181.983 187.588 182.779 187.934L225.991 212.661C226.399 212.899 226.731 213.248 226.948 213.667L227.187 214.17C227.657 215.087 227.754 216.15 227.457 217.136C227.16 218.123 226.492 218.957 225.593 219.465L144.803 265.901C143.932 266.332 142.972 266.557 141.999 266.557C141.026 266.557 140.066 266.332 139.195 265.901L97.8436 242.074C97.1693 241.686 96.6069 241.132 96.2111 240.464C95.8153 239.796 95.5996 239.037 95.5847 238.262Z" fill="url(#paint24_linear_4219_358)" style="mix-blend-mode:multiply"/>
<path opacity="0.51" d="M95.7972 238.129V236.593L177.783 188.622C178.478 188.111 179.297 187.793 180.156 187.7C181.015 187.607 181.884 187.742 182.673 188.092L225.699 212.713C226.118 212.937 226.454 213.29 226.656 213.72L226.895 214.196C227.331 215.098 227.41 216.132 227.114 217.089C226.818 218.046 226.171 218.857 225.3 219.359L144.829 265.636C143.966 266.079 143.01 266.311 142.039 266.311C141.068 266.311 140.111 266.079 139.248 265.636L98.0561 242.021C97.3665 241.63 96.7938 241.064 96.3968 240.38C95.9997 239.696 95.7928 238.919 95.7972 238.129Z" fill="url(#paint25_linear_4219_358)" style="mix-blend-mode:multiply"/>
<path opacity="0.54" d="M95.9832 237.997V236.488L177.677 188.675C178.37 188.171 179.184 187.858 180.037 187.765C180.891 187.672 181.753 187.803 182.54 188.145L225.433 212.661C225.841 212.899 226.173 213.248 226.39 213.667L226.629 214.17C227.064 215.068 227.142 216.097 226.846 217.05C226.55 218.003 225.903 218.809 225.034 219.306L144.856 265.398C143.993 265.841 143.036 266.073 142.065 266.073C141.094 266.073 140.138 265.841 139.275 265.398L98.2421 241.888C97.5562 241.494 96.9864 240.927 96.5899 240.244C96.1934 239.561 95.9842 238.786 95.9832 237.997Z" fill="url(#paint26_linear_4219_358)" style="mix-blend-mode:multiply"/>
<path opacity="0.56" d="M96.1961 237.864V236.355L177.571 188.701C178.263 188.195 179.077 187.88 179.931 187.787C180.785 187.694 181.648 187.827 182.434 188.172L225.168 212.607C225.568 212.847 225.89 213.197 226.098 213.614L226.337 214.09C226.774 214.985 226.856 216.012 226.565 216.965C226.274 217.917 225.633 218.725 224.769 219.226L144.883 265.265C144.021 265.696 143.07 265.92 142.105 265.92C141.141 265.92 140.19 265.696 139.328 265.265L98.4284 241.729C97.7477 241.338 97.1828 240.774 96.7908 240.096C96.3989 239.417 96.1937 238.647 96.1961 237.864Z" fill="url(#paint27_linear_4219_358)" style="mix-blend-mode:multiply"/>
<path opacity="0.59" d="M96.4087 237.758V236.143L177.491 188.701C178.178 188.195 178.988 187.879 179.838 187.786C180.687 187.693 181.546 187.826 182.328 188.172L224.849 212.528C225.263 212.759 225.596 213.11 225.805 213.534L226.018 214.011C226.479 214.919 226.564 215.97 226.256 216.94C225.948 217.91 225.271 218.721 224.37 219.2L144.909 264.948C144.052 265.378 143.105 265.602 142.145 265.602C141.185 265.602 140.239 265.378 139.381 264.948L98.641 241.597C97.9624 241.21 97.3986 240.651 97.0066 239.977C96.6145 239.303 96.4083 238.537 96.4087 237.758Z" fill="url(#paint28_linear_4219_358)" style="mix-blend-mode:multiply"/>
<path opacity="0.61" d="M96.5947 237.626V236.144L177.385 188.887C178.068 188.384 178.871 188.068 179.715 187.97C180.559 187.872 181.414 187.997 182.195 188.331L224.716 212.608C225.12 212.831 225.445 213.173 225.646 213.587L225.885 214.09C226.32 214.978 226.4 215.997 226.108 216.94C225.817 217.884 225.177 218.682 224.317 219.174L144.936 264.736C144.079 265.167 143.132 265.391 142.172 265.391C141.212 265.391 140.265 265.167 139.408 264.736L98.8271 241.439C98.1524 241.054 97.591 240.499 97.1992 239.83C96.8074 239.161 96.599 238.401 96.5947 237.626Z" fill="url(#paint29_linear_4219_358)" style="mix-blend-mode:multiply"/>
<path opacity="0.63" d="M96.8072 237.494V235.985L177.278 188.913C177.961 188.409 178.767 188.095 179.611 188.002C180.456 187.909 181.311 188.041 182.088 188.384L224.37 212.528C224.783 212.752 225.11 213.106 225.3 213.535L225.539 214.011C225.97 214.896 226.05 215.911 225.765 216.852C225.479 217.794 224.849 218.594 223.998 219.094L144.962 264.498C144.11 264.928 143.167 265.152 142.212 265.152C141.256 265.152 140.314 264.928 139.461 264.498L99.0395 241.439C98.3391 241.049 97.7601 240.475 97.3662 239.779C96.9723 239.083 96.7789 238.292 96.8072 237.494Z" fill="url(#paint30_linear_4219_358)" style="mix-blend-mode:multiply"/>
<path opacity="0.66" d="M97.0198 237.362V235.879L177.172 188.966C177.843 188.49 178.627 188.196 179.447 188.112C180.267 188.029 181.095 188.159 181.849 188.49L223.945 212.555C224.345 212.795 224.668 213.144 224.875 213.561L225.114 214.038C225.54 214.918 225.614 215.927 225.323 216.86C225.033 217.793 224.398 218.582 223.546 219.068L144.962 264.26C144.114 264.69 143.176 264.914 142.225 264.914C141.273 264.914 140.335 264.69 139.488 264.26L99.2256 241.174C98.5558 240.786 97.9997 240.229 97.6128 239.56C97.2258 238.892 97.0213 238.134 97.0198 237.362Z" fill="url(#paint31_linear_4219_358)" style="mix-blend-mode:multiply"/>
<path opacity="0.68" d="M97.2324 237.229V235.747L177.092 189.019C177.767 188.52 178.563 188.208 179.399 188.115C180.235 188.022 181.08 188.151 181.849 188.49L223.785 212.476C224.178 212.705 224.492 213.046 224.689 213.455L224.928 213.932C225.362 214.808 225.444 215.816 225.158 216.751C224.872 217.686 224.238 218.476 223.387 218.962L144.989 263.968C144.142 264.386 143.21 264.603 142.265 264.603C141.32 264.603 140.388 264.386 139.541 263.968L99.4648 241.042C98.7882 240.659 98.2254 240.104 97.8334 239.435C97.4413 238.765 97.234 238.004 97.2324 237.229Z" fill="url(#paint32_linear_4219_358)" style="mix-blend-mode:multiply"/>
<path opacity="0.71" d="M97.4182 237.123V235.64L176.986 189.072C177.671 188.552 178.483 188.224 179.338 188.122C180.193 188.02 181.06 188.146 181.849 188.489L223.599 212.316C224.004 212.539 224.329 212.881 224.529 213.296L224.769 213.773C225.195 214.646 225.273 215.648 224.987 216.577C224.701 217.505 224.072 218.291 223.227 218.776L145.121 263.783C144.293 264.183 143.385 264.391 142.464 264.391C141.543 264.391 140.635 264.183 139.806 263.783L99.9429 240.856C99.218 240.525 98.5988 240.002 98.1533 239.343C97.7078 238.685 97.4535 237.916 97.4182 237.123Z" fill="url(#paint33_linear_4219_358)" style="mix-blend-mode:multiply"/>
<path opacity="0.73" d="M97.6313 236.991V235.508L176.88 189.125C177.552 188.63 178.345 188.322 179.177 188.234C180.008 188.145 180.848 188.279 181.61 188.622L223.228 212.449C223.62 212.678 223.935 213.02 224.131 213.428L224.37 213.905C224.797 214.779 224.874 215.78 224.588 216.709C224.302 217.638 223.674 218.424 222.829 218.909L145.042 263.571C144.217 263.983 143.307 264.198 142.385 264.198C141.462 264.198 140.552 263.983 139.727 263.571L99.8637 240.75C99.1895 240.378 98.6272 239.833 98.2348 239.172C97.8424 238.512 97.6341 237.758 97.6313 236.991Z" fill="url(#paint34_linear_4219_358)" style="mix-blend-mode:multiply"/>
<path opacity="0.76" d="M97.844 236.858V235.376L176.8 189.178C177.471 188.69 178.259 188.387 179.084 188.298C179.91 188.21 180.745 188.34 181.504 188.675L222.935 212.502C223.325 212.743 223.646 213.08 223.866 213.481L224.105 213.958C224.523 214.828 224.597 215.824 224.311 216.747C224.025 217.669 223.401 218.45 222.563 218.935L145.069 263.359C144.242 263.763 143.333 263.974 142.411 263.974C141.49 263.974 140.581 263.763 139.754 263.359L100.023 240.618C99.3589 240.239 98.8073 239.691 98.4245 239.031C98.0417 238.37 97.8414 237.621 97.844 236.858Z" fill="url(#paint35_linear_4219_358)" style="mix-blend-mode:multiply"/>
<path opacity="0.78" d="M98.0298 236.726V235.27L176.694 189.257C177.354 188.76 178.137 188.448 178.96 188.355C179.782 188.262 180.615 188.391 181.371 188.728L222.669 212.317C223.072 212.533 223.39 212.878 223.573 213.296L223.812 213.746C224.233 214.614 224.31 215.607 224.03 216.529C223.749 217.451 223.131 218.235 222.297 218.723L145.228 263.094C144.402 263.503 143.493 263.715 142.571 263.715C141.648 263.715 140.739 263.503 139.913 263.094L100.209 240.459C99.545 240.086 98.9929 239.544 98.6098 238.888C98.2267 238.231 98.0264 237.485 98.0298 236.726Z" fill="url(#paint36_linear_4219_358)" style="mix-blend-mode:multiply"/>
<path opacity="0.8" d="M98.2424 236.62V235.138L176.534 189.31C177.197 188.818 177.979 188.51 178.801 188.417C179.623 188.324 180.454 188.449 181.211 188.781L222.404 212.317C222.788 212.545 223.1 212.875 223.307 213.27L223.52 213.746C223.944 214.605 224.023 215.592 223.742 216.507C223.46 217.422 222.839 218.196 222.005 218.67L145.122 262.883C144.296 263.291 143.386 263.503 142.464 263.503C141.542 263.503 140.633 263.291 139.807 262.883L100.395 240.327C99.7417 239.951 99.199 239.411 98.8212 238.76C98.4434 238.11 98.2438 237.372 98.2424 236.62Z" fill="url(#paint37_linear_4219_358)" style="mix-blend-mode:multiply"/>
<path opacity="0.83" d="M98.4551 236.488V235.032L176.534 189.363C177.201 188.878 177.982 188.575 178.803 188.482C179.623 188.389 180.453 188.51 181.212 188.834L222.111 212.317C222.504 212.546 222.818 212.887 223.015 213.296L223.254 213.773C223.67 214.629 223.745 215.61 223.464 216.519C223.183 217.427 222.567 218.196 221.739 218.671L145.122 262.618C144.299 263.036 143.388 263.255 142.464 263.255C141.54 263.255 140.63 263.036 139.807 262.618L100.608 240.194C99.9544 239.818 99.4116 239.278 99.0338 238.628C98.656 237.977 98.4565 237.239 98.4551 236.488Z" fill="url(#paint38_linear_4219_358)" style="mix-blend-mode:multiply"/>
<path opacity="0.85" d="M98.6409 236.355V234.899L176.534 189.416C177.189 188.928 177.964 188.623 178.777 188.535C179.59 188.446 180.413 188.577 181.158 188.913L221.845 212.316C222.23 212.555 222.543 212.894 222.749 213.296L222.962 213.746C223.38 214.599 223.459 215.578 223.183 216.486C222.907 217.395 222.296 218.165 221.473 218.644L145.148 262.432C144.327 262.855 143.415 263.076 142.491 263.076C141.566 263.076 140.655 262.855 139.833 262.432L100.794 240.035C100.139 239.668 99.5939 239.133 99.2155 238.486C98.8371 237.84 98.6388 237.104 98.6409 236.355Z" fill="url(#paint39_linear_4219_358)" style="mix-blend-mode:multiply"/>
<path opacity="0.88" d="M98.8538 236.144V234.714L176.295 189.39C176.954 188.909 177.728 188.609 178.54 188.521C179.351 188.433 180.172 188.559 180.919 188.887L221.553 212.317C221.949 212.53 222.266 212.864 222.457 213.27L222.696 213.746C223.105 214.599 223.175 215.574 222.895 216.477C222.614 217.38 222.002 218.144 221.181 218.617L145.175 262.221C144.349 262.629 143.44 262.842 142.518 262.842C141.595 262.842 140.686 262.629 139.86 262.221L100.98 239.903C100.325 239.517 99.7844 238.967 99.4112 238.307C99.0381 237.647 98.8458 236.901 98.8538 236.144Z" fill="url(#paint40_linear_4219_358)" style="mix-blend-mode:multiply"/>
<path opacity="0.9" d="M99.0659 236.144V234.714L176.135 189.575C176.791 189.099 177.56 188.802 178.367 188.714C179.173 188.626 179.989 188.749 180.733 189.072L221.287 212.317C221.678 212.537 221.993 212.869 222.191 213.27L222.403 213.72C222.82 214.569 222.899 215.543 222.622 216.447C222.346 217.351 221.736 218.118 220.915 218.591L145.201 261.983C144.377 262.397 143.467 262.613 142.544 262.613C141.62 262.613 140.71 262.397 139.886 261.983L101.192 239.771C100.552 239.402 100.019 238.874 99.6459 238.238C99.2731 237.602 99.0732 236.88 99.0659 236.144Z" fill="url(#paint41_linear_4219_358)" style="mix-blend-mode:multiply"/>
<path opacity="0.93" d="M99.2791 235.985V234.529L176.083 189.522C176.738 189.046 177.508 188.749 178.314 188.661C179.121 188.573 179.936 188.696 180.68 189.019L221.022 212.105C221.403 212.317 221.709 212.64 221.899 213.031L222.138 213.508C222.545 214.357 222.615 215.328 222.334 216.226C222.053 217.124 221.442 217.884 220.623 218.353L145.228 261.744C144.409 262.175 143.497 262.401 142.571 262.401C141.644 262.401 140.732 262.175 139.913 261.744L101.379 239.612C100.74 239.244 100.209 238.715 99.8405 238.079C99.4719 237.442 99.2783 236.72 99.2791 235.985Z" fill="url(#paint42_linear_4219_358)" style="mix-blend-mode:multiply"/>
<path opacity="0.95" d="M99.4651 235.852V234.423L176.003 189.628C176.649 189.154 177.41 188.858 178.207 188.77C179.005 188.682 179.812 188.804 180.547 189.125L220.73 212.105C221.114 212.332 221.427 212.662 221.633 213.058L221.846 213.508C222.26 214.349 222.337 215.316 222.06 216.211C221.783 217.106 221.175 217.863 220.358 218.326L145.255 261.533C144.432 261.951 143.521 262.169 142.597 262.169C141.673 262.169 140.763 261.951 139.94 261.533L101.591 239.479C100.949 239.113 100.415 238.586 100.042 237.949C99.6685 237.312 99.4697 236.59 99.4651 235.852Z" fill="url(#paint43_linear_4219_358)" style="mix-blend-mode:multiply"/>
<path opacity="0.98" d="M99.6775 235.72V234.29L175.896 189.707C176.543 189.233 177.303 188.937 178.101 188.849C178.899 188.761 179.706 188.883 180.441 189.204L220.464 212.078C220.846 212.3 221.152 212.632 221.341 213.031L221.553 213.481C221.968 214.315 222.048 215.275 221.776 216.166C221.505 217.057 220.902 217.81 220.092 218.273L145.281 261.294C144.46 261.717 143.548 261.937 142.624 261.937C141.699 261.937 140.788 261.717 139.966 261.294L101.777 239.347C101.138 238.979 100.608 238.451 100.239 237.814C99.8704 237.177 99.6767 236.455 99.6775 235.72Z" fill="url(#paint44_linear_4219_358)" style="mix-blend-mode:multiply"/>
<path d="M99.8901 235.588V234.184L175.79 189.76C176.437 189.286 177.197 188.99 177.995 188.902C178.792 188.814 179.599 188.936 180.335 189.257L220.198 212.052C220.584 212.256 220.893 212.582 221.075 212.978L221.314 213.428C221.72 214.267 221.793 215.227 221.517 216.116C221.24 217.005 220.636 217.757 219.826 218.22L145.414 261.056C144.611 261.461 143.723 261.672 142.823 261.672C141.923 261.672 141.035 261.461 140.232 261.056L101.963 239.188C101.333 238.82 100.81 238.294 100.447 237.662C100.083 237.031 99.8913 236.316 99.8901 235.588Z" fill="url(#paint45_linear_4219_358)" style="mix-blend-mode:multiply"/>
</g>
<path d="M93.2198 237.574V236.144L177.624 186.743C178.339 186.221 179.18 185.895 180.061 185.798C180.942 185.7 181.834 185.834 182.647 186.187L227.028 211.39C227.458 211.634 227.801 212.004 228.011 212.449L228.25 212.952C228.699 213.876 228.781 214.934 228.48 215.916C228.18 216.897 227.519 217.73 226.629 218.247L143.767 265.901C142.876 266.346 141.893 266.578 140.896 266.578C139.9 266.578 138.917 266.346 138.026 265.901L95.5053 241.598C94.8058 241.183 94.227 240.594 93.8261 239.888C93.4253 239.182 93.2163 238.385 93.2198 237.574Z" fill="url(#paint46_linear_4219_358)"/>
<path d="M94.3891 237.203C94.042 237.086 93.7406 236.863 93.5271 236.566C93.3135 236.269 93.1987 235.913 93.1987 235.548C93.1987 235.183 93.3135 234.827 93.5271 234.53C93.7406 234.234 94.042 234.011 94.3891 233.894L177.385 186.24C178.281 185.796 179.268 185.566 180.268 185.566C181.269 185.566 182.256 185.796 183.152 186.24L226.682 211.284C228.277 212.211 228.277 213.694 226.682 214.594L143.687 262.248C142.8 262.705 141.816 262.944 140.817 262.944C139.818 262.944 138.834 262.705 137.947 262.248L94.3891 237.203Z" fill="#F9F7F9"/>
<path d="M104.382 231.246L173.026 191.508L216.85 216.738L148.231 256.476L104.382 231.246Z" fill="#D3DAED"/>
<path d="M120.991 249.858C123.765 249.858 126.014 248.566 126.014 246.972C126.014 245.379 123.765 244.087 120.991 244.087C118.217 244.087 115.969 245.379 115.969 246.972C115.969 248.566 118.217 249.858 120.991 249.858Z" fill="#F1F2F2"/>
<path d="M238.618 173.591H237.975C237.117 172.127 235.868 170.93 234.366 170.133C231.178 168.532 227.658 167.698 224.089 167.698C220.519 167.698 216.999 168.532 213.811 170.133C212.308 170.922 211.061 172.122 210.217 173.591H209.559V175.77C209.437 177.994 210.829 180.234 213.765 181.864C216.953 183.464 220.473 184.298 224.043 184.298C227.612 184.298 231.132 183.464 234.32 181.864C237.272 180.173 238.664 177.933 238.541 175.77L238.618 173.591Z" fill="url(#paint47_linear_4219_358)"/>
<path d="M234.351 179.487C240.01 176.242 240.01 170.94 234.351 167.695C231.163 166.094 227.643 165.26 224.073 165.26C220.504 165.26 216.984 166.094 213.796 167.695C208.153 170.94 208.153 176.242 213.796 179.487C216.984 181.087 220.504 181.921 224.073 181.921C227.643 181.921 231.163 181.087 234.351 179.487Z" fill="#48486A"/>
<path d="M218.491 163.658V171.58C218.551 172.035 218.722 172.469 218.989 172.843C219.255 173.217 219.609 173.521 220.021 173.728C221.249 174.344 222.606 174.665 223.982 174.665C225.357 174.665 226.714 174.344 227.943 173.728C228.389 173.546 228.781 173.253 229.081 172.877C229.381 172.501 229.579 172.054 229.656 171.58V163.658H218.491Z" fill="url(#paint48_linear_4219_358)"/>
<path d="M228.157 167.436C226.891 168.074 225.492 168.407 224.073 168.407C222.654 168.407 221.256 168.074 219.99 167.436C219.328 167.106 218.792 166.571 218.46 165.912V165.288H218.277V167.741C218.351 168.219 218.541 168.672 218.832 169.06C219.123 169.448 219.504 169.758 219.944 169.965C221.213 170.593 222.61 170.92 224.027 170.92C225.444 170.92 226.842 170.593 228.111 169.965C228.555 169.764 228.942 169.455 229.236 169.066C229.53 168.678 229.722 168.222 229.793 167.741V165.486L229.61 165.577V165.943C229.29 166.577 228.783 167.098 228.157 167.436Z" fill="#FFE188"/>
<path d="M228.157 168.137C226.888 168.765 225.49 169.092 224.073 169.092C222.657 169.092 221.259 168.765 219.99 168.137C219.551 167.93 219.169 167.619 218.878 167.231C218.587 166.844 218.397 166.391 218.323 165.912V168.426C218.404 168.902 218.598 169.352 218.887 169.738C219.177 170.125 219.555 170.438 219.99 170.65C221.259 171.279 222.657 171.605 224.073 171.605C225.49 171.605 226.888 171.279 228.157 170.65C228.601 170.448 228.987 170.139 229.281 169.75C229.575 169.362 229.767 168.907 229.839 168.426V165.912C229.768 166.394 229.576 166.849 229.283 167.238C228.989 167.627 228.602 167.935 228.157 168.137Z" fill="url(#paint49_linear_4219_358)"/>
<path d="M203.916 128.83L209.85 125.493C210.653 125.043 211.562 124.817 212.482 124.839C213.403 124.86 214.3 125.128 215.081 125.615L218.736 127.931L213.169 131.054L209.376 128.647C208.649 128.126 207.761 127.877 206.868 127.946L203.916 128.83Z" fill="url(#paint50_linear_4219_358)"/>
<path d="M205.95 143.379L211.93 140.012C210.034 138.701 208.59 136.838 207.796 134.678C207.002 132.519 206.897 130.167 207.495 127.946C206.421 128.015 205.376 128.322 204.436 128.845C203.67 129.362 203.056 130.074 202.658 130.907C202.26 131.74 202.092 132.664 202.173 133.583L205.95 143.379Z" fill="url(#paint51_linear_4219_358)"/>
<path d="M206.501 145.68L202.096 134.116C201.975 133.784 201.913 133.434 201.913 133.08C201.912 132.112 202.168 131.161 202.654 130.323C203.141 129.485 203.841 128.79 204.683 128.308C205.526 127.826 206.481 127.573 207.453 127.577C208.424 127.58 209.378 127.839 210.217 128.327L213.475 130.536L213.092 131.115L209.85 129.942C208.321 129.073 207.311 128.418 205.782 129.348C205.02 129.719 204.372 130.286 203.904 130.99C203.436 131.695 203.166 132.511 203.121 133.354C203.121 133.624 203.167 133.892 203.258 134.147L207.143 145.436L206.501 145.68Z" fill="#FFDA6A"/>
<g filter="url(#filter0_d_4219_358)">
<path d="M238.312 156.573C243.772 149.687 245.959 132.562 238.312 128.19C230.665 123.817 218.185 123.817 210.569 128.19C202.953 132.562 205.446 149.519 210.569 156.573C214.423 161.905 219.394 166.095 224.425 166.095C229.457 166.095 234.886 160.915 238.312 156.573Z" fill="url(#paint52_linear_4219_358)" fill-opacity="0.991703"/>
</g>
<path d="M236.859 141.414C243.68 137.514 243.68 131.13 236.859 127.23C230.038 123.33 218.904 123.33 212.129 127.23C205.354 131.13 205.338 137.514 212.129 141.414C218.919 145.314 230.038 145.314 236.859 141.414Z" fill="#FFDA6A"/>
<path d="M236.446 140.942C243.038 137.224 243.038 131.13 236.446 127.413C229.854 123.695 219.088 123.695 212.618 127.398C206.149 131.1 206.057 137.209 212.618 140.927C219.179 144.644 229.854 144.659 236.446 140.942Z" fill="url(#paint53_linear_4219_358)"/>
<path d="M230.038 162.256C232.551 162.181 235.048 161.833 237.486 161.22C238.893 160.854 242.273 159.224 243.129 156.726C244.093 153.892 244.934 149.854 243.298 146.853C242.659 145.756 241.775 144.821 240.714 144.12C239.652 143.42 238.443 142.974 237.18 142.816L236.721 145.284C237.273 145.035 237.879 144.924 238.484 144.961C239.089 144.998 239.676 145.182 240.193 145.497C240.908 146.002 241.511 146.648 241.963 147.395C242.416 148.142 242.709 148.974 242.823 149.839C243.163 151.312 243.146 152.844 242.774 154.309C242.402 155.774 241.685 157.13 240.682 158.264C240.682 158.264 234.473 161.448 230.665 161.22L230.038 162.256Z" fill="#FFDA6A"/>
<path d="M237.257 142.816L241.677 139.586C241.677 139.586 254.707 149.641 240.315 159.894C241.07 159.128 241.756 158.297 242.365 157.411C244.307 153.892 246.571 146.411 237.257 142.816Z" fill="url(#paint54_linear_4219_358)"/>
<path d="M230.741 161.22L235.33 158.462C235.33 158.462 239.474 159.483 240.866 158.097C240.897 158.097 238.618 161.22 230.741 161.22Z" fill="url(#paint55_linear_4219_358)"/>
<defs>
<filter id="filter0_d_4219_358" x="195.747" y="119.91" width="57.5142" height="61.1847" filterUnits="userSpaceOnUse" color-interpolation-filters="sRGB">
<feFlood flood-opacity="0" result="BackgroundImageFix"/>
<feColorMatrix in="SourceAlpha" type="matrix" values="0 0 0 0 0 0 0 0 0 0 0 0 0 0 0 0 0 0 127 0" result="hardAlpha"/>
<feOffset dy="5"/>
<feGaussianBlur stdDeviation="5"/>
<feColorMatrix type="matrix" values="0 0 0 0 0.988235 0 0 0 0 0.407843 0 0 0 0 0.227451 0 0 0 0.25 0"/>
<feBlend mode="normal" in2="BackgroundImageFix" result="effect1_dropShadow_4219_358"/>
<feBlend mode="normal" in="SourceGraphic" in2="effect1_dropShadow_4219_358" result="shape"/>
</filter>
<linearGradient id="paint0_linear_4219_358" x1="127.147" y1="106.944" x2="124.487" y2="151.475" gradientUnits="userSpaceOnUse">
<stop offset="0.1321" stop-color="#00A373"/>
<stop offset="1" stop-color="#1ABBC0"/>
</linearGradient>
<linearGradient id="paint1_linear_4219_358" x1="125.708" y1="67.0025" x2="117.402" y2="160.887" gradientUnits="userSpaceOnUse">
<stop offset="0.1321" stop-color="#00A373"/>
<stop offset="1" stop-color="#1ABBC0"/>
</linearGradient>
<linearGradient id="paint2_linear_4219_358" x1="183.087" y1="38.0023" x2="180.564" y2="155.589" gradientUnits="userSpaceOnUse">
<stop offset="0.1321" stop-color="#00A373"/>
<stop offset="1" stop-color="#1ABBC0"/>
</linearGradient>
<linearGradient id="paint3_linear_4219_358" x1="173.999" y1="72.8717" x2="164.367" y2="163.128" gradientUnits="userSpaceOnUse">
<stop offset="0.1321" stop-color="#00A373"/>
<stop offset="1" stop-color="#1ABBC0"/>
</linearGradient>
<linearGradient id="paint4_linear_4219_358" x1="142.376" y1="30.7783" x2="93.328" y2="151.485" gradientUnits="userSpaceOnUse">
<stop offset="0.1321" stop-color="#00A373"/>
<stop offset="1" stop-color="#1ABBC0"/>
</linearGradient>
<linearGradient id="paint5_linear_4219_358" x1="103.007" y1="17436.5" x2="7612.3" y2="17436.5" gradientUnits="userSpaceOnUse">
<stop stop-color="#000071"/>
<stop offset="1" stop-color="#1D4CB9"/>
</linearGradient>
<linearGradient id="paint6_linear_4219_358" x1="113.011" y1="17369.1" x2="7571.43" y2="17369.1" gradientUnits="userSpaceOnUse">
<stop stop-color="#000071"/>
<stop offset="1" stop-color="#1D4CB9"/>
</linearGradient>
<linearGradient id="paint7_linear_4219_358" x1="124.392" y1="17313.8" x2="7533.83" y2="17313.8" gradientUnits="userSpaceOnUse">
<stop stop-color="#000071"/>
<stop offset="1" stop-color="#1D4CB9"/>
</linearGradient>
<linearGradient id="paint8_linear_4219_358" x1="135.684" y1="17245.9" x2="7494.28" y2="17245.9" gradientUnits="userSpaceOnUse">
<stop stop-color="#000071"/>
<stop offset="1" stop-color="#1D4CB9"/>
</linearGradient>
<linearGradient id="paint9_linear_4219_358" x1="146.846" y1="17180.6" x2="7446.29" y2="17180.6" gradientUnits="userSpaceOnUse">
<stop stop-color="#000071"/>
<stop offset="1" stop-color="#1D4CB9"/>
</linearGradient>
<linearGradient id="paint10_linear_4219_358" x1="156.55" y1="17126.2" x2="7406.01" y2="17126.2" gradientUnits="userSpaceOnUse">
<stop stop-color="#000071"/>
<stop offset="1" stop-color="#1D4CB9"/>
</linearGradient>
<linearGradient id="paint11_linear_4219_358" x1="167.605" y1="17057.4" x2="7365.76" y2="17057.4" gradientUnits="userSpaceOnUse">
<stop stop-color="#000071"/>
<stop offset="1" stop-color="#1D4CB9"/>
</linearGradient>
<linearGradient id="paint12_linear_4219_358" x1="178.597" y1="16994.8" x2="7326.68" y2="16994.8" gradientUnits="userSpaceOnUse">
<stop stop-color="#000071"/>
<stop offset="1" stop-color="#1D4CB9"/>
</linearGradient>
<linearGradient id="paint13_linear_4219_358" x1="188.085" y1="16932.9" x2="7286.8" y2="16932.9" gradientUnits="userSpaceOnUse">
<stop stop-color="#000071"/>
<stop offset="1" stop-color="#1D4CB9"/>
</linearGradient>
<linearGradient id="paint14_linear_4219_358" x1="198.9" y1="16872.3" x2="7245.81" y2="16872.3" gradientUnits="userSpaceOnUse">
<stop stop-color="#000071"/>
<stop offset="1" stop-color="#1D4CB9"/>
</linearGradient>
<linearGradient id="paint15_linear_4219_358" x1="209.669" y1="16809.4" x2="7207.01" y2="16809.4" gradientUnits="userSpaceOnUse">
<stop stop-color="#000071"/>
<stop offset="1" stop-color="#1D4CB9"/>
</linearGradient>
<linearGradient id="paint16_linear_4219_358" x1="218.951" y1="16747.7" x2="7168.08" y2="16747.7" gradientUnits="userSpaceOnUse">
<stop stop-color="#000071"/>
<stop offset="1" stop-color="#1D4CB9"/>
</linearGradient>
<linearGradient id="paint17_linear_4219_358" x1="229.548" y1="16686.6" x2="7128.09" y2="16686.6" gradientUnits="userSpaceOnUse">
<stop stop-color="#000071"/>
<stop offset="1" stop-color="#1D4CB9"/>
</linearGradient>
<linearGradient id="paint18_linear_4219_358" x1="240.054" y1="16626.3" x2="7088.88" y2="16626.3" gradientUnits="userSpaceOnUse">
<stop stop-color="#000071"/>
<stop offset="1" stop-color="#1D4CB9"/>
</linearGradient>
<linearGradient id="paint19_linear_4219_358" x1="249.175" y1="16586.2" x2="7051.44" y2="16586.2" gradientUnits="userSpaceOnUse">
<stop stop-color="#000071"/>
<stop offset="1" stop-color="#1D4CB9"/>
</linearGradient>
<linearGradient id="paint20_linear_4219_358" x1="259.475" y1="16494.3" x2="7008.72" y2="16494.3" gradientUnits="userSpaceOnUse">
<stop stop-color="#000071"/>
<stop offset="1" stop-color="#1D4CB9"/>
</linearGradient>
<linearGradient id="paint21_linear_4219_358" x1="269.816" y1="16424.6" x2="6972.57" y2="16424.6" gradientUnits="userSpaceOnUse">
<stop stop-color="#000071"/>
<stop offset="1" stop-color="#1D4CB9"/>
</linearGradient>
<linearGradient id="paint22_linear_4219_358" x1="280.045" y1="16373.7" x2="6933.67" y2="16373.7" gradientUnits="userSpaceOnUse">
<stop stop-color="#000071"/>
<stop offset="1" stop-color="#1D4CB9"/>
</linearGradient>
<linearGradient id="paint23_linear_4219_358" x1="288.851" y1="16331.1" x2="6894.95" y2="16331.1" gradientUnits="userSpaceOnUse">
<stop stop-color="#000071"/>
<stop offset="1" stop-color="#1D4CB9"/>
</linearGradient>
<linearGradient id="paint24_linear_4219_358" x1="298.928" y1="16276.4" x2="6857.41" y2="16276.4" gradientUnits="userSpaceOnUse">
<stop stop-color="#000071"/>
<stop offset="1" stop-color="#1D4CB9"/>
</linearGradient>
<linearGradient id="paint25_linear_4219_358" x1="308.816" y1="16193.1" x2="6815.1" y2="16193.1" gradientUnits="userSpaceOnUse">
<stop stop-color="#000071"/>
<stop offset="1" stop-color="#1D4CB9"/>
</linearGradient>
<linearGradient id="paint26_linear_4219_358" x1="317.44" y1="16129.3" x2="6779" y2="16129.3" gradientUnits="userSpaceOnUse">
<stop stop-color="#000071"/>
<stop offset="1" stop-color="#1D4CB9"/>
</linearGradient>
<linearGradient id="paint27_linear_4219_358" x1="327.253" y1="16091.5" x2="6739.4" y2="16091.5" gradientUnits="userSpaceOnUse">
<stop stop-color="#000071"/>
<stop offset="1" stop-color="#1D4CB9"/>
</linearGradient>
<linearGradient id="paint28_linear_4219_358" x1="336.963" y1="16024.5" x2="6699.3" y2="16024.5" gradientUnits="userSpaceOnUse">
<stop stop-color="#000071"/>
<stop offset="1" stop-color="#1D4CB9"/>
</linearGradient>
<linearGradient id="paint29_linear_4219_358" x1="345.592" y1="15941.9" x2="6669.09" y2="15941.9" gradientUnits="userSpaceOnUse">
<stop stop-color="#000071"/>
<stop offset="1" stop-color="#1D4CB9"/>
</linearGradient>
<linearGradient id="paint30_linear_4219_358" x1="355.061" y1="15883.9" x2="6626.83" y2="15883.9" gradientUnits="userSpaceOnUse">
<stop stop-color="#000071"/>
<stop offset="1" stop-color="#1D4CB9"/>
</linearGradient>
<linearGradient id="paint31_linear_4219_358" x1="364.254" y1="15809.9" x2="6580.03" y2="15809.9" gradientUnits="userSpaceOnUse">
<stop stop-color="#000071"/>
<stop offset="1" stop-color="#1D4CB9"/>
</linearGradient>
<linearGradient id="paint32_linear_4219_358" x1="373.915" y1="15744.9" x2="6548.02" y2="15744.9" gradientUnits="userSpaceOnUse">
<stop stop-color="#000071"/>
<stop offset="1" stop-color="#1D4CB9"/>
</linearGradient>
<linearGradient id="paint33_linear_4219_358" x1="382.274" y1="15699.1" x2="6516.25" y2="15699.1" gradientUnits="userSpaceOnUse">
<stop stop-color="#000071"/>
<stop offset="1" stop-color="#1D4CB9"/>
</linearGradient>
<linearGradient id="paint34_linear_4219_358" x1="391.294" y1="15632.5" x2="6473.03" y2="15632.5" gradientUnits="userSpaceOnUse">
<stop stop-color="#000071"/>
<stop offset="1" stop-color="#1D4CB9"/>
</linearGradient>
<linearGradient id="paint35_linear_4219_358" x1="400.51" y1="15571.7" x2="6434.83" y2="15571.7" gradientUnits="userSpaceOnUse">
<stop stop-color="#000071"/>
<stop offset="1" stop-color="#1D4CB9"/>
</linearGradient>
<linearGradient id="paint36_linear_4219_358" x1="408.398" y1="15505.9" x2="6397.49" y2="15505.9" gradientUnits="userSpaceOnUse">
<stop stop-color="#000071"/>
<stop offset="1" stop-color="#1D4CB9"/>
</linearGradient>
<linearGradient id="paint37_linear_4219_358" x1="417.432" y1="15448.3" x2="6360.13" y2="15448.3" gradientUnits="userSpaceOnUse">
<stop stop-color="#000071"/>
<stop offset="1" stop-color="#1D4CB9"/>
</linearGradient>
<linearGradient id="paint38_linear_4219_358" x1="426.418" y1="15381.7" x2="6322.23" y2="15381.7" gradientUnits="userSpaceOnUse">
<stop stop-color="#000071"/>
<stop offset="1" stop-color="#1D4CB9"/>
</linearGradient>
<linearGradient id="paint39_linear_4219_358" x1="434.095" y1="15331.7" x2="6286.46" y2="15331.7" gradientUnits="userSpaceOnUse">
<stop stop-color="#000071"/>
<stop offset="1" stop-color="#1D4CB9"/>
</linearGradient>
<linearGradient id="paint40_linear_4219_358" x1="442.916" y1="15284.9" x2="6248.5" y2="15284.9" gradientUnits="userSpaceOnUse">
<stop stop-color="#000071"/>
<stop offset="1" stop-color="#1D4CB9"/>
</linearGradient>
<linearGradient id="paint41_linear_4219_358" x1="451.664" y1="15197.2" x2="6210.77" y2="15197.2" gradientUnits="userSpaceOnUse">
<stop stop-color="#000071"/>
<stop offset="1" stop-color="#1D4CB9"/>
</linearGradient>
<linearGradient id="paint42_linear_4219_358" x1="460.327" y1="15162.8" x2="6174.25" y2="15162.8" gradientUnits="userSpaceOnUse">
<stop stop-color="#000071"/>
<stop offset="1" stop-color="#1D4CB9"/>
</linearGradient>
<linearGradient id="paint43_linear_4219_358" x1="467.74" y1="15090.8" x2="6137.94" y2="15090.8" gradientUnits="userSpaceOnUse">
<stop stop-color="#000071"/>
<stop offset="1" stop-color="#1D4CB9"/>
</linearGradient>
<linearGradient id="paint44_linear_4219_358" x1="476.23" y1="15025.5" x2="6100.06" y2="15025.5" gradientUnits="userSpaceOnUse">
<stop stop-color="#000071"/>
<stop offset="1" stop-color="#1D4CB9"/>
</linearGradient>
<linearGradient id="paint45_linear_4219_358" x1="484.751" y1="14958.8" x2="6065.23" y2="14958.8" gradientUnits="userSpaceOnUse">
<stop stop-color="#000071"/>
<stop offset="1" stop-color="#1D4CB9"/>
</linearGradient>
<linearGradient id="paint46_linear_4219_358" x1="93.2198" y1="226.084" x2="228.596" y2="226.084" gradientUnits="userSpaceOnUse">
<stop stop-color="#D3DAED"/>
<stop offset="1" stop-color="#99A7D8"/>
</linearGradient>
<linearGradient id="paint47_linear_4219_358" x1="1255.92" y1="3917.93" x2="1807.87" y2="3917.93" gradientUnits="userSpaceOnUse">
<stop stop-color="#48486A"/>
<stop offset="0.22" stop-color="#4D4F78"/>
<stop offset="0.71" stop-color="#585D94"/>
<stop offset="1" stop-color="#5C629E"/>
</linearGradient>
<linearGradient id="paint48_linear_4219_358" x1="685.613" y1="2600.76" x2="767.226" y2="2600.76" gradientUnits="userSpaceOnUse">
<stop offset="0.15" stop-color="#FF9800"/>
<stop offset="1" stop-color="#FFC107"/>
</linearGradient>
<linearGradient id="paint49_linear_4219_358" x1="218.308" y1="168.761" x2="229.855" y2="168.761" gradientUnits="userSpaceOnUse">
<stop stop-color="#FFC107"/>
<stop offset="0.85" stop-color="#FF9800"/>
</linearGradient>
<linearGradient id="paint50_linear_4219_358" x1="682.742" y1="1333.09" x2="826.79" y2="1333.09" gradientUnits="userSpaceOnUse">
<stop offset="0.15" stop-color="#FF9800"/>
<stop offset="1" stop-color="#FFC107"/>
</linearGradient>
<linearGradient id="paint51_linear_4219_358" x1="507.296" y1="3205.82" x2="569.283" y2="3205.82" gradientUnits="userSpaceOnUse">
<stop offset="0.15" stop-color="#FF9800"/>
<stop offset="1" stop-color="#FFC107"/>
</linearGradient>
<linearGradient id="paint52_linear_4219_358" x1="243.261" y1="145.503" x2="205.747" y2="145.503" gradientUnits="userSpaceOnUse">
<stop stop-color="#FFA979"/>
<stop offset="1" stop-color="#FF6231"/>
</linearGradient>
<linearGradient id="paint53_linear_4219_358" x1="1816.58" y1="4175.4" x2="1785.78" y2="3810.6" gradientUnits="userSpaceOnUse">
<stop offset="0.15" stop-color="#F8B95C"/>
<stop offset="1" stop-color="#FFE189"/>
</linearGradient>
<linearGradient id="paint54_linear_4219_358" x1="769.049" y1="4377.58" x2="832.243" y2="4377.58" gradientUnits="userSpaceOnUse">
<stop offset="0.15" stop-color="#FF9800"/>
<stop offset="1" stop-color="#FFC107"/>
</linearGradient>
<linearGradient id="paint55_linear_4219_358" x1="735.464" y1="830.153" x2="802.692" y2="830.153" gradientUnits="userSpaceOnUse">
<stop offset="0.15" stop-color="#FF9800"/>
<stop offset="1" stop-color="#FFC107"/>
</linearGradient>
</defs>
</svg>
