<svg width="294" height="325" viewBox="0 0 294 325" fill="none" xmlns="http://www.w3.org/2000/svg">
<path opacity="0.5" d="M152.084 1.2952C125.266 -4.9664 104.418 12.9619 85.0843 23.2952C65.751 33.6285 20.4177 50.2952 20.0844 78.2952C19.751 106.295 15.0844 180.295 15.0844 180.295C15.0844 180.295 -9.47907 225.619 4.08433 249.295C14.8715 268.126 34.3 264.859 52.0843 277.295C74.9954 293.317 78.3708 320.612 106.084 324.295C128.611 327.289 161.084 305.295 161.084 305.295L212.084 268.295C212.084 268.295 260.679 263.484 279.084 242.295C299.841 218.399 292.084 162.295 292.084 162.295C292.084 162.295 277.463 114.613 258.084 90.2952C239.916 67.4953 224.084 74.2952 200.084 43.2952C176.084 12.2952 176.34 6.95845 152.084 1.2952Z" fill="#EBEBF7"/>
<path d="M132.431 62.7573L132.934 63.5515C133.595 64.0015 133.833 66.9398 133.833 67.7339V170.336C133.714 173.05 132.967 175.699 131.649 178.074C130.332 180.45 128.481 182.486 126.242 184.022L87.9178 206.152C86.8096 206.7 85.5826 206.964 84.3473 206.919L79.3484 205.172C78.5641 204.87 77.8906 204.336 77.4179 203.641C76.9453 202.945 76.696 202.122 76.7035 201.281V95.3963C76.8561 92.7085 77.6368 90.0939 78.9827 87.763C80.3286 85.432 82.2023 83.4497 84.453 81.9754L119.418 61.8044C121.443 60.6711 123.755 60.1574 126.068 60.3268C128.381 60.4962 130.594 61.3413 132.431 62.7573Z" fill="url(#paint0_linear_4219_1410)"/>
<path d="M126.348 62.8373C130.606 60.3755 134.097 62.3873 134.097 67.3109V170.866C133.949 173.555 133.17 176.171 131.824 178.503C130.477 180.834 128.602 182.816 126.348 184.287L88.8169 205.993C84.5587 208.455 81.0674 206.443 81.0674 201.52V98.0439C81.218 95.352 81.9976 92.733 83.3435 90.3975C84.6895 88.0619 86.5642 86.0751 88.8169 84.5966L126.348 62.8373Z" fill="#F9F7F9"/>
<path d="M129.759 79.752V163.454L85.4043 189.078V105.403L129.759 79.752Z" fill="#D3DAED"/>
<path d="M101.724 87.0581C101.872 87.092 102.026 87.092 102.174 87.0581L113.917 80.255C114.119 80.1337 114.264 79.9385 114.324 79.7109C114.383 79.4833 114.351 79.2415 114.235 79.0373C114.177 78.9348 114.1 78.845 114.007 78.7733C113.914 78.7015 113.807 78.6492 113.694 78.6195C113.58 78.5899 113.462 78.5835 113.346 78.6007C113.229 78.6179 113.118 78.6583 113.018 78.7196L101.275 85.4962C101.069 85.6131 100.917 85.8065 100.853 86.0344C100.788 86.2624 100.816 86.5065 100.931 86.7139C101.025 86.8316 101.147 86.9245 101.285 86.9844C101.423 87.0444 101.574 87.0697 101.724 87.0581Z" fill="#99A7D8"/>
<path d="M107.595 179.707C110.24 178.198 112.25 179.416 112.25 182.354C112.17 183.987 111.706 185.578 110.897 186.999C110.089 188.42 108.958 189.631 107.595 190.533C104.951 192.016 102.914 190.798 102.914 187.886C103.01 186.254 103.483 184.666 104.295 183.246C105.107 181.827 106.237 180.616 107.595 179.707Z" fill="#E6E7E8"/>
<path d="M108.521 121.498C115.821 117.262 121.745 120.73 121.745 129.174C121.492 133.788 120.165 138.277 117.868 142.286C115.572 146.294 112.371 149.708 108.521 152.257C101.194 156.493 95.2964 153.025 95.2964 144.554C95.5452 139.944 96.8712 135.456 99.168 131.451C101.465 127.447 104.668 124.038 108.521 121.498Z" fill="white"/>
<path d="M113.018 145.03V132.138L115.663 130.629L109.659 126.765L103.655 137.486L106.485 135.897L106.511 148.789L113.018 145.03Z" fill="url(#paint1_linear_4219_1410)"/>
<path d="M168.084 242.313V247.404C168.082 248.022 167.895 248.63 167.543 249.166C167.19 249.702 166.684 250.148 166.075 250.462L165.288 250.951C163.611 251.805 161.712 252.267 159.772 252.294C157.831 252.321 155.916 251.911 154.209 251.104L143.986 246.227C143.713 246.094 143.485 245.901 143.327 245.665C143.168 245.43 143.084 245.162 143.084 244.889C143.084 244.616 143.168 244.348 143.327 244.112C143.485 243.877 143.713 243.683 143.986 243.551C145.926 242.573 148.25 241.09 150.364 241.319C151.34 241.472 152.327 241.564 153.318 241.594L158.071 242.16L168.084 242.313Z" fill="#48486A"/>
<path d="M143.986 245.06L154.239 249.925C155.941 250.735 157.851 251.148 159.787 251.124C161.723 251.099 163.62 250.639 165.294 249.787L166.079 249.283C166.69 248.971 167.196 248.525 167.548 247.988C167.9 247.451 168.085 246.842 168.084 246.223V247.401C168.082 248.02 167.895 248.627 167.544 249.164C167.192 249.7 166.687 250.147 166.079 250.461L165.294 250.95C163.621 251.804 161.725 252.267 159.79 252.294C157.854 252.321 155.942 251.911 154.239 251.103L143.986 246.223C143.61 246.041 143.324 245.743 143.182 245.388C143.04 245.032 143.053 244.643 143.218 244.295C143.367 244.62 143.638 244.89 143.986 245.06Z" fill="#363650"/>
<path d="M152.084 253.393V258.953C152.081 259.629 151.873 260.292 151.479 260.878C151.085 261.463 150.52 261.951 149.838 262.293L148.959 262.827C147.081 263.76 144.955 264.265 142.784 264.294C140.612 264.323 138.468 263.876 136.557 262.994L125.092 257.668C124.787 257.523 124.532 257.312 124.355 257.055C124.178 256.798 124.084 256.505 124.084 256.207C124.084 255.908 124.178 255.616 124.355 255.359C124.532 255.102 124.787 254.89 125.092 254.746C127.26 253.677 129.858 252.057 132.202 252.324C133.3 252.477 134.409 252.572 135.522 252.608L140.834 253.226L152.084 253.393Z" fill="#48486A"/>
<path d="M125.094 257.075L136.558 261.94C138.466 262.755 140.61 263.17 142.782 263.146C144.954 263.121 147.082 262.659 148.96 261.803L149.838 261.298C150.524 260.988 151.092 260.542 151.487 260.005C151.881 259.467 152.087 258.858 152.084 258.238V259.401C152.081 260.02 151.873 260.627 151.479 261.164C151.085 261.7 150.52 262.147 149.838 262.461L148.96 262.95C147.082 263.804 144.956 264.267 142.784 264.294C140.613 264.321 138.469 263.911 136.558 263.103L125.094 258.223C124.673 258.041 124.352 257.743 124.194 257.388C124.035 257.032 124.05 256.643 124.235 256.295C124.397 256.625 124.701 256.901 125.094 257.075Z" fill="#363650"/>
<path d="M164.722 170.145C165.536 170.145 166.319 169.828 166.904 169.261L172.757 163.593C174.9 161.526 176.578 159.026 177.681 156.259C178.783 153.492 179.285 150.523 179.152 147.547C179.019 144.571 178.255 141.658 176.911 139C175.567 136.343 173.672 134.002 171.354 132.134L164.86 126.934C164.21 126.475 163.409 126.281 162.62 126.391C161.832 126.501 161.115 126.907 160.615 127.526C160.114 128.146 159.869 128.933 159.927 129.728C159.985 130.522 160.343 131.265 160.929 131.805L165.584 138.795C167.212 140.106 169.769 139.823 171.324 141.824C172.811 143.736 172.805 145.734 172.898 147.823C172.992 149.911 172.64 151.996 171.866 153.938C171.092 155.88 169.914 157.635 168.41 159.087L162.557 164.807C162.26 165.092 162.022 165.433 161.857 165.811C161.692 166.189 161.603 166.595 161.595 167.007C161.587 167.419 161.66 167.829 161.81 168.213C161.96 168.596 162.185 168.947 162.47 169.244C163.073 169.829 163.882 170.153 164.722 170.145Z" fill="url(#paint2_linear_4219_1410)"/>
<path d="M163.249 248.385C163.941 248.371 164.622 248.215 165.25 247.927C165.878 247.638 166.441 247.223 166.902 246.708C167.363 246.192 167.714 245.588 167.931 244.931C168.149 244.274 168.23 243.58 168.168 242.89L166.436 208.225L168.739 170.474C168.739 169.754 168.597 169.04 168.321 168.374C168.045 167.709 167.64 167.104 167.13 166.595C166.62 166.086 166.015 165.683 165.349 165.409C164.683 165.135 163.97 164.995 163.249 164.997C160.219 164.997 154.331 167.441 154.331 170.474L157.794 242.925C157.799 244.372 158.375 245.758 159.397 246.781C160.419 247.804 161.804 248.38 163.249 248.385Z" fill="#4043AF"/>
<path d="M146.191 260.137C147.644 260.132 149.036 259.551 150.062 258.521C151.088 257.491 151.664 256.096 151.664 254.642L150.954 217.55L155.11 182.191C155.11 179.158 149.204 176.697 146.191 176.697C145.47 176.697 144.756 176.839 144.09 177.115C143.424 177.391 142.819 177.796 142.309 178.306C141.799 178.816 141.395 179.422 141.119 180.089C140.843 180.755 140.701 181.47 140.701 182.191V254.642C140.701 256.099 141.28 257.497 142.309 258.527C143.339 259.558 144.735 260.137 146.191 260.137Z" fill="#4043AF"/>
<path d="M167.008 164.217L169.363 181.671C169.36 182.753 169.074 183.816 168.533 184.752C167.992 185.689 167.215 186.467 166.28 187.01L151.993 195.035C151.121 195.553 150.127 195.831 149.113 195.839C148.098 195.847 147.1 195.586 146.22 195.082C145.339 194.578 144.608 193.849 144.101 192.97C143.594 192.091 143.329 191.093 143.334 190.078V154.667C143.334 152.466 138.744 153.974 140.649 152.934L160.704 141.338C164.583 139.085 167.008 159.797 167.008 164.217Z" fill="#99A7D8"/>
<g opacity="0.3">
<path opacity="0.3" d="M162.557 164.807C162.26 165.092 162.022 165.433 161.857 165.811C161.692 166.189 161.603 166.595 161.595 167.007C161.587 167.419 161.66 167.829 161.81 168.213C161.96 168.596 162.185 168.947 162.47 169.244C162.764 169.543 163.114 169.781 163.501 169.945C163.887 170.109 164.302 170.194 164.721 170.197C165.536 170.197 166.319 169.88 166.904 169.313L170.367 165.968C170.367 165.032 170.229 164.235 170.194 163.94C169.969 161.808 169.917 159.659 169.848 157.527C169.417 158.1 168.942 158.639 168.428 159.139L162.557 164.807Z" fill="#231F20"/>
</g>
<path d="M168.93 136.208L167.839 153.107C168.202 156.695 168.081 160.3 168.445 163.888C168.653 165.968 169.796 179.245 169.38 181.221C169.103 182.503 165.553 185.329 160.808 187.807C160.392 188.024 158.626 188.872 158.21 189.055C152.183 191.759 144.996 193.492 140.13 191.152L140.701 170.509L139.697 157.631C139.125 148.86 137.393 137.074 146.053 131.666L147.178 131.008L156.409 125.964C157.479 125.351 158.691 125.029 159.924 125.029C161.158 125.029 162.369 125.351 163.44 125.964C165.218 126.99 166.674 128.493 167.644 130.303C168.614 132.113 169.059 134.158 168.93 136.208Z" fill="url(#paint3_linear_4219_1410)"/>
<path d="M154.833 131.701C155.661 131.696 156.454 131.364 157.038 130.776C157.622 130.188 157.95 129.393 157.95 128.564V116.275C157.982 115.845 157.925 115.412 157.782 115.005C157.64 114.597 157.415 114.224 157.121 113.908C156.828 113.591 156.473 113.339 156.077 113.166C155.682 112.994 155.255 112.905 154.824 112.905C154.393 112.905 153.966 112.994 153.571 113.166C153.176 113.339 152.82 113.591 152.527 113.908C152.233 114.224 152.008 114.597 151.866 115.005C151.723 115.412 151.666 115.845 151.698 116.275V128.581C151.703 129.41 152.035 130.204 152.622 130.788C153.21 131.373 154.004 131.701 154.833 131.701Z" fill="#F2B1B5"/>
<path d="M157.638 127.957H152.443C149.724 127.957 147.116 126.876 145.193 124.952C143.271 123.028 142.191 120.418 142.191 117.696V107.089H157.638V127.888V127.957Z" fill="#F2B1B5"/>
<path d="M143.351 107.071V118.008C143.351 120.67 144.407 123.222 146.288 125.104C148.168 126.987 150.719 128.044 153.378 128.044H152.235C149.576 128.044 147.025 126.987 145.145 125.104C143.264 123.222 142.208 120.67 142.208 118.008V107.158L143.351 107.071Z" fill="#F5C5C8"/>
<path d="M138.692 102.809C140.41 102.203 140.988 100.146 143.022 101.076C143.853 101.51 144.442 101.735 145.256 101.232C146.329 100.574 146.607 100.158 148.061 100.366C148.65 100.366 149.429 100.955 149.984 100.938C151.161 100.938 151.923 99.9843 153.309 100.4C154.037 100.704 154.837 100.788 155.612 100.643C156.349 100.506 157.109 100.572 157.811 100.834C159.214 101.406 159.128 102.446 159.942 103.399C160.756 104.352 161.587 103.676 162.383 104.421C162.725 104.75 162.957 105.175 163.05 105.64C163.143 106.105 163.092 106.587 162.903 107.021C162.73 107.42 162.401 107.853 162.574 108.269C162.747 108.685 163.007 108.703 163.232 108.928C164.029 109.743 163.388 111.095 162.764 112.048C162.624 112.226 162.546 112.445 162.539 112.672C162.586 112.961 162.733 113.225 162.955 113.417C163.356 113.984 163.538 114.678 163.468 115.369C163.398 116.061 163.081 116.703 162.574 117.178C162.089 117.594 161.414 117.924 161.327 118.565C161.308 118.92 161.368 119.275 161.5 119.605C161.658 120.274 161.591 120.976 161.309 121.603C161.027 122.23 160.547 122.746 159.942 123.071C158.521 123.782 159.82 126.347 157.638 126.538C155.906 126.711 154.365 124.579 154.001 123.071C154.001 123.279 152.893 122.69 152.806 122.569C152.545 122.139 152.368 121.662 152.287 121.165C151.973 120.265 151.787 119.326 151.733 118.374C151.733 118.01 151.733 114.006 151.404 113.989C150.647 114.017 149.89 113.911 149.17 113.677C147.438 113.018 148.2 111.944 147.559 110.748C147.247 110.176 146.52 110.055 146.174 109.465C145.88 108.782 145.813 108.023 145.983 107.299C144.412 107.767 142.739 107.767 141.169 107.299C139.991 106.796 136.119 105.097 136.084 103.659C136.084 103.069 137.682 103.166 138.692 102.809Z" fill="#363650"/>
<path d="M147.247 145.619H147.161L131.419 145.099C128.789 145.009 126.228 144.238 123.985 142.862C121.742 141.486 119.894 139.552 118.621 137.248L107 116.275C106.627 115.553 106.551 114.714 106.786 113.937C107.022 113.159 107.552 112.504 108.262 112.111C108.973 111.719 109.808 111.619 110.592 111.833C111.375 112.047 112.043 112.559 112.455 113.259L124.076 134.301C124.828 135.659 125.919 136.799 127.242 137.61C128.565 138.421 130.076 138.875 131.627 138.929L147.351 139.449C148.178 139.463 148.966 139.804 149.54 140.399C150.115 140.994 150.43 141.793 150.417 142.621C150.403 143.448 150.061 144.236 149.467 144.812C148.873 145.387 148.074 145.702 147.247 145.689V145.619Z" fill="#F2B1B5"/>
<path d="M147.247 145.966H147.144L131.401 145.446C128.719 145.347 126.107 144.556 123.819 143.15C121.531 141.744 119.645 139.771 118.343 137.421L109.113 120.591C108.667 119.786 108.559 118.838 108.813 117.954C109.066 117.069 109.66 116.322 110.464 115.876C111.267 115.43 112.215 115.322 113.099 115.576C113.982 115.829 114.729 116.424 115.174 117.228L124.405 134.076C125.131 135.377 126.18 136.47 127.451 137.247C128.722 138.024 130.172 138.46 131.661 138.513L147.403 139.033C148.322 139.049 149.197 139.43 149.835 140.091C150.473 140.752 150.822 141.641 150.806 142.56C150.79 143.479 150.41 144.355 149.749 144.993C149.088 145.632 148.201 145.982 147.282 145.966H147.247Z" fill="url(#paint4_linear_4219_1410)"/>
<path d="M112.836 115.044C112.694 115.126 112.525 115.149 112.366 115.106C112.207 115.064 112.071 114.961 111.988 114.819L108.16 108.128C108.12 108.059 108.094 107.983 108.084 107.903C108.073 107.824 108.079 107.743 108.1 107.666C108.121 107.588 108.157 107.516 108.206 107.452C108.255 107.389 108.316 107.336 108.386 107.297C108.528 107.215 108.697 107.192 108.856 107.234C109.015 107.277 109.151 107.38 109.234 107.522L113.148 114.195C113.186 114.271 113.207 114.354 113.212 114.438C113.216 114.523 113.204 114.607 113.174 114.687C113.145 114.766 113.1 114.839 113.042 114.9C112.984 114.962 112.914 115.011 112.836 115.044Z" fill="#F2B1B5"/>
<path d="M107.613 211.147C107.613 211.147 98.8795 229.537 102.282 251.238C102.286 251.239 114.967 214.342 107.613 211.147Z" fill="#454A77"/>
<path d="M94.2909 276.733C88.3391 273.317 88.3391 267.725 94.2909 264.309C100.243 260.893 109.951 260.893 115.871 264.309C121.792 267.725 121.79 273.317 115.871 276.733C109.953 280.149 100.243 280.149 94.2909 276.733Z" fill="url(#paint5_radial_4219_1410)" style="mix-blend-mode:multiply"/>
<path d="M97.1118 271.816C92.7182 269.294 92.7182 257.562 97.1118 255.04C101.505 252.518 108.674 252.518 113.044 255.04C117.413 257.562 117.413 269.294 113.044 271.816C110.885 273.063 108.046 274.251 105.186 274.266C102.265 274.28 99.3331 273.092 97.1118 271.816Z" fill="#ADB9E0"/>
<path d="M93.4045 257.751C93.4045 257.676 93.4045 257.601 93.4045 257.528V255.773H93.8588C94.3863 254.713 95.3703 253.714 96.8174 252.885C101.371 250.269 108.812 250.269 113.346 252.885C114.789 253.716 115.762 254.715 116.288 255.773H116.697V257.074C116.752 257.45 116.752 257.831 116.697 258.207V258.238C116.465 259.758 115.351 261.237 113.348 262.398C108.815 265.015 101.378 265.015 96.8197 262.398C94.8039 261.241 93.6833 259.758 93.4501 258.238H93.4101L93.4045 257.751Z" fill="url(#paint6_linear_4219_1410)"/>
<path d="M96.814 260.722C92.2605 258.106 92.2605 253.824 96.814 251.207C101.368 248.591 108.809 248.591 113.342 251.207C117.876 253.824 117.875 258.106 113.342 260.722C108.81 263.339 101.372 263.339 96.814 260.722Z" fill="#EDF0F8"/>
<path d="M97.4848 260.335C93.2978 257.932 93.2978 253.998 97.4848 251.594C101.672 249.189 108.506 249.191 112.669 251.594C116.833 253.997 116.833 257.932 112.669 260.335C108.506 262.738 101.673 262.739 97.4848 260.335Z" fill="#99A7D8"/>
<path d="M98.8566 260.662C95.4292 258.695 95.4292 255.475 98.8566 253.508C102.284 251.541 107.876 251.54 111.284 253.508C114.693 255.476 114.692 258.695 111.284 260.662C107.877 262.63 102.289 262.63 98.8566 260.662Z" fill="#48486A"/>
<path d="M103.672 258.683C103.672 258.683 98.8054 236.358 111.723 219.916C111.852 219.751 113.271 220.662 113.401 220.495C113.53 220.328 112.382 219.101 112.517 218.94C114.294 216.834 116.295 214.928 118.486 213.257C128.563 205.551 127.627 215.007 122.959 227.255C122.854 227.532 121.463 226.739 121.354 227.019C121.183 227.455 122.295 228.962 122.111 229.404C116.812 242.487 107.897 257.703 103.672 258.683Z" fill="#3647AC"/>
<path d="M107.173 251.662C110.273 239.331 113.957 225.447 122.43 215.601C122.608 215.388 122.28 215.114 122.1 215.325C113.67 225.136 109.545 239.132 107.006 251.634C106.983 251.743 107.146 251.767 107.173 251.662Z" fill="#F5F5FB"/>
<path d="M104.103 258.892C104.103 258.892 111.492 229.825 96.2356 218.262C95.8469 217.966 96.5322 221.249 96.119 220.975C95.7059 220.7 95.2772 217.933 94.8296 217.692C92.1463 216.248 88.8323 215.43 84.7563 215.488C69.1399 215.711 73.007 217.54 81.49 224.966C81.7943 225.234 85.4493 225.508 85.7658 225.79C86.0379 226.032 82.9693 226.28 83.2492 226.533C90.3827 233.003 99.7741 243.133 104.103 258.892Z" fill="#3647AC"/>
<path d="M104.033 252.531C102.954 236.951 95.559 224.147 80.7301 218.196C80.569 218.131 80.6357 217.868 80.8023 217.932C95.3247 223.36 103.955 237.144 104.137 252.531C104.137 252.545 104.132 252.558 104.122 252.568C104.112 252.578 104.099 252.583 104.085 252.583C104.071 252.583 104.058 252.578 104.048 252.568C104.039 252.558 104.033 252.545 104.033 252.531Z" fill="#F5F5FB"/>
<g opacity="0.52">
<path opacity="0.02" d="M199.683 215.479C199.385 215.326 199.055 215.246 198.72 215.246C198.384 215.246 198.054 215.326 197.756 215.479L174.873 228.695C174.758 228.736 174.66 228.812 174.59 228.912C174.52 229.012 174.482 229.131 174.482 229.253C174.482 229.374 174.52 229.493 174.59 229.593C174.66 229.693 174.758 229.769 174.873 229.81L197.756 243.035C198.054 243.188 198.384 243.268 198.72 243.268C199.055 243.268 199.385 243.188 199.683 243.035L222.557 229.819C222.672 229.778 222.771 229.702 222.841 229.602C222.911 229.502 222.948 229.383 222.948 229.261C222.948 229.14 222.911 229.021 222.841 228.921C222.771 228.821 222.672 228.745 222.557 228.704L199.683 215.479Z" fill="#FBFBFB"/>
<path opacity="0.05" d="M199.674 215.576C199.376 215.428 199.048 215.351 198.715 215.351C198.382 215.351 198.054 215.428 197.756 215.576L175.041 228.695C174.925 228.734 174.825 228.809 174.754 228.908C174.683 229.007 174.645 229.126 174.645 229.248C174.645 229.37 174.683 229.489 174.754 229.589C174.825 229.688 174.925 229.762 175.041 229.801L197.756 242.938C198.054 243.086 198.382 243.163 198.715 243.163C199.048 243.163 199.376 243.086 199.674 242.938L222.38 229.81C222.496 229.771 222.596 229.697 222.667 229.597C222.738 229.498 222.776 229.379 222.776 229.257C222.776 229.135 222.738 229.016 222.667 228.917C222.596 228.818 222.496 228.743 222.38 228.704L199.674 215.576Z" fill="#F6F6F8"/>
<path opacity="0.07" d="M199.675 215.709C199.379 215.556 199.052 215.476 198.72 215.476C198.387 215.476 198.06 215.556 197.765 215.709L175.218 228.73C175.101 228.767 174.999 228.84 174.927 228.939C174.855 229.037 174.816 229.157 174.816 229.279C174.816 229.401 174.855 229.521 174.927 229.619C174.999 229.718 175.101 229.791 175.218 229.828L197.765 242.867C198.061 243.015 198.388 243.093 198.72 243.093C199.051 243.093 199.378 243.015 199.675 242.867L222.213 229.837C222.328 229.797 222.428 229.723 222.499 229.624C222.57 229.525 222.609 229.406 222.609 229.283C222.609 229.161 222.57 229.042 222.499 228.943C222.428 228.844 222.328 228.769 222.213 228.73L199.675 215.709Z" fill="#F2F2F4"/>
<path opacity="0.1" d="M199.666 215.78C199.373 215.631 199.048 215.554 198.72 215.554C198.391 215.554 198.067 215.631 197.774 215.78L175.386 228.704C175.274 228.745 175.176 228.82 175.108 228.918C175.039 229.016 175.002 229.133 175.002 229.253C175.002 229.372 175.039 229.489 175.108 229.587C175.176 229.686 175.274 229.76 175.386 229.801L197.774 242.734C198.067 242.883 198.391 242.96 198.72 242.96C199.048 242.96 199.373 242.883 199.666 242.734L222.045 229.801C222.158 229.763 222.256 229.689 222.326 229.592C222.396 229.494 222.433 229.377 222.433 229.257C222.433 229.137 222.396 229.02 222.326 228.922C222.256 228.825 222.158 228.751 222.045 228.713L199.666 215.78Z" fill="#EDEDF0"/>
<path opacity="0.12" d="M199.657 215.877C199.367 215.729 199.046 215.651 198.72 215.651C198.394 215.651 198.073 215.729 197.782 215.877L175.554 228.712C175.444 228.753 175.348 228.827 175.281 228.923C175.214 229.02 175.178 229.135 175.178 229.252C175.178 229.37 175.214 229.485 175.281 229.582C175.348 229.678 175.444 229.752 175.554 229.792L197.782 242.637C198.073 242.785 198.394 242.862 198.72 242.862C199.046 242.862 199.367 242.785 199.657 242.637L221.868 229.801C221.981 229.762 222.08 229.689 222.149 229.591C222.219 229.494 222.257 229.377 222.257 229.257C222.257 229.137 222.219 229.02 222.149 228.922C222.08 228.825 221.981 228.751 221.868 228.712L199.657 215.877Z" fill="#E9E9ED"/>
<path opacity="0.15" d="M199.648 215.975C199.36 215.831 199.042 215.755 198.72 215.755C198.397 215.755 198.08 215.831 197.791 215.975L175.731 228.713C175.62 228.753 175.525 228.827 175.458 228.923C175.391 229.02 175.354 229.135 175.354 229.253C175.354 229.37 175.391 229.485 175.458 229.582C175.525 229.678 175.62 229.752 175.731 229.792L197.791 242.539C198.08 242.683 198.397 242.758 198.72 242.758C199.042 242.758 199.36 242.683 199.648 242.539L221.7 229.792C221.811 229.754 221.908 229.682 221.976 229.586C222.044 229.49 222.081 229.375 222.081 229.257C222.081 229.139 222.044 229.024 221.976 228.928C221.908 228.832 221.811 228.76 221.7 228.721L199.648 215.975Z" fill="#E4E4E9"/>
<path opacity="0.17" d="M199.639 216.072C199.352 215.928 199.036 215.853 198.715 215.853C198.394 215.853 198.078 215.928 197.791 216.072L175.899 228.721C175.786 228.757 175.688 228.828 175.619 228.924C175.549 229.019 175.511 229.134 175.511 229.252C175.511 229.371 175.549 229.486 175.619 229.581C175.688 229.677 175.786 229.748 175.899 229.784L197.791 242.442C198.078 242.586 198.394 242.661 198.715 242.661C199.036 242.661 199.352 242.586 199.639 242.442L221.523 229.792C221.634 229.754 221.731 229.682 221.799 229.586C221.867 229.49 221.904 229.375 221.904 229.257C221.904 229.139 221.867 229.024 221.799 228.928C221.731 228.832 221.634 228.76 221.523 228.721L199.639 216.072Z" fill="#E0E0E6"/>
<path opacity="0.2" d="M199.639 216.178C199.354 216.034 199.039 215.959 198.72 215.959C198.4 215.959 198.085 216.034 197.8 216.178L176.076 228.721C175.963 228.757 175.865 228.828 175.796 228.924C175.726 229.019 175.688 229.134 175.688 229.252C175.688 229.371 175.726 229.486 175.796 229.581C175.865 229.677 175.963 229.748 176.076 229.784L197.8 242.344C198.085 242.488 198.4 242.563 198.72 242.563C199.039 242.563 199.354 242.488 199.639 242.344L221.355 229.792C221.467 229.756 221.566 229.686 221.635 229.59C221.705 229.495 221.742 229.379 221.742 229.261C221.742 229.143 221.705 229.028 221.635 228.933C221.566 228.837 221.467 228.766 221.355 228.73L199.639 216.178Z" fill="#DBDBE2"/>
<path opacity="0.22" d="M199.63 216.276C199.348 216.132 199.036 216.057 198.72 216.057C198.403 216.057 198.091 216.132 197.809 216.276L176.244 228.721C176.134 228.759 176.04 228.831 175.973 228.925C175.906 229.019 175.87 229.132 175.87 229.248C175.87 229.364 175.906 229.477 175.973 229.571C176.04 229.666 176.134 229.737 176.244 229.775L197.809 242.265C198.091 242.409 198.403 242.484 198.72 242.484C199.036 242.484 199.348 242.409 199.63 242.265L221.187 229.81C221.296 229.772 221.391 229.701 221.458 229.607C221.525 229.512 221.561 229.399 221.561 229.283C221.561 229.168 221.525 229.055 221.458 228.96C221.391 228.866 221.296 228.795 221.187 228.757L199.63 216.276Z" fill="#D7D7DE"/>
<path opacity="0.24" d="M199.622 216.373C199.346 216.239 199.044 216.17 198.737 216.17C198.431 216.17 198.129 216.239 197.853 216.373L176.447 228.766C176.337 228.801 176.24 228.871 176.172 228.965C176.104 229.059 176.067 229.172 176.067 229.288C176.067 229.404 176.104 229.517 176.172 229.611C176.24 229.705 176.337 229.775 176.447 229.81L197.853 242.203C198.128 242.341 198.43 242.413 198.737 242.413C199.044 242.413 199.347 242.341 199.622 242.203L221.01 229.81C221.12 229.775 221.217 229.705 221.285 229.611C221.353 229.517 221.39 229.404 221.39 229.288C221.39 229.172 221.353 229.059 221.285 228.965C221.217 228.871 221.12 228.801 221.01 228.766L199.622 216.373Z" fill="#D2D2DB"/>
<path opacity="0.27" d="M199.613 216.47C199.337 216.335 199.035 216.265 198.728 216.265C198.422 216.265 198.119 216.335 197.844 216.47L176.624 228.73C176.128 229.022 176.128 229.483 176.624 229.766L197.844 242.044C198.119 242.179 198.422 242.249 198.728 242.249C199.035 242.249 199.337 242.179 199.613 242.044L220.833 229.775C220.94 229.737 221.033 229.667 221.099 229.574C221.164 229.482 221.2 229.371 221.2 229.257C221.2 229.143 221.164 229.032 221.099 228.94C221.033 228.847 220.94 228.777 220.833 228.739L199.613 216.47Z" fill="#CECED7"/>
<path opacity="0.29" d="M199.613 216.594C199.338 216.458 199.035 216.387 198.729 216.387C198.422 216.387 198.119 216.458 197.844 216.594L176.774 228.766C176.666 228.801 176.572 228.87 176.505 228.962C176.438 229.054 176.402 229.165 176.402 229.279C176.402 229.393 176.438 229.504 176.505 229.596C176.572 229.689 176.666 229.757 176.774 229.793L197.844 241.973C198.119 242.109 198.422 242.18 198.729 242.18C199.035 242.18 199.338 242.109 199.613 241.973L220.665 229.801C220.774 229.766 220.868 229.698 220.935 229.605C221.002 229.513 221.038 229.402 221.038 229.288C221.038 229.174 221.002 229.063 220.935 228.971C220.868 228.879 220.774 228.81 220.665 228.775L199.613 216.594Z" fill="#C9C9D3"/>
<path opacity="0.32" d="M199.604 216.674C199.33 216.534 199.027 216.461 198.72 216.461C198.412 216.461 198.109 216.534 197.836 216.674L176.933 228.739C176.825 228.774 176.731 228.843 176.664 228.935C176.597 229.028 176.561 229.139 176.561 229.253C176.561 229.367 176.597 229.478 176.664 229.57C176.731 229.662 176.825 229.731 176.933 229.766L197.836 241.849C198.111 241.984 198.413 242.054 198.72 242.054C199.026 242.054 199.329 241.984 199.604 241.849L220.497 229.766C220.602 229.729 220.693 229.66 220.758 229.569C220.822 229.477 220.857 229.369 220.857 229.257C220.857 229.145 220.822 229.036 220.758 228.945C220.693 228.854 220.602 228.785 220.497 228.748L199.604 216.674Z" fill="#C5C5D0"/>
<path opacity="0.34" d="M199.595 216.771C199.322 216.629 199.019 216.554 198.711 216.554C198.403 216.554 198.1 216.629 197.827 216.771L177.084 228.748C176.977 228.783 176.885 228.851 176.82 228.941C176.754 229.032 176.719 229.141 176.719 229.253C176.719 229.364 176.754 229.473 176.82 229.564C176.885 229.655 176.977 229.722 177.084 229.757L197.827 241.743C198.1 241.885 198.403 241.96 198.711 241.96C199.019 241.96 199.322 241.885 199.595 241.743L220.321 229.766C220.426 229.729 220.517 229.66 220.581 229.569C220.645 229.478 220.68 229.369 220.68 229.257C220.68 229.145 220.645 229.037 220.581 228.945C220.517 228.854 220.426 228.785 220.321 228.748L199.595 216.771Z" fill="#C1C1CC"/>
<path opacity="0.37" d="M199.586 216.869C199.313 216.728 199.01 216.654 198.702 216.654C198.394 216.654 198.091 216.728 197.818 216.869L177.234 228.748C177.128 228.783 177.035 228.851 176.97 228.941C176.904 229.032 176.869 229.141 176.869 229.253C176.869 229.364 176.904 229.473 176.97 229.564C177.035 229.655 177.128 229.722 177.234 229.757L197.818 241.645C198.091 241.787 198.394 241.86 198.702 241.86C199.01 241.86 199.313 241.787 199.586 241.645L220.152 229.757C220.255 229.72 220.344 229.652 220.407 229.563C220.47 229.473 220.504 229.367 220.504 229.257C220.504 229.148 220.47 229.041 220.407 228.951C220.344 228.862 220.255 228.794 220.152 228.757L199.586 216.869Z" fill="#BCBCC8"/>
<path opacity="0.39" d="M199.577 216.966C199.304 216.824 199.001 216.749 198.693 216.749C198.385 216.749 198.082 216.824 197.809 216.966L177.402 228.757C177.298 228.791 177.207 228.858 177.143 228.947C177.079 229.036 177.044 229.143 177.044 229.253C177.044 229.362 177.079 229.469 177.143 229.558C177.207 229.647 177.298 229.714 177.402 229.748L197.809 241.548C198.082 241.691 198.385 241.765 198.693 241.765C199.001 241.765 199.304 241.691 199.577 241.548L219.984 229.757C220.087 229.72 220.177 229.653 220.24 229.563C220.303 229.473 220.336 229.367 220.336 229.257C220.336 229.148 220.303 229.041 220.24 228.951C220.177 228.862 220.087 228.794 219.984 228.757L199.577 216.966Z" fill="#B8B8C5"/>
<path opacity="0.41" d="M199.577 217.063C199.31 216.932 199.017 216.864 198.72 216.864C198.422 216.864 198.129 216.932 197.862 217.063L177.614 228.757C177.51 228.791 177.419 228.858 177.355 228.947C177.291 229.036 177.257 229.143 177.257 229.252C177.257 229.362 177.291 229.469 177.355 229.558C177.419 229.647 177.51 229.714 177.614 229.748L197.862 241.45C198.128 241.586 198.422 241.656 198.72 241.656C199.018 241.656 199.312 241.586 199.577 241.45L219.808 229.748C219.909 229.712 219.996 229.645 220.057 229.557C220.119 229.469 220.152 229.364 220.152 229.257C220.152 229.149 220.119 229.045 220.057 228.957C219.996 228.869 219.909 228.802 219.808 228.766L199.577 217.063Z" fill="#B3B3C1"/>
<path opacity="0.44" d="M199.569 217.17C199.306 217.035 199.015 216.964 198.72 216.964C198.424 216.964 198.133 217.035 197.871 217.17L177.791 228.766C177.689 228.8 177.6 228.865 177.538 228.953C177.475 229.04 177.441 229.145 177.441 229.253C177.441 229.36 177.475 229.465 177.538 229.552C177.6 229.64 177.689 229.705 177.791 229.739L197.871 241.38C198.135 241.511 198.425 241.579 198.72 241.579C199.014 241.579 199.305 241.511 199.569 241.38L219.675 229.748C219.776 229.712 219.863 229.645 219.925 229.557C219.987 229.469 220.02 229.364 220.02 229.257C220.02 229.15 219.987 229.045 219.925 228.957C219.863 228.869 219.776 228.802 219.675 228.766L199.569 217.17Z" fill="#AFAFBE"/>
<path opacity="0.46" d="M199.56 217.267C199.299 217.136 199.011 217.068 198.72 217.068C198.428 217.068 198.14 217.136 197.88 217.267L177.959 228.775C177.857 228.809 177.768 228.874 177.706 228.962C177.643 229.049 177.609 229.154 177.609 229.261C177.609 229.369 177.643 229.474 177.706 229.561C177.768 229.649 177.857 229.714 177.959 229.748L197.88 241.256C198.139 241.391 198.427 241.461 198.72 241.461C199.012 241.461 199.3 241.391 199.56 241.256L219.463 229.748C219.931 229.474 219.931 229.04 219.463 228.775L199.56 217.267Z" fill="#AAAABA"/>
<path opacity="0.49" d="M199.551 217.364C199.292 217.234 199.006 217.166 198.715 217.166C198.425 217.166 198.139 217.234 197.88 217.364L178.118 228.774C178.018 228.808 177.932 228.873 177.87 228.958C177.809 229.044 177.776 229.147 177.776 229.252C177.776 229.358 177.809 229.461 177.87 229.547C177.932 229.632 178.018 229.697 178.118 229.73L197.88 241.149C198.138 241.28 198.422 241.348 198.711 241.348C199 241.348 199.285 241.28 199.542 241.149L219.286 229.739C219.385 229.703 219.47 229.638 219.531 229.551C219.591 229.465 219.624 229.362 219.624 229.257C219.624 229.152 219.591 229.049 219.531 228.962C219.47 228.876 219.385 228.811 219.286 228.774L199.551 217.364Z" fill="#A6A6B6"/>
<path opacity="0.51" d="M199.542 217.479C199.286 217.349 199.003 217.281 198.715 217.281C198.428 217.281 198.145 217.349 197.889 217.479L178.304 228.792C178.204 228.826 178.117 228.89 178.056 228.976C177.994 229.062 177.961 229.165 177.961 229.27C177.961 229.376 177.994 229.479 178.056 229.564C178.117 229.65 178.204 229.714 178.304 229.748L197.889 241.07C198.145 241.2 198.428 241.268 198.715 241.268C199.003 241.268 199.286 241.2 199.542 241.07L219.127 229.757C219.227 229.723 219.314 229.659 219.375 229.573C219.437 229.487 219.47 229.385 219.47 229.279C219.47 229.173 219.437 229.071 219.375 228.985C219.314 228.899 219.227 228.835 219.127 228.801L199.542 217.479Z" fill="#A1A1B3"/>
<path opacity="0.54" d="M199.542 217.559C199.286 217.433 199.005 217.367 198.719 217.367C198.434 217.367 198.153 217.433 197.897 217.559L178.445 228.775C178.345 228.808 178.258 228.873 178.197 228.958C178.135 229.044 178.102 229.147 178.102 229.253C178.102 229.358 178.135 229.461 178.197 229.547C178.258 229.633 178.345 229.697 178.445 229.731L197.897 240.955C198.153 241.081 198.434 241.147 198.719 241.147C199.005 241.147 199.286 241.081 199.542 240.955L218.994 229.731C219.091 229.695 219.174 229.631 219.233 229.546C219.292 229.461 219.324 229.36 219.324 229.257C219.324 229.154 219.292 229.053 219.233 228.968C219.174 228.884 219.091 228.819 218.994 228.784L199.542 217.559Z" fill="#9D9DAF"/>
<path opacity="0.56" d="M199.533 217.665C199.282 217.535 199.003 217.467 198.72 217.467C198.437 217.467 198.158 217.535 197.906 217.665L178.649 228.783C178.551 228.817 178.466 228.88 178.406 228.964C178.346 229.048 178.313 229.149 178.313 229.252C178.313 229.356 178.346 229.457 178.406 229.541C178.466 229.625 178.551 229.688 178.649 229.722L197.906 240.857C198.159 240.984 198.437 241.05 198.72 241.05C199.002 241.05 199.281 240.984 199.533 240.857L218.791 229.73C218.889 229.697 218.973 229.634 219.034 229.55C219.094 229.466 219.126 229.365 219.126 229.261C219.126 229.158 219.094 229.057 219.034 228.973C218.973 228.889 218.889 228.826 218.791 228.792L199.533 217.665Z" fill="#9898AB"/>
<path opacity="0.59" d="M199.524 217.763C199.275 217.635 198.999 217.569 198.72 217.569C198.44 217.569 198.164 217.635 197.915 217.763L178.816 228.783C178.719 228.817 178.634 228.88 178.574 228.964C178.514 229.048 178.481 229.149 178.481 229.252C178.481 229.356 178.514 229.457 178.574 229.541C178.634 229.625 178.719 229.688 178.816 229.722L197.915 240.751C198.164 240.878 198.44 240.945 198.72 240.945C198.999 240.945 199.275 240.878 199.524 240.751L218.605 229.722C218.704 229.691 218.79 229.629 218.852 229.545C218.913 229.462 218.946 229.361 218.946 229.257C218.946 229.153 218.913 229.052 218.852 228.968C218.79 228.885 218.704 228.823 218.605 228.792L199.524 217.763Z" fill="#9494A8"/>
<path opacity="0.61" d="M199.515 217.86C199.267 217.734 198.993 217.668 198.715 217.668C198.437 217.668 198.163 217.734 197.915 217.86L179.002 228.792C178.918 228.831 178.846 228.893 178.796 228.972C178.745 229.05 178.719 229.141 178.719 229.235C178.719 229.328 178.745 229.419 178.796 229.498C178.846 229.576 178.918 229.638 179.002 229.677L197.933 240.618C198.181 240.744 198.455 240.81 198.733 240.81C199.011 240.81 199.285 240.744 199.533 240.618L218.455 229.686C218.554 229.655 218.64 229.593 218.702 229.51C218.763 229.426 218.796 229.325 218.796 229.221C218.796 229.118 218.763 229.017 218.702 228.933C218.64 228.849 218.554 228.788 218.455 228.757L199.515 217.86Z" fill="#8F8FA4"/>
<path opacity="0.63" d="M199.507 217.957C199.261 217.834 198.99 217.77 198.715 217.77C198.441 217.77 198.17 217.834 197.924 217.957L179.161 228.792C179.077 228.831 179.005 228.893 178.955 228.972C178.904 229.05 178.878 229.142 178.878 229.235C178.878 229.328 178.904 229.419 178.955 229.498C179.005 229.576 179.077 229.639 179.161 229.677L197.924 240.521C198.17 240.644 198.441 240.708 198.715 240.708C198.99 240.708 199.261 240.644 199.507 240.521L218.269 229.677C218.357 229.641 218.432 229.58 218.485 229.501C218.538 229.423 218.566 229.33 218.566 229.235C218.566 229.14 218.538 229.047 218.485 228.968C218.432 228.889 218.357 228.828 218.269 228.792L199.507 217.957Z" fill="#8B8BA1"/>
<path opacity="0.66" d="M199.507 218.055C199.262 217.933 198.993 217.87 198.72 217.87C198.447 217.87 198.177 217.933 197.933 218.055L179.365 228.801C179.277 228.837 179.202 228.898 179.149 228.977C179.096 229.056 179.068 229.149 179.068 229.244C179.068 229.339 179.096 229.431 179.149 229.51C179.202 229.589 179.277 229.65 179.365 229.686L197.933 240.441C198.177 240.563 198.447 240.626 198.72 240.626C198.993 240.626 199.262 240.563 199.507 240.441L218.075 229.695C218.508 229.447 218.508 229.04 218.075 228.81L199.507 218.055Z" fill="#86869D"/>
<path opacity="0.68" d="M199.498 218.161C199.255 218.042 198.989 217.981 198.72 217.981C198.45 217.981 198.184 218.042 197.941 218.161L179.506 228.783C179.418 228.819 179.343 228.881 179.29 228.959C179.237 229.038 179.209 229.131 179.209 229.226C179.209 229.321 179.237 229.414 179.29 229.493C179.343 229.572 179.418 229.633 179.506 229.669L197.941 240.291C198.184 240.41 198.45 240.472 198.72 240.472C198.989 240.472 199.255 240.41 199.498 240.291L217.924 229.669C218.016 229.636 218.095 229.577 218.151 229.497C218.207 229.418 218.237 229.323 218.237 229.226C218.237 229.129 218.207 229.034 218.151 228.955C218.095 228.876 218.016 228.816 217.924 228.783L199.498 218.161Z" fill="#828299"/>
<path opacity="0.71" d="M199.489 218.259C199.251 218.137 198.987 218.073 198.72 218.073C198.452 218.073 198.189 218.137 197.95 218.259L179.674 228.81C179.583 228.842 179.503 228.902 179.447 228.981C179.391 229.061 179.361 229.156 179.361 229.253C179.361 229.35 179.391 229.445 179.447 229.524C179.503 229.603 179.583 229.663 179.674 229.695L197.95 240.256C198.189 240.378 198.452 240.441 198.72 240.441C198.987 240.441 199.251 240.378 199.489 240.256L217.748 229.704C217.839 229.672 217.918 229.612 217.974 229.533C218.031 229.453 218.061 229.359 218.061 229.262C218.061 229.164 218.031 229.07 217.974 228.99C217.918 228.911 217.839 228.851 217.748 228.819L199.489 218.259Z" fill="#7E7E96"/>
<path opacity="0.73" d="M199.48 218.365C199.243 218.245 198.981 218.182 198.715 218.182C198.449 218.182 198.187 218.245 197.95 218.365L179.886 228.81C179.795 228.842 179.715 228.902 179.659 228.981C179.603 229.061 179.573 229.155 179.573 229.252C179.573 229.35 179.603 229.444 179.659 229.524C179.715 229.603 179.795 229.663 179.886 229.695L197.994 240.158C198.231 240.28 198.493 240.344 198.759 240.344C199.025 240.344 199.288 240.28 199.524 240.158L217.623 229.704C218.048 229.456 218.048 229.058 217.623 228.819L199.48 218.365Z" fill="#797992"/>
<path opacity="0.76" d="M199.471 218.453C199.237 218.336 198.978 218.275 198.715 218.275C198.453 218.275 198.194 218.336 197.959 218.453L180.019 228.819C179.923 228.846 179.838 228.905 179.778 228.984C179.718 229.064 179.686 229.162 179.686 229.262C179.686 229.362 179.718 229.459 179.778 229.539C179.838 229.619 179.923 229.677 180.019 229.704L197.959 240.079C198.194 240.196 198.453 240.257 198.715 240.257C198.978 240.257 199.237 240.196 199.471 240.079L217.411 229.713C217.508 229.686 217.592 229.627 217.652 229.548C217.712 229.468 217.745 229.37 217.745 229.27C217.745 229.17 217.712 229.073 217.652 228.993C217.592 228.913 217.508 228.855 217.411 228.828L199.471 218.453Z" fill="#75758E"/>
<path opacity="0.78" d="M199.471 218.551C199.238 218.433 198.981 218.372 198.72 218.372C198.459 218.372 198.201 218.433 197.968 218.551L180.187 228.819C180.091 228.846 180.006 228.904 179.946 228.984C179.886 229.064 179.854 229.161 179.854 229.261C179.854 229.362 179.886 229.459 179.946 229.539C180.006 229.619 180.091 229.677 180.187 229.704L197.968 239.981C198.201 240.099 198.459 240.16 198.72 240.16C198.981 240.16 199.238 240.099 199.471 239.981L217.235 229.713C217.331 229.685 217.415 229.627 217.475 229.548C217.536 229.468 217.568 229.37 217.568 229.27C217.568 229.17 217.536 229.073 217.475 228.993C217.415 228.913 217.331 228.855 217.235 228.828L199.471 218.551Z" fill="#70708B"/>
<path opacity="0.8" d="M199.462 218.657C199.233 218.539 198.978 218.477 198.72 218.477C198.461 218.477 198.207 218.539 197.977 218.657L180.364 228.828C179.948 229.058 179.948 229.447 180.364 229.713L197.977 239.892C198.208 240.006 198.462 240.065 198.72 240.065C198.977 240.065 199.231 240.006 199.462 239.892L217.067 229.713C217.169 229.692 217.261 229.637 217.327 229.556C217.393 229.476 217.429 229.374 217.429 229.27C217.429 229.166 217.393 229.065 217.327 228.984C217.261 228.903 217.169 228.848 217.067 228.828L199.462 218.657Z" fill="#6C6C87"/>
<path opacity="0.83" d="M199.453 218.754C199.225 218.636 198.972 218.574 198.715 218.574C198.458 218.574 198.205 218.636 197.977 218.754L180.532 228.828C180.43 228.848 180.338 228.903 180.272 228.984C180.206 229.065 180.17 229.166 180.17 229.27C180.17 229.374 180.206 229.475 180.272 229.556C180.338 229.637 180.43 229.692 180.532 229.713L197.977 239.795C198.205 239.913 198.458 239.975 198.715 239.975C198.972 239.975 199.225 239.913 199.453 239.795L216.89 229.722C217.296 229.483 217.296 229.102 216.89 228.836L199.453 218.754Z" fill="#676783"/>
<path opacity="0.85" d="M199.445 218.851C199.218 218.738 198.968 218.679 198.715 218.679C198.462 218.679 198.212 218.738 197.986 218.851L180.709 228.828C180.302 229.067 180.302 229.438 180.709 229.713L197.995 239.698C198.221 239.811 198.471 239.871 198.724 239.871C198.977 239.871 199.227 239.811 199.453 239.698L216.731 229.713C216.819 229.684 216.896 229.627 216.951 229.552C217.005 229.476 217.035 229.386 217.035 229.292C217.035 229.199 217.005 229.108 216.951 229.033C216.896 228.957 216.819 228.901 216.731 228.872L199.445 218.851Z" fill="#636380"/>
<path opacity="0.88" d="M199.444 218.949C199.22 218.835 198.971 218.776 198.719 218.776C198.468 218.776 198.219 218.835 197.994 218.949L180.876 228.837C180.791 228.868 180.717 228.924 180.665 228.999C180.613 229.073 180.585 229.162 180.585 229.253C180.585 229.344 180.613 229.432 180.665 229.507C180.717 229.581 180.791 229.638 180.876 229.669L197.994 239.609C198.219 239.723 198.468 239.782 198.719 239.782C198.971 239.782 199.22 239.723 199.444 239.609L216.554 229.722C216.642 229.693 216.719 229.636 216.774 229.561C216.828 229.485 216.858 229.395 216.858 229.301C216.858 229.208 216.828 229.117 216.774 229.042C216.719 228.966 216.642 228.91 216.554 228.881L199.444 218.949Z" fill="#5E5E7C"/>
<path opacity="0.9" d="M199.436 219.046C199.213 218.937 198.968 218.88 198.72 218.88C198.471 218.88 198.226 218.937 198.003 219.046L181.045 228.837C180.959 228.868 180.886 228.924 180.833 228.999C180.781 229.073 180.753 229.162 180.753 229.253C180.753 229.343 180.781 229.432 180.833 229.507C180.886 229.581 180.959 229.638 181.045 229.669L198.003 239.468C198.225 239.581 198.471 239.64 198.72 239.64C198.969 239.64 199.214 239.581 199.436 239.468L216.377 229.669C216.775 229.447 216.775 229.076 216.377 228.845L199.436 219.046Z" fill="#5A5A79"/>
<path opacity="0.93" d="M199.427 219.152C199.208 219.039 198.966 218.98 198.72 218.98C198.474 218.98 198.231 219.039 198.012 219.152L181.213 228.845C181.129 228.876 181.058 228.931 181.007 229.004C180.956 229.077 180.929 229.164 180.929 229.252C180.929 229.341 180.956 229.428 181.007 229.501C181.058 229.574 181.129 229.629 181.213 229.66L198.012 239.397C198.232 239.506 198.474 239.563 198.72 239.563C198.965 239.563 199.207 239.506 199.427 239.397L216.227 229.66C216.313 229.631 216.388 229.576 216.441 229.502C216.495 229.428 216.523 229.339 216.523 229.248C216.523 229.157 216.495 229.068 216.441 228.994C216.388 228.92 216.313 228.865 216.227 228.836L199.427 219.152Z" fill="#555575"/>
<path opacity="0.95" d="M199.418 219.25C199.2 219.141 198.959 219.084 198.715 219.084C198.471 219.084 198.231 219.141 198.012 219.25L181.389 228.845C181.306 228.876 181.234 228.931 181.183 229.004C181.133 229.077 181.105 229.164 181.105 229.253C181.105 229.341 181.133 229.428 181.183 229.501C181.234 229.574 181.306 229.629 181.389 229.66L198.012 239.264C198.229 239.377 198.47 239.436 198.715 239.436C198.96 239.436 199.201 239.377 199.418 239.264L216.032 229.66C216.116 229.631 216.19 229.577 216.241 229.505C216.293 229.433 216.321 229.346 216.321 229.257C216.321 229.168 216.293 229.081 216.241 229.009C216.19 228.937 216.116 228.883 216.032 228.854L199.418 219.25Z" fill="#515171"/>
<path opacity="0.98" d="M199.409 219.347C199.194 219.239 198.956 219.182 198.715 219.182C198.474 219.182 198.236 219.239 198.021 219.347L181.566 228.854C181.177 229.076 181.177 229.43 181.566 229.651L198.021 239.167C198.236 239.276 198.474 239.332 198.715 239.332C198.956 239.332 199.194 239.276 199.409 239.167L215.864 229.66C215.948 229.632 216.021 229.577 216.073 229.505C216.125 229.433 216.153 229.346 216.153 229.257C216.153 229.168 216.125 229.081 216.073 229.009C216.021 228.937 215.948 228.883 215.864 228.854L199.409 219.347Z" fill="#4C4C6E"/>
<path opacity="0.52" d="M199.409 219.445C199.196 219.336 198.959 219.279 198.72 219.279C198.48 219.279 198.244 219.336 198.03 219.445L181.734 228.854C181.653 228.884 181.583 228.939 181.533 229.01C181.484 229.081 181.458 229.166 181.458 229.253C181.458 229.339 181.484 229.424 181.533 229.495C181.583 229.566 181.653 229.621 181.734 229.651L198.03 239.069C198.244 239.178 198.48 239.235 198.72 239.235C198.959 239.235 199.196 239.178 199.409 239.069L215.696 229.66C215.777 229.63 215.847 229.575 215.897 229.504C215.946 229.433 215.973 229.348 215.973 229.261C215.973 229.175 215.946 229.09 215.897 229.019C215.847 228.948 215.777 228.893 215.696 228.863L199.409 219.445Z" fill="#48486A"/>
</g>
<path d="M217.341 208.061H180.205V229.032C180.213 229.124 180.246 229.212 180.301 229.287C180.355 229.362 180.429 229.42 180.514 229.457L198.021 239.61C198.251 239.728 198.505 239.789 198.764 239.789C199.022 239.789 199.277 239.728 199.506 239.61L217.022 229.465C217.107 229.426 217.18 229.365 217.234 229.289C217.288 229.213 217.322 229.125 217.332 229.032L217.341 208.061Z" fill="url(#paint7_linear_4219_1410)"/>
<path d="M217.022 214.213L199.498 224.349C199.266 224.462 199.012 224.521 198.755 224.521C198.497 224.521 198.243 224.462 198.012 224.349L180.487 214.205C180.404 214.169 180.331 214.112 180.276 214.039C180.222 213.965 180.188 213.879 180.178 213.789V216.692C180.187 216.784 180.221 216.872 180.275 216.946C180.33 217.021 180.403 217.08 180.487 217.117L198.021 227.217C198.251 227.335 198.505 227.397 198.764 227.397C199.022 227.397 199.277 227.335 199.506 227.217L217.022 217.117C217.107 217.081 217.181 217.022 217.235 216.947C217.29 216.872 217.323 216.784 217.332 216.692V213.789C217.322 213.88 217.289 213.968 217.234 214.043C217.18 214.117 217.107 214.176 217.022 214.213Z" fill="url(#paint8_linear_4219_1410)"/>
<path d="M217.022 221.994L199.498 232.13C199.267 232.243 199.013 232.302 198.755 232.302C198.498 232.302 198.244 232.243 198.012 232.13L180.479 221.985C180.395 221.95 180.322 221.892 180.268 221.819C180.213 221.746 180.179 221.66 180.169 221.569V224.473C180.178 224.565 180.211 224.653 180.266 224.728C180.32 224.803 180.394 224.861 180.479 224.898L198.012 235.033C198.242 235.151 198.497 235.213 198.755 235.213C199.013 235.213 199.268 235.151 199.498 235.033L217.022 224.907C217.107 224.867 217.18 224.807 217.234 224.731C217.289 224.654 217.322 224.566 217.332 224.473V221.569C217.323 221.661 217.289 221.749 217.235 221.824C217.18 221.898 217.107 221.957 217.022 221.994Z" fill="url(#paint9_linear_4219_1410)"/>
<path d="M199.507 197.501C199.277 197.383 199.022 197.321 198.764 197.321C198.506 197.321 198.251 197.383 198.021 197.501L180.488 207.628C180.37 207.628 180.258 207.674 180.175 207.757C180.092 207.84 180.046 207.953 180.046 208.07C180.046 208.188 180.092 208.3 180.175 208.383C180.258 208.466 180.37 208.513 180.488 208.513L198.021 218.657C198.252 218.77 198.507 218.829 198.764 218.829C199.021 218.829 199.275 218.77 199.507 218.657L217.023 208.486C217.125 208.466 217.217 208.41 217.283 208.33C217.349 208.249 217.385 208.148 217.385 208.044C217.385 207.939 217.349 207.838 217.283 207.758C217.217 207.677 217.125 207.622 217.023 207.601L199.507 197.501Z" fill="#F6F8FB"/>
<path d="M190.992 203.37C195.262 200.9 202.248 200.9 206.527 203.37C210.807 205.84 210.798 209.876 206.527 212.346C202.256 214.815 195.262 214.815 190.992 212.346C186.721 209.876 186.721 205.84 190.992 203.37Z" fill="url(#paint10_radial_4219_1410)" style="mix-blend-mode:multiply"/>
<path d="M212.045 195.412C212.045 195.076 211.585 194.81 211.019 194.81H208.808C208.446 194.81 207.845 195.191 207.747 195.076C207.65 194.961 207.65 194.66 207.915 194.509L209.472 193.624C209.869 193.385 207.314 193.5 206.907 193.261V191.323C206.681 191.205 206.429 191.143 206.174 191.143C205.918 191.143 205.666 191.205 205.44 191.323L203.875 192.208C203.585 192.355 203.252 192.393 202.937 192.314L202.257 192.155C201.929 192.075 201.717 191.898 201.717 191.694V190.411C201.717 190.083 201.257 189.818 200.692 189.818H197.093C196.527 189.818 196.067 190.083 196.067 190.411V191.686C196.067 191.889 195.828 192.075 195.492 192.146C195.157 192.217 195.059 192.243 194.847 192.305C194.522 192.391 194.176 192.356 193.874 192.208L192.309 191.323C192.083 191.209 191.833 191.15 191.58 191.15C191.327 191.15 191.077 191.209 190.85 191.323L190.665 193.438C190.258 193.677 187.915 193.438 188.322 193.633L189.896 194.518C190.143 194.66 190.214 194.872 190.081 195.058C189.949 195.244 189.365 194.81 189.011 194.81H186.783C186.217 194.81 185.758 195.076 185.758 195.403V198.431C185.758 198.758 186.226 199.024 186.792 199.024H188.083V201.52C188.074 201.564 188.074 201.609 188.083 201.653C188.101 201.732 188.136 201.805 188.187 201.868C188.238 201.931 188.302 201.981 188.375 202.016L190.921 203.467C191.192 203.612 191.501 203.668 191.805 203.627C191.994 203.608 192.176 203.553 192.345 203.467L193.91 202.582C194.199 202.435 194.532 202.397 194.847 202.476L195.519 202.635C195.846 202.706 196.067 202.892 196.067 203.087V204.37C196.067 204.698 196.527 204.963 197.102 204.963H200.692C201.257 204.963 201.726 204.698 201.717 204.37V203.096C201.717 202.883 201.956 202.706 202.292 202.635L202.902 202.485C203.23 202.393 203.58 202.428 203.883 202.582L205.44 203.467C205.607 203.556 205.791 203.607 205.979 203.618C206.282 203.66 206.591 203.607 206.863 203.467L209.401 201.998C209.47 201.966 209.532 201.919 209.582 201.861C209.633 201.803 209.67 201.735 209.693 201.662V201.547V198.997H210.966C211.541 198.997 212 198.732 212 198.404L212.045 195.412ZM203.928 197.926C203.326 199.759 200.037 200.794 197.084 200.13C194.838 199.635 193.468 198.236 193.91 196.873C194.511 195.04 197.8 194.014 200.753 194.669C202.999 195.164 204.37 196.563 203.928 197.926Z" fill="#48486A"/>
<path d="M209.781 191.969V190.349H207.456L206.943 190.048C206.715 189.934 206.464 189.875 206.209 189.875C205.954 189.875 205.703 189.934 205.475 190.048L204.962 190.349H201.752V189.154C201.752 188.826 201.293 188.561 200.727 188.561H197.128C196.562 188.561 196.103 188.826 196.103 189.154V190.34H192.84L192.345 190.057C192.119 189.941 191.869 189.881 191.615 189.881C191.362 189.881 191.112 189.941 190.886 190.057L190.399 190.34H188.056V191.925C188.06 192.019 188.09 192.111 188.143 192.189C188.196 192.267 188.27 192.329 188.357 192.367L189.931 193.252H207.924L209.48 192.367C209.557 192.334 209.624 192.281 209.675 192.214C209.726 192.148 209.76 192.069 209.772 191.987L209.781 191.969Z" fill="#48486A"/>
<path d="M208.181 196.165H210.992C211.567 196.165 212.027 195.899 212.027 195.571V193.5C212.027 193.173 211.567 192.907 211.001 192.907H208.791C208.641 192.918 208.49 192.894 208.35 192.837C208.211 192.78 208.086 192.692 207.986 192.579C207.907 192.464 207.827 192.34 207.73 192.225C207.632 192.11 207.632 191.809 207.898 191.668L209.454 190.783C209.542 190.753 209.619 190.697 209.674 190.622C209.729 190.546 209.758 190.455 209.758 190.362C209.758 190.269 209.729 190.178 209.674 190.103C209.619 190.027 209.542 189.971 209.454 189.942L206.916 188.481C206.688 188.367 206.437 188.308 206.182 188.308C205.928 188.308 205.676 188.367 205.448 188.481L203.883 189.366C203.594 189.514 203.261 189.552 202.946 189.472L202.265 189.313C201.938 189.242 201.726 189.056 201.726 188.853V187.578C201.726 187.251 201.266 186.976 200.7 186.976H197.102C196.536 186.976 196.076 187.251 196.076 187.578V188.844C196.076 189.056 195.837 189.233 195.501 189.313L194.856 189.464C194.532 189.552 194.186 189.521 193.883 189.375L192.318 188.49C192.092 188.374 191.842 188.314 191.589 188.314C191.335 188.314 191.085 188.374 190.859 188.49L188.322 189.95C188.233 189.98 188.156 190.036 188.102 190.111C188.047 190.187 188.018 190.278 188.018 190.371C188.018 190.464 188.047 190.555 188.102 190.631C188.156 190.706 188.233 190.762 188.322 190.791L189.896 191.677C190.143 191.818 190.214 192.031 190.081 192.217L189.807 192.606C189.706 192.715 189.583 192.8 189.445 192.855C189.308 192.91 189.159 192.934 189.011 192.925H186.783C186.217 192.925 185.758 193.19 185.758 193.518V195.589C185.758 195.917 186.226 196.182 186.792 196.182H188.994C189.146 196.169 189.298 196.191 189.44 196.248C189.581 196.305 189.707 196.395 189.807 196.51C189.884 196.632 189.966 196.75 190.055 196.864C190.214 197.05 190.161 197.271 189.896 197.421L188.339 198.307C188.251 198.336 188.174 198.392 188.119 198.468C188.065 198.543 188.035 198.634 188.035 198.727C188.035 198.82 188.065 198.911 188.119 198.987C188.174 199.062 188.251 199.119 188.339 199.148L190.886 200.608C191.112 200.722 191.362 200.781 191.615 200.781C191.869 200.781 192.118 200.722 192.345 200.608L193.91 199.723C194.2 199.58 194.532 199.542 194.847 199.617C195.068 199.679 195.316 199.732 195.519 199.776C195.722 199.82 196.067 200.033 196.067 200.236V201.546C196.067 201.874 196.527 202.14 197.102 202.14H200.692C201.257 202.14 201.726 201.874 201.717 201.546V200.281C201.717 200.068 201.956 199.882 202.292 199.812L202.902 199.67C203.229 199.576 203.579 199.607 203.883 199.758L205.44 200.644C205.666 200.757 205.916 200.816 206.169 200.816C206.422 200.816 206.672 200.757 206.899 200.644L209.436 199.183C209.843 198.944 209.843 198.572 209.436 198.342L207.862 197.457C207.615 197.315 207.544 197.094 207.685 196.917C207.96 196.563 208.181 196.235 208.181 196.165ZM193.883 194.013C194.485 192.19 197.774 191.154 200.727 191.809C202.973 192.314 204.343 193.713 203.901 195.076C203.3 196.899 200.011 197.935 197.058 197.28C194.838 196.775 193.468 195.35 193.91 194.013H193.883Z" fill="url(#paint11_linear_4219_1410)"/>
<defs>
<linearGradient id="paint0_linear_4219_1410" x1="133.833" y1="133.568" x2="76.5977" y2="133.568" gradientUnits="userSpaceOnUse">
<stop stop-color="#D3DAED"/>
<stop offset="1" stop-color="#99A7D8"/>
</linearGradient>
<linearGradient id="paint1_linear_4219_1410" x1="111.367" y1="114.891" x2="104.087" y2="153.253" gradientUnits="userSpaceOnUse">
<stop offset="0.1321" stop-color="#00A373"/>
<stop offset="1" stop-color="#1ABBC0"/>
</linearGradient>
<linearGradient id="paint2_linear_4219_1410" x1="169.187" y1="131.993" x2="175.079" y2="184.294" gradientUnits="userSpaceOnUse">
<stop stop-color="#A97EFF"/>
<stop offset="0.9985" stop-color="#835ED0"/>
</linearGradient>
<linearGradient id="paint3_linear_4219_1410" x1="153.753" y1="133.676" x2="162.582" y2="214.02" gradientUnits="userSpaceOnUse">
<stop stop-color="#A97EFF"/>
<stop offset="0.9985" stop-color="#835ED0"/>
</linearGradient>
<linearGradient id="paint4_linear_4219_1410" x1="128.958" y1="119.368" x2="130.282" y2="156.245" gradientUnits="userSpaceOnUse">
<stop stop-color="#A97EFF"/>
<stop offset="0.9985" stop-color="#835ED0"/>
</linearGradient>
<radialGradient id="paint5_radial_4219_1410" cx="0" cy="0" r="1" gradientUnits="userSpaceOnUse" gradientTransform="translate(105.068 271.279) rotate(180) scale(14.6002 8.4676)">
<stop offset="0.27" stop-color="#48486A"/>
<stop offset="0.32" stop-color="#62627F"/>
<stop offset="0.44" stop-color="#9292A6"/>
<stop offset="0.56" stop-color="#B9B9C6"/>
<stop offset="0.68" stop-color="#D8D8DF"/>
<stop offset="0.79" stop-color="#EDEDF1"/>
<stop offset="0.9" stop-color="#FBFBFB"/>
<stop offset="1" stop-color="white"/>
</radialGradient>
<linearGradient id="paint6_linear_4219_1410" x1="116.735" y1="257.637" x2="93.4034" y2="257.637" gradientUnits="userSpaceOnUse">
<stop stop-color="#99A7D8"/>
<stop offset="1" stop-color="#D3DAED"/>
</linearGradient>
<linearGradient id="paint7_linear_4219_1410" x1="180.178" y1="223.915" x2="217.341" y2="223.915" gradientUnits="userSpaceOnUse">
<stop stop-color="#F2F4FA"/>
<stop offset="0.92" stop-color="#D6DCEE"/>
<stop offset="1" stop-color="#D3DAED"/>
</linearGradient>
<linearGradient id="paint8_linear_4219_1410" x1="180.178" y1="220.605" x2="217.341" y2="220.605" gradientUnits="userSpaceOnUse">
<stop stop-color="#5C629E"/>
<stop offset="1" stop-color="#48486A"/>
</linearGradient>
<linearGradient id="paint9_linear_4219_1410" x1="7587.78" y1="5123.9" x2="9149.72" y2="5123.9" gradientUnits="userSpaceOnUse">
<stop stop-color="#5C629E"/>
<stop offset="1" stop-color="#48486A"/>
</linearGradient>
<radialGradient id="paint10_radial_4219_1410" cx="0" cy="0" r="1" gradientUnits="userSpaceOnUse" gradientTransform="translate(198.755 227.845) scale(11.0877 5.77214)">
<stop offset="0.15" stop-color="#9A9EC3"/>
<stop offset="0.2" stop-color="#A2A6C8"/>
<stop offset="0.44" stop-color="#CACCE0"/>
<stop offset="0.67" stop-color="#E7E8F1"/>
<stop offset="0.86" stop-color="#F9F9FB"/>
<stop offset="1" stop-color="white"/>
</radialGradient>
<linearGradient id="paint11_linear_4219_1410" x1="3442.63" y1="650.67" x2="5816.32" y2="650.67" gradientUnits="userSpaceOnUse">
<stop stop-color="#000071"/>
<stop offset="1" stop-color="#1D4CB9"/>
</linearGradient>
</defs>
</svg>
