<svg width="294" height="325" viewBox="0 0 294 325" fill="none" xmlns="http://www.w3.org/2000/svg">
<path opacity="0.5" d="M152.084 1.2952C125.266 -4.9664 104.418 12.9619 85.0843 23.2952C65.751 33.6285 20.4177 50.2952 20.0844 78.2952C19.751 106.295 15.0844 180.295 15.0844 180.295C15.0844 180.295 -9.47907 225.619 4.08433 249.295C14.8715 268.126 34.3 264.859 52.0843 277.295C74.9954 293.317 78.3708 320.612 106.084 324.295C128.611 327.289 161.084 305.295 161.084 305.295L212.084 268.295C212.084 268.295 260.679 263.484 279.084 242.295C299.841 218.399 292.084 162.295 292.084 162.295C292.084 162.295 277.463 114.613 258.084 90.2952C239.916 67.4953 224.084 74.2952 200.084 43.2952C176.084 12.2952 176.34 6.95845 152.084 1.2952Z" fill="#EBEBF7"/>
<path d="M194.619 199.356L252.084 166.246V165.469L169.38 120.789L125.908 159.49L194.619 199.356Z" fill="#7D81B1"/>
<path d="M194.619 198.579L252.084 165.469L169.38 120.012L125.908 158.713L194.619 198.579Z" fill="#48486A"/>
<path d="M192.305 197.801L249.748 164.691L250.138 154.158L167.066 118.458L123.594 157.158L192.305 197.801Z" fill="#F1F2F2"/>
<path d="M157.667 102.23C159.202 101.346 161.091 101.339 162.632 102.214L251.745 152.8C251.955 152.919 252.084 153.142 252.084 153.383C252.084 153.622 251.957 153.843 251.749 153.963L197.116 185.441C195.571 186.332 193.668 186.332 192.123 185.441L110.219 138.244C106.881 136.32 106.881 131.504 110.218 129.58L157.667 102.23Z" fill="url(#paint0_linear_4219_1293)"/>
<path d="M160.145 100.025L252.084 152.993L194.62 186.103L102.702 133.135L160.145 100.025Z" fill="url(#paint1_linear_4219_1293)"/>
<path d="M172.126 112.415L197.95 127.243L151.731 153.856L125.908 139.028L172.126 112.415Z" fill="white"/>
<path d="M103.48 133.524V146.41L194.619 199.355L195.398 198.902V186.491L103.48 133.524Z" fill="#7D81B1"/>
<path d="M102.702 133.135V146.021L194.62 199.355V186.103L102.702 133.135Z" fill="url(#paint2_linear_4219_1293)"/>
<path d="M199.912 170.944L248.164 143.144V142.496L178.696 104.962L142.188 137.467L199.912 170.944Z" fill="#E5E9F4"/>
<path d="M199.912 170.296L248.164 142.496L178.696 104.313L142.188 136.819L199.912 170.296Z" fill="#9EA4B2"/>
<path d="M197.945 169.649L246.196 141.849L246.542 132.999L176.75 103.019L140.242 135.525L197.945 169.649Z" fill="white"/>
<path d="M170.953 88.1902L248.164 132.028V132.675L199.913 160.475L122.702 115.99L170.953 88.1902Z" fill="#E5E9F4"/>
<path d="M170.953 87.5429L248.164 132.028L199.913 159.828L122.702 115.343L170.953 87.5429Z" fill="#CEA6DC"/>
<path d="M181.01 97.925L202.703 110.379L163.881 132.762L142.188 120.308L181.01 97.925Z" fill="white"/>
<path d="M123.351 115.667V126.481L199.913 170.944L200.562 170.577V160.152L123.351 115.667Z" fill="#E5E9F4"/>
<path d="M122.702 115.343V126.156L199.913 170.944V159.828L122.702 115.343Z" fill="#CEA6DC"/>
<path opacity="0.59" d="M161.931 241.779C151.432 235.767 151.432 225.919 161.931 219.907C172.43 213.895 189.565 213.895 200.007 219.907C210.449 225.919 210.449 235.767 200.007 241.779C189.565 247.791 172.43 247.81 161.931 241.779Z" fill="url(#paint3_radial_4219_1293)" style="mix-blend-mode:multiply"/>
<path d="M198.229 226.931C201.364 224.829 203.932 221.988 205.704 218.658C207.475 215.329 208.396 211.615 208.384 207.845V201.108C208.38 200.174 208.131 199.256 207.661 198.448C207.192 197.639 206.518 196.968 205.707 196.501C204.896 196.033 203.977 195.786 203.04 195.784C202.104 195.782 201.184 196.025 200.371 196.489L195.59 199.238L198.095 203.551L202.876 200.803C202.924 200.762 202.985 200.74 203.048 200.74C203.111 200.74 203.172 200.762 203.22 200.803C203.275 200.832 203.321 200.876 203.351 200.93C203.382 200.984 203.396 201.046 203.392 201.108V207.845C203.396 210.786 202.675 213.683 201.29 216.28C199.906 218.876 197.902 221.092 195.456 222.732L198.229 226.931Z" fill="#1C1C7D"/>
<path d="M163.557 195.63H198.344V228.973C198.344 231.473 196.584 233.973 193.295 235.863C189.617 237.814 185.507 238.811 181.342 238.764H180.596C176.439 238.798 172.338 237.802 168.663 235.863C165.221 233.954 163.538 231.282 163.576 228.687L163.557 195.63Z" fill="url(#paint4_linear_4219_1293)"/>
<path d="M168.644 202.692C161.855 198.875 161.855 192.443 168.644 188.55C172.465 186.63 176.683 185.63 180.96 185.63C185.238 185.63 189.456 186.63 193.276 188.55C200.027 192.367 200.027 198.799 193.276 202.692C189.456 204.612 185.238 205.612 180.96 205.612C176.683 205.612 172.465 204.612 168.644 202.692Z" fill="#99A7D8"/>
<path d="M169.715 202.081C163.499 198.531 163.499 192.71 169.715 189.16C173.2 187.396 177.052 186.477 180.96 186.477C184.867 186.477 188.72 187.396 192.205 189.16C198.382 192.71 198.382 198.531 192.205 202.081C188.72 203.845 184.867 204.764 180.96 204.764C177.052 204.764 173.2 203.845 169.715 202.081Z" fill="url(#paint5_linear_4219_1293)"/>
<path d="M170.709 202.749C164.972 200.096 164.972 195.745 170.709 193.092C177.294 190.421 184.663 190.421 191.248 193.092C196.871 195.745 196.871 200.096 191.248 202.749C184.663 205.421 177.294 205.421 170.709 202.749Z" fill="url(#paint6_linear_4219_1293)"/>
<path opacity="0.3" d="M166.693 199.104C167.67 197.78 169.098 196.857 170.709 196.509C177.424 194.619 184.532 194.619 191.248 196.509C192.852 196.861 194.272 197.784 195.245 199.104C194.43 200.785 192.999 202.09 191.248 202.75C184.663 205.421 177.293 205.421 170.709 202.75C168.949 202.096 167.511 200.79 166.693 199.104Z" fill="white"/>
<g opacity="0.3">
<path opacity="0.02" d="M163.92 200.34C165.469 201.228 165.469 202.686 163.92 203.574L121.39 228.001C119.84 228.889 117.308 228.893 115.758 228.001L49.097 189.844C47.5478 188.956 47.5444 187.498 49.097 186.607L91.6373 162.042C93.1798 161.151 95.7125 161.147 97.2617 162.042L163.92 200.34Z" fill="#48486A"/>
<path opacity="0.04" d="M163.667 200.294C165.206 201.178 165.206 202.639 163.667 203.51L121.373 227.814C119.834 228.698 117.331 228.698 115.775 227.814L49.4272 189.85C47.8847 188.969 47.8813 187.505 49.4272 186.634L91.7283 162.206C93.2641 161.318 95.7699 161.315 97.3191 162.206L163.667 200.294Z" fill="#48486A"/>
<path opacity="0.06" d="M163.418 200.264C164.947 201.141 164.947 202.582 163.418 203.46L121.359 227.613C119.83 228.494 117.318 228.494 115.792 227.613L49.7809 189.83C48.2485 188.953 48.2452 187.515 49.7809 186.631L91.843 162.34C93.372 161.459 95.8845 161.456 97.4034 162.34L163.418 200.264Z" fill="#48486A"/>
<path opacity="0.08" d="M163.165 200.23C164.688 201.104 164.688 202.535 163.165 203.409L121.346 227.428C119.827 228.303 117.335 228.303 115.812 227.428L50.1074 189.833C48.5818 188.962 48.5784 187.528 50.1074 186.651L91.9304 162.501C93.4527 161.623 95.9416 161.62 97.4605 162.501L163.165 200.23Z" fill="#48486A"/>
<path opacity="0.1" d="M162.913 200.2C164.425 201.068 164.425 202.492 162.913 203.359L121.332 227.241C119.82 228.112 117.345 228.112 115.829 227.241L50.4443 189.83C48.9288 188.963 48.9254 187.539 50.4443 186.668L92.0315 162.652C93.5403 161.781 96.0158 161.777 97.5279 162.652L162.913 200.2Z" fill="#48486A"/>
<path opacity="0.12" d="M162.66 200.169C164.166 201.03 164.166 202.448 162.66 203.309L121.319 227.056C119.813 227.917 117.351 227.921 115.846 227.056L50.7775 189.823C49.2721 188.959 49.2721 187.545 50.7775 186.677L92.1222 162.816C93.6243 161.948 96.0863 161.948 97.5884 162.816L162.66 200.169Z" fill="#48486A"/>
<path opacity="0.14" d="M162.411 200.136C163.906 200.997 163.906 202.401 162.411 203.262L121.306 226.869C119.81 227.727 117.362 227.73 115.863 226.869L51.118 189.824C49.6193 188.966 49.6159 187.559 51.118 186.694L92.2269 162.957C93.7223 162.092 96.1674 162.089 97.6627 162.957L162.411 200.136Z" fill="#48486A"/>
<path opacity="0.16" d="M162.158 200.106C163.644 200.96 163.644 202.357 162.158 203.212L121.292 226.665C119.807 227.519 117.372 227.522 115.883 226.665L51.4512 189.817C49.9626 188.966 49.9626 187.569 51.4512 186.711L92.3243 163.107C93.8062 162.25 96.2412 162.246 97.713 163.107L162.158 200.106Z" fill="#48486A"/>
<path opacity="0.18" d="M161.906 200.072C163.384 200.923 163.384 202.314 161.906 203.161L121.278 226.497C119.8 227.345 117.378 227.348 115.89 226.497L51.7779 189.81C50.2994 188.966 50.296 187.575 51.7779 186.721L92.4119 163.268C93.8871 162.414 96.3052 162.411 97.8006 163.268L161.906 200.072Z" fill="#48486A"/>
<path opacity="0.2" d="M161.653 200.042C163.125 200.886 163.125 202.267 161.653 203.111L121.265 226.309C119.797 227.154 117.388 227.154 115.917 226.309L52.1248 189.79C50.6564 188.949 50.653 187.569 52.1248 186.721L92.5399 163.392C94.0083 162.544 96.413 162.541 97.8814 163.392L161.653 200.042Z" fill="#48486A"/>
<path opacity="0.22" d="M161.404 200.005C162.862 200.846 162.862 202.22 161.404 203.058L121.251 226.139C119.79 226.979 117.399 226.979 115.937 226.139L52.4615 189.807C50.9999 188.969 50.9965 187.595 52.4615 186.754L92.6173 163.563C94.079 162.722 96.4669 162.719 97.9285 163.563L161.404 200.005Z" fill="#48486A"/>
<path opacity="0.24" d="M161.151 199.979C162.603 200.813 162.603 202.176 161.151 202.994L121.238 225.938C119.787 226.772 117.409 226.772 115.954 225.938L52.7984 189.803C51.3469 188.973 51.3435 187.606 52.7984 186.768L92.7219 163.717C94.1701 162.88 96.5478 162.876 97.9994 163.717L161.151 199.979Z" fill="#48486A"/>
<path opacity="0.25" d="M160.899 199.949C162.344 200.776 162.344 202.133 160.899 202.964L121.225 225.747C119.78 226.578 117.416 226.578 115.971 225.747L53.1354 189.8C51.6906 188.973 51.6872 187.616 53.1354 186.785L92.8197 163.871C94.2612 163.037 96.6221 163.037 98.0669 163.871L160.899 199.949Z" fill="#48486A"/>
<path opacity="0.27" d="M160.646 199.915C162.084 200.739 162.084 202.09 160.646 202.93L121.204 225.562C120.394 225.969 119.5 226.181 118.593 226.181C117.685 226.181 116.791 225.969 115.981 225.562L53.4721 189.797C52.0374 188.976 52.034 187.626 53.4721 186.781L92.9173 163.999C94.352 163.171 96.6994 163.171 98.1342 163.999L160.646 199.915Z" fill="#48486A"/>
<path opacity="0.29" d="M160.397 199.885C161.822 200.702 161.822 202.043 160.397 202.863L121.204 225.378C119.776 226.196 117.442 226.199 116.014 225.378L53.8088 189.794C52.3808 188.976 52.3775 187.636 53.8088 186.812L93.0182 164.173C94.4395 163.349 96.7735 163.345 98.2015 164.173L160.397 199.885Z" fill="#48486A"/>
<path opacity="0.31" d="M160.145 199.851C161.562 200.665 161.562 201.999 160.145 202.813L121.181 225.19C120.381 225.591 119.498 225.8 118.603 225.8C117.707 225.8 116.824 225.591 116.025 225.19L54.1457 189.79C52.7278 188.979 52.7245 187.646 54.1457 186.825L93.116 164.324C93.9147 163.921 94.7973 163.712 95.6925 163.712C96.5877 163.712 97.4703 163.921 98.269 164.324L160.145 199.851Z" fill="#48486A"/>
<path opacity="0.33" d="M159.892 199.821C161.303 200.629 161.303 201.955 159.892 202.763L121.16 225.006C120.365 225.404 119.488 225.612 118.597 225.612C117.707 225.612 116.829 225.404 116.034 225.006L54.4822 189.787C53.071 188.979 53.071 187.652 54.4822 186.842L93.2134 164.478C94.0071 164.077 94.8846 163.868 95.7747 163.868C96.6647 163.868 97.5422 164.077 98.336 164.478L159.892 199.821Z" fill="#48486A"/>
<path opacity="0.35" d="M159.639 199.788C161.04 200.595 161.04 201.909 159.639 202.716L121.154 224.829C120.364 225.224 119.492 225.43 118.608 225.43C117.723 225.43 116.851 225.224 116.062 224.829L54.8191 189.783C53.4181 188.979 53.4147 187.663 54.8191 186.855L93.3112 164.629C94.1005 164.231 94.9727 164.024 95.8573 164.024C96.742 164.024 97.6142 164.231 98.4035 164.629L159.639 199.788Z" fill="#48486A"/>
<path opacity="0.37" d="M159.39 199.757C160.781 200.558 160.781 201.865 159.39 202.666L121.14 224.631C120.357 225.023 119.492 225.228 118.615 225.228C117.737 225.228 116.872 225.023 116.089 224.631L55.1661 189.787C53.7718 188.989 53.7718 187.679 55.1661 186.878L93.4224 164.786C94.2057 164.392 95.0709 164.188 95.9484 164.188C96.8258 164.188 97.691 164.392 98.4743 164.786L159.39 199.757Z" fill="#48486A"/>
<path opacity="0.39" d="M159.137 199.727C160.522 200.521 160.522 201.821 159.137 202.615L121.127 224.463C120.346 224.854 119.485 225.058 118.611 225.058C117.737 225.058 116.876 224.854 116.095 224.463L55.4928 189.777C54.1086 188.983 54.1052 187.683 55.4928 186.885L93.51 164.933C94.2885 164.54 95.1493 164.335 96.0224 164.335C96.8955 164.335 97.7564 164.54 98.5349 164.933L159.137 199.727Z" fill="#48486A"/>
<path opacity="0.41" d="M158.885 199.694C160.259 200.485 160.259 201.775 158.885 202.565L121.114 224.259C120.338 224.648 119.481 224.851 118.613 224.851C117.744 224.851 116.888 224.648 116.112 224.259L55.8263 189.77C54.4522 188.983 54.4488 187.689 55.8263 186.895L93.5875 165.084C94.3616 164.694 95.2171 164.491 96.0848 164.491C96.9525 164.491 97.808 164.694 98.5821 165.084L158.885 199.694Z" fill="#48486A"/>
<path opacity="0.43" d="M158.632 199.67C159.999 200.454 159.999 201.738 158.632 202.522L121.1 224.078C120.329 224.464 119.479 224.665 118.616 224.665C117.753 224.665 116.903 224.464 116.132 224.078L56.1662 189.77C54.7988 188.986 54.7955 187.703 56.1662 186.915L93.7085 165.235C94.4771 164.847 95.3269 164.644 96.1889 164.644C97.051 164.644 97.9008 164.847 98.6694 165.235L158.632 199.67Z" fill="#48486A"/>
<path opacity="0.45" d="M158.383 199.63C159.73 200.411 159.73 201.687 158.383 202.465L121.086 223.887C120.321 224.27 119.475 224.47 118.618 224.47C117.76 224.47 116.915 224.27 116.149 223.887L56.5031 189.76C55.1559 188.986 55.1559 187.706 56.5031 186.925L93.8062 165.386C94.5702 165 95.4148 164.799 96.2715 164.799C97.1283 164.799 97.9729 165 98.7369 165.386L158.383 199.63Z" fill="#48486A"/>
<path opacity="0.47" d="M158.13 199.6C159.477 200.374 159.477 201.64 158.13 202.418L121.083 223.699C120.322 224.081 119.482 224.28 118.629 224.28C117.777 224.28 116.937 224.081 116.176 223.699L56.8397 189.76C55.4926 188.989 55.4926 187.719 56.8397 186.942L93.8869 165.54C94.6465 165.157 95.4858 164.958 96.3371 164.958C97.1884 164.958 98.0277 165.157 98.7873 165.54L158.13 199.6Z" fill="#48486A"/>
<path opacity="0.49" d="M157.878 199.57C159.225 200.337 159.225 201.58 157.878 202.368L121.059 223.515C120.304 223.894 119.469 224.092 118.623 224.092C117.776 224.092 116.942 223.894 116.186 223.515L57.1766 189.757C55.8295 188.989 55.8295 187.73 57.1766 186.959L94.0016 165.694C94.7563 165.314 95.5905 165.116 96.4366 165.116C97.2826 165.116 98.1168 165.314 98.8716 165.694L157.878 199.57Z" fill="#48486A"/>
<path opacity="0.51" d="M157.625 199.536C158.972 200.3 158.972 201.547 157.625 202.317L121.046 223.328C120.295 223.703 119.465 223.899 118.624 223.899C117.783 223.899 116.954 223.703 116.203 223.328L57.5133 189.753C56.1661 188.993 56.1661 187.743 57.5133 186.972L94.0957 165.831C94.8454 165.454 95.6737 165.257 96.5139 165.257C97.3541 165.257 98.1824 165.454 98.9321 165.831L157.625 199.536Z" fill="#48486A"/>
<path opacity="0.53" d="M157.376 199.506C158.697 200.263 158.697 201.516 157.376 202.267L121.033 223.14C120.287 223.514 119.462 223.709 118.627 223.709C117.791 223.709 116.967 223.514 116.22 223.14L57.8506 189.746C56.5271 188.989 56.5237 187.736 57.8506 186.982L94.2007 165.992C94.9456 165.617 95.7688 165.422 96.6037 165.422C97.4386 165.422 98.2618 165.617 99.0067 165.992L157.376 199.506Z" fill="#48486A"/>
<path opacity="0.55" d="M157.124 199.473C158.437 200.227 158.437 201.463 157.124 202.217L121.019 222.956C120.277 223.327 119.459 223.52 118.628 223.52C117.798 223.52 116.979 223.327 116.237 222.956L58.1874 189.743C56.8705 188.989 56.8705 187.756 58.1874 186.999L94.2915 166.166C95.0316 165.793 95.8497 165.599 96.6794 165.599C97.5091 165.599 98.3272 165.793 99.0673 166.166L157.124 199.473Z" fill="#48486A"/>
<path opacity="0.57" d="M156.871 199.443C158.177 200.19 158.177 201.419 156.871 202.167L121.006 222.768C120.269 223.138 119.456 223.33 118.631 223.33C117.806 223.33 116.993 223.138 116.257 222.768L58.5238 189.74C57.2171 188.993 57.2137 187.767 58.5238 187.013L94.3956 166.297C95.1312 165.927 95.944 165.734 96.7683 165.734C97.5926 165.734 98.4054 165.927 99.141 166.297L156.871 199.443Z" fill="#48486A"/>
<path opacity="0.59" d="M156.618 199.409C157.915 200.156 157.915 201.372 156.618 202.12L120.992 222.58C120.261 222.947 119.454 223.139 118.635 223.139C117.816 223.139 117.008 222.947 116.277 222.58L58.8642 189.746C57.5642 189.003 57.5642 187.783 58.8642 187.036L94.5002 166.458C95.231 166.09 96.0386 165.898 96.8578 165.898C97.6769 165.898 98.4845 166.09 99.2153 166.458L156.618 199.409Z" fill="#48486A"/>
<path opacity="0.61" d="M156.369 199.379C157.655 200.119 157.655 201.329 156.369 202.059L120.979 222.386C120.251 222.75 119.449 222.939 118.635 222.939C117.821 222.939 117.018 222.75 116.291 222.386L59.1975 189.723C57.9075 188.986 57.9042 187.773 59.1975 187.043L94.5944 166.605C95.3198 166.239 96.1217 166.049 96.9351 166.049C97.7484 166.049 98.5503 166.239 99.2758 166.605L156.369 199.379Z" fill="#48486A"/>
<path opacity="0.63" d="M156.116 199.335C157.396 200.072 157.396 201.275 156.116 202.016L120.965 222.205C120.244 222.567 119.446 222.755 118.638 222.755C117.83 222.755 117.033 222.567 116.311 222.205L59.5344 189.726C58.2512 188.993 58.2512 187.79 59.5344 187.046L94.6922 166.743C95.4132 166.38 96.2098 166.191 97.0178 166.191C97.8257 166.191 98.6223 166.38 99.3433 166.743L156.116 199.335Z" fill="#48486A"/>
<path opacity="0.65" d="M155.864 199.315C157.133 200.046 157.133 201.238 155.864 201.969L120.952 222.021C120.235 222.381 119.443 222.569 118.64 222.569C117.837 222.569 117.045 222.381 116.328 222.021L59.8711 189.726C58.598 188.999 58.5947 187.803 59.8711 187.07L94.7898 166.907C95.5059 166.546 96.2974 166.358 97.1002 166.358C97.9029 166.358 98.6944 166.546 99.4105 166.907L155.864 199.315Z" fill="#48486A"/>
<path opacity="0.67" d="M155.615 199.285C156.874 200.009 156.874 201.195 155.615 201.919L120.925 221.837C120.213 222.194 119.427 222.38 118.63 222.38C117.832 222.38 117.046 222.194 116.334 221.837L60.1945 189.723C58.9349 188.999 58.9315 187.813 60.1945 187.086L94.8842 167.058C95.5946 166.7 96.3798 166.514 97.176 166.514C97.9723 166.514 98.7574 166.7 99.4679 167.058L155.615 199.285Z" fill="#48486A"/>
<path opacity="0.69" d="M155.362 199.252C156.615 199.972 156.615 201.151 155.362 201.868L120.921 221.636C120.215 221.991 119.435 222.176 118.643 222.176C117.852 222.176 117.071 221.991 116.365 221.636L60.5413 189.706C59.2884 188.986 59.285 187.81 60.5413 187.086L94.9851 167.195C95.6911 166.84 96.4709 166.656 97.2618 166.656C98.0526 166.656 98.8325 166.84 99.5385 167.195L155.362 199.252Z" fill="#48486A"/>
<path opacity="0.71" d="M155.109 199.221C156.352 199.935 156.352 201.104 155.109 201.821L120.908 221.465C120.206 221.817 119.431 222 118.645 222C117.859 222 117.084 221.817 116.382 221.465L60.8815 189.72C59.632 189.006 59.632 187.837 60.8815 187.116L95.0861 167.349C95.7871 166.995 96.5618 166.811 97.3477 166.811C98.1335 166.811 98.9083 166.995 99.6093 167.349L155.109 199.221Z" fill="#48486A"/>
<path opacity="0.73" d="M154.857 199.188C156.093 199.898 156.093 201.061 154.857 201.771L120.895 221.277C120.197 221.627 119.427 221.809 118.647 221.809C117.866 221.809 117.096 221.627 116.398 221.277L61.2149 189.713C59.9789 189.003 59.9755 187.84 61.2149 187.13L95.1805 167.507C95.8761 167.155 96.6451 166.972 97.4252 166.972C98.2052 166.972 98.9743 167.155 99.6699 167.507L154.857 199.188Z" fill="#48486A"/>
<path opacity="0.75" d="M154.604 199.158C155.834 199.861 155.834 201.017 154.604 201.721L120.868 221.09C120.175 221.437 119.411 221.619 118.635 221.619C117.859 221.619 117.094 221.437 116.402 221.09L61.5384 189.706C60.3125 189.006 60.3091 187.85 61.5384 187.143L95.2715 167.671C95.9623 167.321 96.7262 167.139 97.5011 167.139C98.276 167.139 99.0399 167.321 99.7307 167.671L154.604 199.158Z" fill="#48486A"/>
<path opacity="0.76" d="M154.355 199.124C155.571 199.824 155.571 200.97 154.355 201.671L120.868 220.905C120.18 221.249 119.421 221.428 118.651 221.428C117.882 221.428 117.123 221.249 116.435 220.905L61.8749 189.703C60.6557 189.006 60.6523 187.86 61.8749 187.157L95.3656 167.818C96.0519 167.472 96.8105 167.291 97.58 167.291C98.3494 167.291 99.1081 167.472 99.7944 167.818L154.355 199.124Z" fill="#48486A"/>
<path opacity="0.78" d="M154.102 199.094C155.311 199.791 155.311 200.927 154.102 201.621L120.854 220.718C120.171 221.06 119.418 221.238 118.653 221.238C117.889 221.238 117.135 221.06 116.452 220.718L62.2286 189.7C61.0195 189.01 61.0162 187.87 62.2286 187.174L95.4835 167.969C96.1624 167.628 96.9123 167.451 97.6727 167.451C98.4331 167.451 99.1829 167.628 99.8618 167.969L154.102 199.094Z" fill="#48486A"/>
<path opacity="0.8" d="M153.85 199.064C155.052 199.754 155.052 200.883 153.85 201.573L120.844 220.53C120.165 220.871 119.416 221.049 118.655 221.049C117.894 221.049 117.144 220.871 116.466 220.53L62.5587 189.706C61.3564 189.036 61.3564 187.89 62.5587 187.197L95.5644 168.13C96.2428 167.787 96.9928 167.609 97.7536 167.609C98.5144 167.609 99.2644 167.787 99.9428 168.13L153.85 199.064Z" fill="#48486A"/>
<path opacity="0.82" d="M153.597 199.03C154.793 199.717 154.793 200.836 153.597 201.523L120.828 220.346C120.155 220.683 119.412 220.858 118.659 220.858C117.905 220.858 117.162 220.683 116.49 220.346L62.8991 189.693C61.7069 189.023 61.7035 187.89 62.8991 187.2L95.6758 168.274C96.3478 167.936 97.0902 167.76 97.8431 167.76C98.596 167.76 99.3383 167.936 100.01 168.274L153.597 199.03Z" fill="#48486A"/>
<path opacity="0.84" d="M153.348 199C154.53 199.67 154.53 200.793 153.348 201.473L120.814 220.158C120.146 220.493 119.408 220.667 118.66 220.667C117.912 220.667 117.174 220.493 116.506 220.158L63.2358 189.69C62.0503 189.019 62.0503 187.897 63.2358 187.217L95.7733 168.425C96.4406 168.089 97.1778 167.914 97.9254 167.914C98.6731 167.914 99.4102 168.089 100.078 168.425L153.348 199Z" fill="#48486A"/>
<path opacity="0.86" d="M153.095 198.967C154.271 199.637 154.271 200.746 153.095 201.423L120.8 219.971C120.137 220.303 119.405 220.477 118.662 220.477C117.919 220.477 117.186 220.303 116.523 219.971L63.5725 189.686C62.3971 189.016 62.3937 187.907 63.5725 187.23L95.8743 168.579C96.5359 168.244 97.2675 168.07 98.0096 168.07C98.7516 168.07 99.4832 168.244 100.145 168.579L153.095 198.967Z" fill="#48486A"/>
<path opacity="0.88" d="M152.843 198.937C154.011 199.607 154.011 200.702 152.843 201.372L120.787 219.8C120.128 220.13 119.401 220.302 118.663 220.302C117.926 220.302 117.198 220.13 116.54 219.8L63.9092 189.686C62.7405 189.016 62.7405 187.921 63.9092 187.247L95.9719 168.733C96.6288 168.401 97.3552 168.228 98.092 168.228C98.8288 168.228 99.5552 168.401 100.212 168.733L152.843 198.937Z" fill="#48486A"/>
<path opacity="0.9" d="M152.59 198.906C153.749 199.577 153.749 200.659 152.59 201.322L120.773 219.599C120.12 219.927 119.399 220.098 118.667 220.098C117.935 220.098 117.213 219.927 116.56 219.599L64.2462 189.68C63.0876 189.009 63.0842 187.927 64.2462 187.26L96.0731 168.88C96.7257 168.552 97.4468 168.381 98.178 168.381C98.9093 168.381 99.6303 168.552 100.283 168.88L152.59 198.906Z" fill="#48486A"/>
<path opacity="0.92" d="M152.341 198.873C153.489 199.543 153.489 200.615 152.341 201.275L120.76 219.414C120.111 219.74 119.395 219.909 118.668 219.909C117.942 219.909 117.226 219.74 116.577 219.414L64.5828 189.679C63.4344 189.009 63.431 187.941 64.5828 187.277L96.1672 169.037C96.8151 168.711 97.531 168.541 98.257 168.541C98.9831 168.541 99.699 168.711 100.347 169.037L152.341 198.873Z" fill="#48486A"/>
<path opacity="0.94" d="M152.088 198.843C153.23 199.513 153.23 200.568 152.088 201.225L120.743 219.227C120.1 219.549 119.389 219.717 118.669 219.717C117.948 219.717 117.237 219.549 116.594 219.227L64.9198 189.673C63.7781 189.003 63.7747 187.947 64.9198 187.287L96.2819 169.182C96.9239 168.858 97.6335 168.689 98.3532 168.689C99.0729 168.689 99.7825 168.858 100.424 169.182L152.088 198.843Z" fill="#48486A"/>
<path opacity="0.96" d="M151.853 198.809C152.984 199.459 152.984 200.525 151.853 201.175L120.746 219.039C120.108 219.359 119.403 219.526 118.689 219.526C117.974 219.526 117.269 219.359 116.631 219.039L65.2733 189.669C64.1417 189.019 64.1383 187.957 65.2733 187.304L96.3862 169.339C97.0235 169.018 97.7279 168.85 98.4423 168.85C99.1568 168.85 99.8612 169.018 100.498 169.339L151.853 198.809Z" fill="#48486A"/>
<path opacity="0.98" d="M151.583 198.779C152.708 199.422 152.708 200.481 151.583 201.124L120.716 218.855C120.082 219.171 119.383 219.336 118.674 219.336C117.964 219.336 117.265 219.171 116.631 218.855L65.5935 189.666C64.4686 189.023 64.4652 187.964 65.5935 187.321L96.4638 169.493C97.0967 169.175 97.7958 169.01 98.5048 169.01C99.2138 169.01 99.9129 169.175 100.546 169.493L151.583 198.779Z" fill="#48486A"/>
<path opacity="0.3" d="M151.334 198.746C152.449 199.386 152.449 200.421 151.334 201.091L120.686 218.684C120.059 218.997 119.367 219.159 118.665 219.159C117.964 219.159 117.272 218.997 116.644 218.684L65.9267 189.68C64.8119 189.04 64.8086 188.004 65.9267 187.334L96.5749 169.644C97.2013 169.329 97.8935 169.165 98.5956 169.165C99.2977 169.165 99.9899 169.329 100.616 169.644L151.334 198.746Z" fill="#48486A"/>
</g>
<path d="M161.007 197.905V199.225C161.004 199.565 160.913 199.898 160.741 200.192C160.569 200.486 160.323 200.73 160.027 200.9L120.831 223.368C120.028 223.771 119.141 223.981 118.242 223.981C117.343 223.981 116.457 223.771 115.654 223.368L54.6946 188.457C54.3106 188.237 53.9918 187.92 53.77 187.538C53.5483 187.156 53.4316 186.723 53.4316 186.282V185.77L93.5369 162.759C94.3382 162.356 95.2237 162.146 96.1218 162.146C97.0199 162.146 97.9053 162.356 98.7067 162.759L161.007 197.905Z" fill="url(#paint7_linear_4219_1293)"/>
<path d="M159.936 196.461C161.36 197.278 161.36 198.615 159.936 199.433L120.827 221.88C120.024 222.282 119.138 222.491 118.239 222.491C117.34 222.491 116.454 222.282 115.651 221.88L54.4085 186.852C52.9873 186.034 52.9839 184.697 54.4085 183.877L93.5236 161.288C94.325 160.885 95.2104 160.675 96.1085 160.675C97.0066 160.675 97.8921 160.885 98.6934 161.288L159.936 196.461Z" fill="white"/>
<path d="M148.98 193.529L110.626 215.726L62.2524 188.045L100.606 165.744L148.98 193.529Z" fill="#D3DAED"/>
<path d="M75.5287 176.847C75.6602 176.849 75.7895 176.814 75.9025 176.747L84.1135 172.029C84.2846 171.931 84.4094 171.77 84.4606 171.58C84.5117 171.39 84.485 171.188 84.3863 171.018C84.2876 170.848 84.125 170.723 83.9343 170.672C83.7435 170.622 83.5402 170.648 83.3692 170.746L75.1548 175.464C75.0118 175.545 74.8998 175.671 74.8364 175.822C74.773 175.973 74.7618 176.141 74.8046 176.299C74.8473 176.457 74.9415 176.597 75.0726 176.696C75.2036 176.795 75.364 176.849 75.5287 176.847Z" fill="#5C629E"/>
<path d="M121.605 186.034C113.398 181.32 99.9664 181.32 91.7588 186.034C83.5511 190.748 83.5511 198.461 91.7588 203.175C99.9664 207.889 113.398 207.889 121.605 203.175C129.813 198.461 129.813 190.748 121.605 186.034Z" fill="url(#paint8_radial_4219_1293)" style="mix-blend-mode:multiply"/>
<path d="M90.3376 188.48H92.1698C93.0223 187.56 94.0158 186.78 95.1134 186.168C101.475 182.513 111.889 182.513 118.254 186.168C119.352 186.78 120.345 187.56 121.198 188.48H123.027V192.779C123.044 195.201 121.454 197.623 118.258 199.459C111.892 203.115 101.479 203.115 95.1167 199.459C91.9172 197.623 90.3275 195.201 90.3444 192.779L90.3376 188.48Z" fill="url(#paint9_linear_4219_1293)"/>
<path d="M118.254 181.833C111.889 178.178 101.475 178.178 95.1131 181.833C88.7511 185.488 88.7477 191.469 95.1131 195.124C101.479 198.779 111.889 198.779 118.254 195.124C124.62 191.469 124.616 185.488 118.254 181.833Z" fill="white"/>
<path d="M90.3443 188.567C90.341 188.509 90.341 188.451 90.3443 188.393V184.831H91.6107C92.5518 183.592 93.7454 182.565 95.1133 181.816C99.6095 179.233 96.5885 189.097 95.1133 195.107V199.443C91.9946 197.65 90.3982 195.301 90.3443 192.943V188.567Z" fill="#454A77"/>
<path d="M95.1132 178.188C88.7478 181.843 88.7478 187.823 95.1132 191.479L106.682 186.048L95.1132 178.188Z" fill="#7D81B1"/>
<path d="M106.682 186.048V189.696L95.113 195.127V191.479L106.682 186.048Z" fill="#5C629E"/>
<path d="M117.796 171.457C111.683 167.946 101.681 167.946 95.5679 171.457C89.4552 174.968 89.4585 180.711 95.5679 184.222C101.677 187.733 111.683 187.733 117.796 184.222C123.909 180.711 123.899 174.968 117.796 171.457Z" fill="url(#paint10_radial_4219_1293)" style="mix-blend-mode:multiply"/>
<path d="M95.113 167.088C101.475 163.432 111.889 163.432 118.254 167.088L106.682 174.951L95.113 167.088Z" fill="url(#paint11_linear_4219_1293)"/>
<path d="M118.254 167.091V174.382L106.682 182.245V174.951L118.254 167.091Z" fill="url(#paint12_linear_4219_1293)"/>
<path d="M106.682 174.951L95.113 167.091V174.382L106.682 182.245V174.951Z" fill="url(#paint13_linear_4219_1293)"/>
<path d="M74.0646 148.442L73.2392 149.13H66.0231L65.2351 148.413C64.0933 147.367 63.1818 146.097 62.5583 144.683C61.9347 143.269 61.6126 141.741 61.6123 140.197V137.076H78.0834V139.878C78.0834 141.511 77.7236 143.124 77.0293 144.604C76.335 146.083 75.323 147.393 74.0646 148.442Z" fill="#48486A"/>
<path d="M65.8142 148.94H73.3002V150.986C73.3002 151.075 73.2647 151.16 73.2015 151.223C73.1383 151.286 73.0527 151.321 72.9633 151.321H66.1511C66.0617 151.321 65.9761 151.286 65.9129 151.223C65.8497 151.16 65.8142 151.075 65.8142 150.986V148.94Z" fill="#363650"/>
<path d="M75.6444 133.746C72.4451 131.908 67.2129 131.908 64.0215 133.746C60.8301 135.584 60.8222 138.589 64.0215 140.425C67.2207 142.261 72.4511 142.261 75.6444 140.425C78.8377 138.589 78.8417 135.58 75.6444 133.746Z" fill="#2842A2"/>
<g filter="url(#filter0_d_4219_1293)">
<path d="M69.8545 106.335C66.6105 106.333 63.4527 107.374 60.8515 109.302C58.2503 111.23 56.345 113.943 55.4195 117.036C54.494 120.129 54.5978 123.437 55.7155 126.466C56.4407 128.432 57.5675 130.212 59.0117 131.702C60.4817 133.218 61.6219 135.122 61.6219 137.234C61.6692 138.398 62.536 139.574 64.0726 140.458C67.2443 142.279 72.4923 142.257 75.664 140.437C77.1895 139.559 77.9752 138.415 78.027 137.259C78.0276 137.245 78.0391 137.234 78.0531 137.234C78.0675 137.234 78.0792 137.223 78.0792 137.208V135.04C78.0792 134.297 78.4628 133.613 79.0524 133.16C81.2916 131.441 83.0053 129.123 83.9855 126.467C85.1032 123.437 85.2072 120.13 84.2819 117.037C83.3566 113.944 81.4517 111.231 78.8508 109.303C76.2499 107.374 73.0924 106.334 69.8486 106.335H69.8545Z" fill="url(#paint14_linear_4219_1293)" fill-opacity="0.991703"/>
</g>
<path d="M61.4349 122.948C61.4349 120.349 62.4726 117.857 64.3199 116.019C66.1671 114.182 68.6725 113.149 71.2848 113.149C76.3181 113.149 75.9281 108.973 69.5118 108.973C66.4292 108.973 63.4729 110.191 61.2932 112.36C59.1135 114.528 57.8889 117.469 57.8889 120.535C57.8909 124.584 61.4349 126.379 61.4349 122.948Z" fill="white"/>
<path opacity="0.49" d="M75.6639 141.746C72.4922 143.566 67.2442 143.588 64.0725 141.767C62.5359 140.883 61.6691 139.707 61.6218 138.543V139.664C61.6691 140.828 62.5359 142.006 64.0725 142.888C67.2442 144.711 72.4922 144.689 75.6639 142.867C77.2005 141.985 77.9865 140.828 78.0279 139.664H78.0791V138.543H78.0279C77.9865 139.707 77.2005 140.872 75.6639 141.746Z" fill="#6D6D88"/>
<path opacity="0.49" d="M75.6207 145.005C72.449 146.825 67.201 146.847 64.0293 145.026C63.2345 144.595 62.5581 143.977 62.0593 143.225C62.2648 143.951 62.544 144.653 62.8926 145.322C63.2435 145.637 63.6272 145.914 64.0372 146.147C67.2089 147.97 72.4569 147.946 75.6286 146.126C75.9628 145.934 76.2798 145.713 76.5762 145.467C76.9965 144.743 77.3336 143.974 77.5808 143.174C77.1024 143.947 76.4258 144.579 75.6207 145.005Z" fill="#6D6D88"/>
<path d="M69.8012 105.093C69.64 105.092 69.4806 105.06 69.332 104.998C69.1834 104.936 69.0485 104.845 68.9351 104.731C68.8217 104.617 68.7319 104.482 68.671 104.334C68.61 104.185 68.579 104.026 68.5798 103.866L68.6251 94.5082C68.6267 94.1856 68.7568 93.8768 68.9868 93.6494C69.2169 93.422 69.5281 93.2946 69.8524 93.2952C70.1776 93.2967 70.4888 93.4266 70.7178 93.6562C70.9468 93.8859 71.0749 94.1965 71.0738 94.52L71.0285 103.878C71.0264 104.2 70.8963 104.509 70.6664 104.737C70.4365 104.964 70.1255 105.092 69.8012 105.093ZM79.8481 106.866L84.5978 98.7903C84.695 98.652 84.7623 98.4953 84.7956 98.3299C84.8288 98.1645 84.8272 97.994 84.791 97.8293C84.7547 97.6645 84.6845 97.509 84.5848 97.3726C84.4851 97.2361 84.3581 97.1217 84.2117 97.0366C84.0654 96.9514 83.9029 96.8973 83.7344 96.8778C83.566 96.8582 83.3954 96.8736 83.2332 96.9229C83.0711 96.9722 82.921 97.0544 82.7924 97.1643C82.6637 97.2743 82.5594 97.4095 82.4859 97.5615L77.7343 105.638C77.5709 105.917 77.5255 106.25 77.6082 106.563C77.6909 106.876 77.895 107.144 78.1756 107.307C78.3622 107.418 78.5752 107.476 78.7922 107.476C79.0074 107.476 79.2187 107.419 79.4051 107.312C79.5915 107.205 79.7463 107.052 79.854 106.866H79.8481ZM85.9807 113.851L94.1601 109.23C94.4433 109.07 94.651 108.805 94.7376 108.493C94.8243 108.18 94.7827 107.847 94.6221 107.565C94.5425 107.425 94.4361 107.303 94.3089 107.204C94.1818 107.106 94.0364 107.033 93.881 106.99C93.5671 106.904 93.2317 106.946 92.9485 107.105L84.7692 111.728C84.5333 111.861 84.3483 112.068 84.2431 112.317C84.1379 112.566 84.1185 112.842 84.1878 113.103C84.2571 113.363 84.4112 113.594 84.6262 113.758C84.8411 113.923 85.1048 114.012 85.3759 114.012C85.5902 114.013 85.801 113.957 85.9866 113.851H85.9807ZM55.4302 113.296C55.5131 113.159 55.568 113.007 55.5917 112.848C55.6154 112.689 55.6074 112.528 55.5682 112.372C55.5291 112.217 55.4595 112.071 55.3635 111.942C55.2674 111.813 55.1468 111.705 55.0086 111.623L46.9317 106.819C46.6526 106.657 46.3203 106.61 46.007 106.69C45.6938 106.77 45.4249 106.97 45.2588 107.246C45.0927 107.522 45.0428 107.852 45.1199 108.164C45.1971 108.477 45.3951 108.746 45.6709 108.914L53.7478 113.718C54.0271 113.883 54.3612 113.932 54.6766 113.853C54.9921 113.774 55.2631 113.574 55.4302 113.296ZM61.61 107.248C61.8945 107.091 62.1045 106.828 62.1939 106.517C62.2833 106.205 62.2447 105.872 62.0868 105.589L57.5184 97.4086C57.4471 97.2574 57.3454 97.1223 57.2195 97.0117C57.0937 96.9012 56.9463 96.8175 56.7867 96.7658C56.627 96.7142 56.4584 96.6956 56.2912 96.7114C56.124 96.7272 55.9619 96.7769 55.8148 96.8575C55.6678 96.9381 55.5389 97.0479 55.4362 97.18C55.3335 97.3122 55.2591 97.4639 55.2177 97.6258C55.1763 97.7876 55.1687 97.9562 55.1954 98.1211C55.2222 98.2861 55.2826 98.4438 55.373 98.5845L59.9474 106.772C60.0252 106.913 60.1303 107.037 60.2565 107.136C60.3826 107.236 60.5274 107.311 60.6825 107.355C60.8376 107.399 60.9999 107.412 61.1601 107.393C61.3202 107.375 61.4752 107.325 61.6159 107.247L61.61 107.248Z" fill="url(#paint15_linear_4219_1293)"/>
<defs>
<filter id="filter0_d_4219_1293" x="44.7939" y="101.335" width="50.1133" height="55.4776" filterUnits="userSpaceOnUse" color-interpolation-filters="sRGB">
<feFlood flood-opacity="0" result="BackgroundImageFix"/>
<feColorMatrix in="SourceAlpha" type="matrix" values="0 0 0 0 0 0 0 0 0 0 0 0 0 0 0 0 0 0 127 0" result="hardAlpha"/>
<feOffset dy="5"/>
<feGaussianBlur stdDeviation="5"/>
<feColorMatrix type="matrix" values="0 0 0 0 0.988235 0 0 0 0 0.407843 0 0 0 0 0.227451 0 0 0 0.25 0"/>
<feBlend mode="normal" in2="BackgroundImageFix" result="effect1_dropShadow_4219_1293"/>
<feBlend mode="normal" in="SourceGraphic" in2="effect1_dropShadow_4219_1293" result="shape"/>
</filter>
<linearGradient id="paint0_linear_4219_1293" x1="124.042" y1="114.329" x2="176.173" y2="204.798" gradientUnits="userSpaceOnUse">
<stop stop-color="#1D4CB9"/>
<stop offset="1" stop-color="#1B0E6B"/>
</linearGradient>
<linearGradient id="paint1_linear_4219_1293" x1="102.702" y1="100.025" x2="254.603" y2="181.421" gradientUnits="userSpaceOnUse">
<stop stop-color="#2A2895"/>
<stop offset="1" stop-color="#793BC8"/>
</linearGradient>
<linearGradient id="paint2_linear_4219_1293" x1="102.702" y1="133.135" x2="204.338" y2="176.695" gradientUnits="userSpaceOnUse">
<stop stop-color="#2A2895"/>
<stop offset="1" stop-color="#793BC8"/>
</linearGradient>
<radialGradient id="paint3_radial_4219_1293" cx="0" cy="0" r="1" gradientUnits="userSpaceOnUse" gradientTransform="translate(180.94 298.185) rotate(180) scale(26.8694 14.7484)">
<stop offset="0.53" stop-color="#48486A"/>
<stop offset="0.59" stop-color="#6F6F8A"/>
<stop offset="0.65" stop-color="#9B9BAD"/>
<stop offset="0.72" stop-color="#BFBFCB"/>
<stop offset="0.79" stop-color="#DBDBE2"/>
<stop offset="0.86" stop-color="#EFEFF2"/>
<stop offset="0.93" stop-color="#FBFBFC"/>
<stop offset="1" stop-color="white"/>
</radialGradient>
<linearGradient id="paint4_linear_4219_1293" x1="198.344" y1="195.63" x2="155.472" y2="206.306" gradientUnits="userSpaceOnUse">
<stop stop-color="#2A2895"/>
<stop offset="1" stop-color="#793BC8"/>
</linearGradient>
<linearGradient id="paint5_linear_4219_1293" x1="-8412.56" y1="4552.14" x2="-8940.81" y2="4552.14" gradientUnits="userSpaceOnUse">
<stop offset="0.02" stop-color="#5C629E"/>
<stop offset="0.37" stop-color="#565B8F"/>
<stop offset="1" stop-color="#48486A"/>
</linearGradient>
<linearGradient id="paint6_linear_4219_1293" x1="-7696.38" y1="3469.58" x2="-8137.2" y2="3469.58" gradientUnits="userSpaceOnUse">
<stop offset="0.02" stop-color="#FFC107"/>
<stop offset="0.44" stop-color="#FFB204"/>
<stop offset="1" stop-color="#FF9800"/>
</linearGradient>
<linearGradient id="paint7_linear_4219_1293" x1="161.007" y1="193.077" x2="53.4148" y2="193.077" gradientUnits="userSpaceOnUse">
<stop stop-color="#99A7D8"/>
<stop offset="0.19" stop-color="#A6B2DD"/>
<stop offset="0.55" stop-color="#C9D1EA"/>
<stop offset="1" stop-color="white"/>
</linearGradient>
<radialGradient id="paint8_radial_4219_1293" cx="0" cy="0" r="1" gradientUnits="userSpaceOnUse" gradientTransform="translate(106.682 203.022) rotate(180) scale(21.3089 11.023)">
<stop offset="0.09" stop-color="#3C5185"/>
<stop offset="0.16" stop-color="#506291"/>
<stop offset="0.38" stop-color="#8D9AB8"/>
<stop offset="0.58" stop-color="#BEC5D7"/>
<stop offset="0.76" stop-color="#E2E5ED"/>
<stop offset="0.91" stop-color="#F7F8FA"/>
<stop offset="1" stop-color="white"/>
</radialGradient>
<linearGradient id="paint9_linear_4219_1293" x1="90.3376" y1="192.815" x2="123.027" y2="192.815" gradientUnits="userSpaceOnUse">
<stop stop-color="#99A7D8"/>
<stop offset="0.5" stop-color="#CED5EC"/>
<stop offset="1" stop-color="white"/>
</linearGradient>
<radialGradient id="paint10_radial_4219_1293" cx="0" cy="0" r="1" gradientUnits="userSpaceOnUse" gradientTransform="translate(41301.4 160213) scale(1479.21 849.658)">
<stop offset="0.09" stop-color="#3C5185"/>
<stop offset="0.16" stop-color="#506291"/>
<stop offset="0.38" stop-color="#8D9AB8"/>
<stop offset="0.58" stop-color="#BEC5D7"/>
<stop offset="0.76" stop-color="#E2E5ED"/>
<stop offset="0.91" stop-color="#F7F8FA"/>
<stop offset="1" stop-color="white"/>
</radialGradient>
<linearGradient id="paint11_linear_4219_1293" x1="20054" y1="12912.1" x2="19320.9" y2="13503.3" gradientUnits="userSpaceOnUse">
<stop stop-color="#5C629E"/>
<stop offset="1" stop-color="#48486A"/>
</linearGradient>
<linearGradient id="paint12_linear_4219_1293" x1="8285.21" y1="14787.6" x2="8682.83" y2="14787.6" gradientUnits="userSpaceOnUse">
<stop stop-color="#5C629E"/>
<stop offset="1" stop-color="#48486A"/>
</linearGradient>
<linearGradient id="paint13_linear_4219_1293" x1="7873.89" y1="14787.6" x2="8271.28" y2="14787.6" gradientUnits="userSpaceOnUse">
<stop stop-color="#5C629E"/>
<stop offset="1" stop-color="#48486A"/>
</linearGradient>
<linearGradient id="paint14_linear_4219_1293" x1="84.9071" y1="124.074" x2="54.7939" y2="124.074" gradientUnits="userSpaceOnUse">
<stop stop-color="#FFA979"/>
<stop offset="1" stop-color="#FF6231"/>
</linearGradient>
<linearGradient id="paint15_linear_4219_1293" x1="94.7827" y1="103.657" x2="45.0963" y2="103.657" gradientUnits="userSpaceOnUse">
<stop stop-color="#FB7668"/>
<stop offset="1" stop-color="#FFE28B"/>
</linearGradient>
</defs>
</svg>
